<?xml version="1.0" encoding="UTF-8" standalone="no"?>
<!DOCTYPE svg PUBLIC "-//W3C//DTD SVG 1.1//EN" "http://www.w3.org/Graphics/SVG/1.1/DTD/svg11.dtd">
<svg xmlns="http://www.w3.org/2000/svg" version="1.1" viewBox="0.00 0.00 428.00 145.00">
<g stroke-width="2.00" fill="none" stroke-linecap="butt">
<path stroke="#808080" vector-effect="non-scaling-stroke" d="
  M 91.25 40.47
  Q 93.25 40.09 95.26 40.28
  A 0.41 0.41 0.0 0 0 95.49 39.51
  Q 85.79 34.45 75.25 37.18
  A 0.20 0.20 0.0 0 1 75.08 36.83
  Q 81.60 32.04 89.70 33.49
  Q 90.21 33.59 90.38 33.09
  L 90.93 31.40
  A 0.69 0.68 10.1 0 1 91.61 30.93
  Q 96.76 31.13 101.32 33.50
  A 0.44 0.44 0.0 0 0 101.92 32.93
  L 100.74 30.41
  Q 100.43 29.74 101.12 29.99
  L 107.83 32.35
  Q 108.30 32.52 108.18 32.04
  Q 106.91 26.95 102.52 23.97
  C 92.91 17.45 81.75 22.21 73.04 28.06
  A 0.40 0.39 64.2 0 1 72.44 27.85
  Q 70.88 23.07 68.44 18.65
  C 65.02 12.46 55.78 6.96 49.24 12.28
  A 0.35 0.35 0.0 0 0 49.46 12.90
  Q 53.51 12.94 54.38 16.75
  Q 54.53 17.36 55.00 17.78
  Q 62.93 24.74 65.52 35.02
  A 0.22 0.22 0.0 0 1 65.13 35.20
  C 54.27 19.45 32.67 20.07 23.33 36.81
  A 0.47 0.47 0.0 0 0 23.93 37.47
  L 30.15 34.79
  A 0.56 0.56 0.0 0 1 30.93 35.39
  L 30.71 36.84
  Q 30.64 37.34 31.13 37.21
  L 41.75 34.37
  Q 42.62 34.14 42.40 35.01
  L 41.90 36.91
  Q 41.69 37.69 42.46 37.43
  Q 50.95 34.59 58.61 39.23
  A 0.21 0.21 0.0 0 1 58.46 39.61
  Q 49.99 38.20 42.31 41.90
  A 0.37 0.37 0.0 0 0 42.40 42.59
  L 44.81 43.08
  Q 45.47 43.21 44.85 43.50
  C 32.80 49.07 30.58 64.52 40.73 73.15
  A 0.50 0.50 0.0 0 0 41.55 72.75
  L 41.19 65.47
  A 0.33 0.33 0.0 0 1 41.79 65.27
  L 44.04 68.68
  Q 44.56 69.47 44.51 68.53
  Q 44.16 62.09 46.73 56.18
  A 0.35 0.34 46.6 0 1 47.37 56.20
  L 48.38 59.02
  Q 48.59 59.62 48.85 59.03
  C 52.20 51.55 55.73 46.58 64.55 45.36
  A 0.22 0.22 0.0 0 1 64.76 45.70
  C 49.26 69.36 42.59 98.65 48.04 126.68
  C 49.47 134.03 15.97 139.40 11.02 139.88
  A 1.64 1.64 0.0 0 0 10.39 142.95
  Q 11.69 143.65 13.26 143.52
  Q 35.35 141.66 54.52 131.18
  C 66.14 124.84 82.07 108.91 95.83 110.83
  Q 96.56 110.93 95.93 111.32
  C 88.95 115.70 84.24 122.95 92.63 129.34
  Q 97.70 133.20 104.04 132.06
  Q 130.93 127.22 150.34 106.27
  C 157.62 98.42 164.87 91.03 171.04 85.30
  C 181.56 75.54 199.40 67.43 213.88 73.37
  Q 214.43 73.59 213.85 73.71
  C 201.89 76.25 193.82 86.49 196.83 98.60
  C 199.59 109.72 212.39 116.08 222.94 117.33
  C 236.59 118.96 250.28 113.52 257.46 101.47
  C 267.89 83.95 261.62 61.59 241.25 55.28
  C 235.08 53.38 223.48 52.94 218.50 58.67
  A 1.16 1.16 0.0 0 0 219.49 60.59
  C 224.09 60.13 229.28 58.85 233.20 58.90
  C 246.74 59.07 258.32 70.88 258.05 84.15
  C 257.53 109.45 228.40 120.92 208.25 106.75
  C 197.82 99.42 198.14 84.89 210.40 80.09
  C 215.48 78.10 221.13 78.82 226.08 81.00
  A 0.86 0.86 0.0 0 0 227.28 80.31
  Q 227.65 77.03 224.96 74.79
  Q 212.63 64.53 196.49 67.34
  C 157.22 74.19 145.53 122.76 104.02 127.49
  C 99.59 128.00 88.64 126.46 93.94 118.88
  Q 95.73 116.33 96.68 115.91
  C 99.24 114.79 105.11 112.39 104.28 109.07
  Q 104.15 108.60 103.71 108.38
  C 88.66 101.16 71.17 114.93 59.48 123.03
  Q 58.97 123.38 58.79 122.79
  Q 58.16 120.78 57.66 117.56
  Q 51.88 80.88 70.21 49.26
  A 0.46 0.46 0.0 0 1 71.02 49.29
  Q 76.04 60.13 70.32 70.57
  Q 69.93 71.30 70.65 70.90
  L 73.73 69.22
  A 0.68 0.68 0.0 0 1 74.68 70.09
  Q 71.76 76.75 66.49 81.74
  Q 65.77 82.42 66.75 82.27
  Q 69.37 81.87 71.69 80.67
  Q 72.57 80.21 72.02 81.04
  Q 69.52 84.79 65.75 87.28
  A 0.53 0.53 0.0 0 0 66.02 88.26
  C 81.72 88.91 92.50 75.21 86.57 59.78
  A 0.24 0.24 0.0 0 1 86.97 59.53
  L 90.06 62.70
  Q 90.97 63.64 90.54 62.41
  Q 87.19 52.85 79.14 46.76
  A 0.33 0.32 -15.6 0 1 79.46 46.20
  Q 88.80 49.83 92.71 59.06
  A 0.30 0.30 0.0 0 0 93.28 58.90
  Q 93.01 57.05 93.68 55.35
  Q 94.09 54.31 94.58 55.31
  L 100.91 68.41
  A 0.40 0.40 0.0 0 0 101.67 68.30
  L 102.25 64.77
  A 0.47 0.47 0.0 0 1 103.17 64.72
  L 105.84 74.27
  Q 105.99 74.81 106.26 74.32
  C 112.88 62.50 108.55 48.24 96.16 42.55
  C 94.75 41.90 92.88 41.50 91.21 40.87
  Q 90.49 40.61 91.25 40.47"
/>
<path stroke="#808080" vector-effect="non-scaling-stroke" d="
  M 300.67 33.47
  L 301.62 49.81
  Q 301.66 50.50 302.34 50.62
  L 303.36 50.79
  A 1.38 1.37 -86.5 0 0 304.97 49.36
  L 304.10 33.59
  Q 304.06 33.00 304.65 33.00
  L 309.94 33.00
  A 2.35 2.34 13.4 0 0 312.03 31.72
  Q 312.85 30.11 311.49 29.37
  C 309.48 28.28 299.46 29.00 296.62 29.00
  C 294.32 29.00 293.20 29.96 294.24 32.37
  Q 294.48 32.92 295.07 32.93
  L 300.21 33.03
  Q 300.64 33.04 300.67 33.47"
/>
<path stroke="#808080" vector-effect="non-scaling-stroke" d="
  M 223.3909 35.9528
  A 2.30 2.30 0.0 0 0 220.6691 34.1717
  L 220.4538 34.2167
  A 2.30 2.30 0.0 0 0 218.6727 36.9384
  L 220.3291 44.8672
  A 2.30 2.30 0.0 0 0 223.0509 46.6483
  L 223.2662 46.6033
  A 2.30 2.30 0.0 0 0 225.0473 43.8816
  L 223.3909 35.9528"
/>
<path stroke="#808080" vector-effect="non-scaling-stroke" d="
  M 252.9161 39.1970
  A 2.26 2.26 0.0 0 0 251.8808 36.1732
  L 251.7192 36.0940
  A 2.26 2.26 0.0 0 0 248.6954 37.1293
  L 245.0439 44.5830
  A 2.26 2.26 0.0 0 0 246.0792 47.6068
  L 246.2408 47.6860
  A 2.26 2.26 0.0 0 0 249.2646 46.6507
  L 252.9161 39.1970"
/>
<path stroke="#808080" vector-effect="non-scaling-stroke" d="
  M 317.8957 50.8819
  A 7.48 6.22 98.8 0 0 325.1868 44.4416
  A 7.48 6.22 98.8 0 0 320.1843 36.0981
  A 7.48 6.22 98.8 0 0 312.8932 42.5384
  A 7.48 6.22 98.8 0 0 317.8957 50.8819"
/>
<path stroke="#808080" vector-effect="non-scaling-stroke" d="
  M 344.46 37.16
  Q 344.09 36.03 342.86 36.07
  A 1.42 1.42 0.0 0 0 341.50 37.49
  L 341.50 50.13
  Q 341.50 50.77 342.13 50.76
  L 343.80 50.73
  Q 344.52 50.72 344.50 49.99
  C 344.41 46.21 343.56 41.33 348.19 40.00
  A 0.59 0.59 0.0 0 1 348.93 40.45
  L 349.23 41.96
  A 1.40 1.40 0.0 0 0 351.89 42.22
  Q 353.55 38.25 350.41 36.06
  Q 349.88 35.69 349.26 35.90
  L 344.92 37.39
  Q 344.58 37.51 344.46 37.16"
/>
<path stroke="#808080" vector-effect="non-scaling-stroke" d="
  M 335.12 46.96
  L 331.56 47.01
  A 0.76 0.76 0.0 0 1 330.79 46.24
  L 330.85 37.20
  A 0.79 0.78 -86.3 0 0 330.17 36.42
  L 328.44 36.18
  Q 327.94 36.11 327.86 36.61
  C 327.15 41.14 325.87 54.59 335.60 50.33
  A 0.85 0.84 -43.7 0 1 336.31 50.34
  L 337.51 50.92
  Q 338.09 51.20 338.57 50.76
  C 339.60 49.82 339.22 48.51 339.23 47.33
  Q 339.25 42.24 339.35 37.09
  Q 339.36 36.35 338.62 36.31
  L 336.81 36.22
  Q 336.07 36.19 336.04 36.93
  L 335.63 46.46
  A 0.52 0.52 0.0 0 1 335.12 46.96"
/>
<path stroke="#808080" vector-effect="non-scaling-stroke" d="
  M 201.8807 55.8799
  A 2.26 2.26 0.0 0 0 201.7580 52.6861
  L 194.4354 45.9053
  A 2.26 2.26 0.0 0 0 191.2416 46.0280
  L 191.1193 46.1601
  A 2.26 2.26 0.0 0 0 191.2420 49.3539
  L 198.5646 56.1347
  A 2.26 2.26 0.0 0 0 201.7584 56.0120
  L 201.8807 55.8799"
/>
<path stroke="#808080" vector-effect="non-scaling-stroke" d="
  M 278.5848 55.6910
  A 7.91 2.68 -29.2 0 0 270.3725 57.2106
  A 7.91 2.68 -29.2 0 0 264.7752 63.4090
  A 7.91 2.68 -29.2 0 0 272.9875 61.8894
  A 7.91 2.68 -29.2 0 0 278.5848 55.6910"
/>
<path stroke="#808080" vector-effect="non-scaling-stroke" d="
  M 304.90 79.52
  L 302.43 67.49
  Q 302.32 66.95 301.87 66.62
  C 299.55 64.95 298.46 67.92 298.12 69.58
  C 297.09 74.52 294.36 81.70 294.81 86.55
  A 1.57 1.57 0.0 0 0 297.91 86.75
  L 300.03 77.05
  A 0.35 0.35 0.0 0 1 300.71 77.03
  L 303.48 87.00
  A 1.72 1.72 0.0 0 0 306.76 87.09
  L 310.38 76.55
  A 0.28 0.28 0.0 0 1 310.92 76.58
  L 313.29 87.67
  A 1.46 1.45 2.5 0 0 314.29 88.75
  C 316.13 89.31 317.02 87.84 316.58 86.23
  Q 314.28 77.66 313.12 68.35
  A 2.39 2.38 -86.0 0 0 311.39 66.35
  Q 309.37 65.79 308.94 68.22
  C 308.26 72.06 307.02 75.92 305.66 79.58
  A 0.40 0.40 0.0 0 1 304.90 79.52"
/>
<path stroke="#808080" vector-effect="non-scaling-stroke" d="
  M 324.41 80.43
  Q 322.51 77.39 320.68 74.30
  Q 320.09 73.29 319.41 73.13
  Q 318.39 72.87 317.63 74.05
  A 1.47 1.47 0.0 0 0 317.59 75.57
  L 322.68 84.68
  Q 322.92 85.10 322.70 85.53
  Q 321.18 88.58 320.15 91.85
  Q 319.74 93.16 321.12 93.81
  A 1.50 1.50 0.0 0 0 323.13 93.04
  Q 326.75 84.62 331.08 76.05
  C 331.90 74.43 331.43 73.13 329.47 73.05
  Q 328.94 73.03 328.70 73.50
  L 325.08 80.40
  Q 324.77 81.00 324.41 80.43"
/>
<path stroke="#808080" vector-effect="non-scaling-stroke" d="
  M 284.5223 91.4705
  A 6.06 2.53 16.1 0 0 279.4016 87.3592
  A 6.06 2.53 16.1 0 0 272.8777 88.1095
  A 6.06 2.53 16.1 0 0 277.9984 92.2208
  A 6.06 2.53 16.1 0 0 284.5223 91.4705"
/>
<path stroke="#d2dca9" vector-effect="non-scaling-stroke" d="
  M 300.55 114.53
  L 303.17 123.83
  A 1.78 1.78 0.0 0 0 305.90 124.82
  C 307.81 123.51 309.46 116.41 310.22 114.03
  A 0.30 0.30 0.0 0 1 310.80 114.06
  L 312.92 124.33
  A 2.03 2.02 -9.9 0 0 315.20 125.93
  Q 317.52 125.60 316.79 123.03
  Q 314.38 114.52 313.20 105.75
  Q 313.00 104.27 312.19 103.55
  A 1.95 1.95 0.0 0 0 309.02 104.48
  L 305.69 116.14
  A 0.38 0.38 0.0 0 1 304.95 116.11
  L 302.54 104.59
  A 1.94 1.93 62.1 0 0 299.30 103.59
  C 297.02 105.80 295.02 118.77 294.13 122.65
  A 1.72 1.72 0.0 0 0 295.81 124.75
  L 297.14 124.75
  Q 297.80 124.75 297.94 124.10
  L 299.99 114.54
  A 0.29 0.29 0.0 0 1 300.55 114.53"
/>
<path stroke="#d2dca9" vector-effect="non-scaling-stroke" d="
  M 380.73 104.58
  A 1.54 1.54 0.0 0 0 379.19 103.04
  L 378.55 103.04
  A 1.54 1.54 0.0 0 0 377.01 104.58
  L 377.01 123.42
  A 1.54 1.54 0.0 0 0 378.55 124.96
  L 379.19 124.96
  A 1.54 1.54 0.0 0 0 380.73 123.42
  L 380.73 104.58"
/>
<path stroke="#808080" vector-effect="non-scaling-stroke" d="
  M 275.1012 117.1724
  A 2.22 2.22 0.0 0 0 275.0135 114.0340
  L 267.5734 106.9983
  A 2.22 2.22 0.0 0 0 264.4350 107.0859
  L 264.3388 107.1876
  A 2.22 2.22 0.0 0 0 264.4265 110.3260
  L 271.8666 117.3617
  A 2.22 2.22 0.0 0 0 275.0050 117.2741
  L 275.1012 117.1724"
/>
<path stroke="#d2dca9" vector-effect="non-scaling-stroke" d="
  M 318.96 113.95
  C 315.50 119.75 319.65 128.01 327.04 124.01
  Q 327.45 123.79 327.80 124.09
  Q 329.33 125.38 331.07 124.67
  A 0.83 0.82 -23.0 0 0 331.52 123.57
  Q 329.21 118.40 330.50 112.93
  A 1.12 1.09 31.6 0 0 330.25 111.93
  C 326.93 108.22 321.25 110.08 318.96 113.95"
/>
<path stroke="#d2dca9" vector-effect="non-scaling-stroke" d="
  M 340.51 114.14
  A 0.64 0.64 0.0 0 1 341.45 114.78
  Q 340.84 119.70 342.18 124.52
  A 0.78 0.78 0.0 0 0 343.13 125.06
  L 345.14 124.52
  Q 345.78 124.35 345.67 123.69
  Q 344.94 119.24 344.75 114.73
  C 344.57 110.23 342.08 108.77 338.08 111.04
  Q 336.98 111.66 336.30 110.61
  A 1.78 1.77 -61.0 0 0 333.03 111.55
  L 332.89 123.95
  A 0.78 0.78 0.0 0 0 333.61 124.74
  L 335.75 124.90
  A 0.84 0.84 0.0 0 0 336.66 124.11
  C 336.91 119.93 337.17 115.97 340.51 114.14"
/>
<path stroke="#d2dca9" vector-effect="non-scaling-stroke" d="
  M 355.13 124.91
  C 354.87 127.45 349.43 126.94 347.57 127.05
  A 1.55 1.55 0.0 0 0 346.55 129.66
  C 348.84 132.07 355.04 131.32 357.19 128.68
  C 359.38 125.98 359.42 116.77 359.85 113.05
  A 1.09 1.07 27.0 0 0 359.57 112.21
  Q 357.60 110.07 355.00 109.98
  C 343.01 109.52 343.66 128.32 354.62 124.50
  Q 355.19 124.31 355.13 124.91"
/>
<path stroke="#d2dca9" vector-effect="non-scaling-stroke" d="
  M 372.84 111.15
  C 358.91 103.90 356.89 130.35 370.03 124.26
  C 370.84 123.88 371.66 123.96 372.20 124.59
  A 1.46 1.44 14.6 0 0 374.67 123.16
  Q 372.84 118.23 373.77 113.04
  A 1.78 1.77 -71.3 0 0 372.84 111.15"
/>
<path stroke="#d2dca9" vector-effect="non-scaling-stroke" d="
  M 388.2911 125.0483
  A 7.62 6.41 98.9 0 0 395.8028 118.5117
  A 7.62 6.41 98.9 0 0 390.6489 109.9917
  A 7.62 6.41 98.9 0 0 383.1372 116.5283
  A 7.62 6.41 98.9 0 0 388.2911 125.0483"
/>
<path stroke="#d2dca9" vector-effect="non-scaling-stroke" d="
  M 397.75 111.23
  L 397.75 123.51
  Q 397.75 125.03 399.27 124.96
  C 404.12 124.75 397.95 115.50 404.46 114.27
  Q 405.04 114.17 405.19 114.73
  L 405.49 115.88
  A 1.63 1.63 0.0 0 0 408.69 115.63
  C 409.37 108.79 406.54 109.55 401.57 110.98
  Q 401.18 111.09 400.90 110.80
  Q 399.77 109.66 398.39 110.26
  A 1.06 1.05 78.7 0 0 397.75 111.23"
/>
<path stroke="#d2dca9" vector-effect="non-scaling-stroke" d="
  M 415.05 120.61
  A 0.56 0.56 0.0 0 1 415.03 119.54
  C 435.43 113.19 409.95 102.77 409.99 118.00
  C 410.02 128.26 425.23 125.42 423.39 120.77
  A 1.36 1.36 0.0 0 0 421.54 120.05
  Q 418.40 121.56 415.05 120.61"
/>
<path stroke="#808080" vector-effect="non-scaling-stroke" d="
  M 318.2536 47.0795
  A 3.64 2.84 102.8 0 0 321.8294 44.1592
  A 3.64 2.84 102.8 0 0 319.8664 39.9805
  A 3.64 2.84 102.8 0 0 316.2906 42.9008
  A 3.64 2.84 102.8 0 0 318.2536 47.0795"
/>
<path stroke="#d2dca9" vector-effect="non-scaling-stroke" d="
  M 326.32 120.04
  L 326.41 115.36
  A 1.11 1.11 0.0 0 0 325.33 114.23
  L 325.10 114.22
  A 3.54 3.27 1.1 0 0 321.49 117.42
  L 321.49 117.78
  A 3.54 3.27 1.1 0 0 324.96 121.12
  L 325.19 121.12
  A 1.11 1.11 0.0 0 0 326.32 120.04"
/>
<path stroke="#d2dca9" vector-effect="non-scaling-stroke" d="
  M 350.7818 120.4819
  A 3.82 2.58 124.4 0 0 355.0688 118.7876
  A 3.82 2.58 124.4 0 0 355.0982 114.1781
  A 3.82 2.58 124.4 0 0 350.8112 115.8724
  A 3.82 2.58 124.4 0 0 350.7818 120.4819"
/>
<path stroke="#d2dca9" vector-effect="non-scaling-stroke" d="
  M 369.50 120.14
  L 369.98 115.42
  A 1.13 1.13 0.0 0 0 368.97 114.19
  L 368.82 114.17
  A 3.72 3.36 5.8 0 0 364.78 117.14
  L 364.75 117.42
  A 3.72 3.36 5.8 0 0 368.11 121.14
  L 368.26 121.15
  A 1.13 1.13 0.0 0 0 369.50 120.14"
/>
<path stroke="#d2dca9" vector-effect="non-scaling-stroke" d="
  M 388.8176 120.9278
  A 3.45 2.66 100.9 0 0 392.0820 118.0430
  A 3.45 2.66 100.9 0 0 390.1224 114.1522
  A 3.45 2.66 100.9 0 0 386.8580 117.0370
  A 3.45 2.66 100.9 0 0 388.8176 120.9278"
/>
<path stroke="#d2dca9" vector-effect="non-scaling-stroke" d="
  M 414.12 116.73
  L 418.97 114.69
  A 0.12 0.12 0.0 0 0 419.04 114.54
  L 419.02 114.49
  A 2.59 1.27 -22.8 0 0 416.14 114.32
  L 415.84 114.45
  A 2.59 1.27 -22.8 0 0 413.95 116.62
  L 413.97 116.67
  A 0.12 0.12 0.0 0 0 414.12 116.73"
/>
</g>
<path fill="#ffffff" d="
  M 0.00 0.00
  L 428.00 0.00
  L 428.00 145.00
  L 0.00 145.00
  L 0.00 0.00
  Z
  M 91.25 40.47
  Q 93.25 40.09 95.26 40.28
  A 0.41 0.41 0.0 0 0 95.49 39.51
  Q 85.79 34.45 75.25 37.18
  A 0.20 0.20 0.0 0 1 75.08 36.83
  Q 81.60 32.04 89.70 33.49
  Q 90.21 33.59 90.38 33.09
  L 90.93 31.40
  A 0.69 0.68 10.1 0 1 91.61 30.93
  Q 96.76 31.13 101.32 33.50
  A 0.44 0.44 0.0 0 0 101.92 32.93
  L 100.74 30.41
  Q 100.43 29.74 101.12 29.99
  L 107.83 32.35
  Q 108.30 32.52 108.18 32.04
  Q 106.91 26.95 102.52 23.97
  C 92.91 17.45 81.75 22.21 73.04 28.06
  A 0.40 0.39 64.2 0 1 72.44 27.85
  Q 70.88 23.07 68.44 18.65
  C 65.02 12.46 55.78 6.96 49.24 12.28
  A 0.35 0.35 0.0 0 0 49.46 12.90
  Q 53.51 12.94 54.38 16.75
  Q 54.53 17.36 55.00 17.78
  Q 62.93 24.74 65.52 35.02
  A 0.22 0.22 0.0 0 1 65.13 35.20
  C 54.27 19.45 32.67 20.07 23.33 36.81
  A 0.47 0.47 0.0 0 0 23.93 37.47
  L 30.15 34.79
  A 0.56 0.56 0.0 0 1 30.93 35.39
  L 30.71 36.84
  Q 30.64 37.34 31.13 37.21
  L 41.75 34.37
  Q 42.62 34.14 42.40 35.01
  L 41.90 36.91
  Q 41.69 37.69 42.46 37.43
  Q 50.95 34.59 58.61 39.23
  A 0.21 0.21 0.0 0 1 58.46 39.61
  Q 49.99 38.20 42.31 41.90
  A 0.37 0.37 0.0 0 0 42.40 42.59
  L 44.81 43.08
  Q 45.47 43.21 44.85 43.50
  C 32.80 49.07 30.58 64.52 40.73 73.15
  A 0.50 0.50 0.0 0 0 41.55 72.75
  L 41.19 65.47
  A 0.33 0.33 0.0 0 1 41.79 65.27
  L 44.04 68.68
  Q 44.56 69.47 44.51 68.53
  Q 44.16 62.09 46.73 56.18
  A 0.35 0.34 46.6 0 1 47.37 56.20
  L 48.38 59.02
  Q 48.59 59.62 48.85 59.03
  C 52.20 51.55 55.73 46.58 64.55 45.36
  A 0.22 0.22 0.0 0 1 64.76 45.70
  C 49.26 69.36 42.59 98.65 48.04 126.68
  C 49.47 134.03 15.97 139.40 11.02 139.88
  A 1.64 1.64 0.0 0 0 10.39 142.95
  Q 11.69 143.65 13.26 143.52
  Q 35.35 141.66 54.52 131.18
  C 66.14 124.84 82.07 108.91 95.83 110.83
  Q 96.56 110.93 95.93 111.32
  C 88.95 115.70 84.24 122.95 92.63 129.34
  Q 97.70 133.20 104.04 132.06
  Q 130.93 127.22 150.34 106.27
  C 157.62 98.42 164.87 91.03 171.04 85.30
  C 181.56 75.54 199.40 67.43 213.88 73.37
  Q 214.43 73.59 213.85 73.71
  C 201.89 76.25 193.82 86.49 196.83 98.60
  C 199.59 109.72 212.39 116.08 222.94 117.33
  C 236.59 118.96 250.28 113.52 257.46 101.47
  C 267.89 83.95 261.62 61.59 241.25 55.28
  C 235.08 53.38 223.48 52.94 218.50 58.67
  A 1.16 1.16 0.0 0 0 219.49 60.59
  C 224.09 60.13 229.28 58.85 233.20 58.90
  C 246.74 59.07 258.32 70.88 258.05 84.15
  C 257.53 109.45 228.40 120.92 208.25 106.75
  C 197.82 99.42 198.14 84.89 210.40 80.09
  C 215.48 78.10 221.13 78.82 226.08 81.00
  A 0.86 0.86 0.0 0 0 227.28 80.31
  Q 227.65 77.03 224.96 74.79
  Q 212.63 64.53 196.49 67.34
  C 157.22 74.19 145.53 122.76 104.02 127.49
  C 99.59 128.00 88.64 126.46 93.94 118.88
  Q 95.73 116.33 96.68 115.91
  C 99.24 114.79 105.11 112.39 104.28 109.07
  Q 104.15 108.60 103.71 108.38
  C 88.66 101.16 71.17 114.93 59.48 123.03
  Q 58.97 123.38 58.79 122.79
  Q 58.16 120.78 57.66 117.56
  Q 51.88 80.88 70.21 49.26
  A 0.46 0.46 0.0 0 1 71.02 49.29
  Q 76.04 60.13 70.32 70.57
  Q 69.93 71.30 70.65 70.90
  L 73.73 69.22
  A 0.68 0.68 0.0 0 1 74.68 70.09
  Q 71.76 76.75 66.49 81.74
  Q 65.77 82.42 66.75 82.27
  Q 69.37 81.87 71.69 80.67
  Q 72.57 80.21 72.02 81.04
  Q 69.52 84.79 65.75 87.28
  A 0.53 0.53 0.0 0 0 66.02 88.26
  C 81.72 88.91 92.50 75.21 86.57 59.78
  A 0.24 0.24 0.0 0 1 86.97 59.53
  L 90.06 62.70
  Q 90.97 63.64 90.54 62.41
  Q 87.19 52.85 79.14 46.76
  A 0.33 0.32 -15.6 0 1 79.46 46.20
  Q 88.80 49.83 92.71 59.06
  A 0.30 0.30 0.0 0 0 93.28 58.90
  Q 93.01 57.05 93.68 55.35
  Q 94.09 54.31 94.58 55.31
  L 100.91 68.41
  A 0.40 0.40 0.0 0 0 101.67 68.30
  L 102.25 64.77
  A 0.47 0.47 0.0 0 1 103.17 64.72
  L 105.84 74.27
  Q 105.99 74.81 106.26 74.32
  C 112.88 62.50 108.55 48.24 96.16 42.55
  C 94.75 41.90 92.88 41.50 91.21 40.87
  Q 90.49 40.61 91.25 40.47
  Z
  M 300.67 33.47
  L 301.62 49.81
  Q 301.66 50.50 302.34 50.62
  L 303.36 50.79
  A 1.38 1.37 -86.5 0 0 304.97 49.36
  L 304.10 33.59
  Q 304.06 33.00 304.65 33.00
  L 309.94 33.00
  A 2.35 2.34 13.4 0 0 312.03 31.72
  Q 312.85 30.11 311.49 29.37
  C 309.48 28.28 299.46 29.00 296.62 29.00
  C 294.32 29.00 293.20 29.96 294.24 32.37
  Q 294.48 32.92 295.07 32.93
  L 300.21 33.03
  Q 300.64 33.04 300.67 33.47
  Z
  M 223.3909 35.9528
  A 2.30 2.30 0.0 0 0 220.6691 34.1717
  L 220.4538 34.2167
  A 2.30 2.30 0.0 0 0 218.6727 36.9384
  L 220.3291 44.8672
  A 2.30 2.30 0.0 0 0 223.0509 46.6483
  L 223.2662 46.6033
  A 2.30 2.30 0.0 0 0 225.0473 43.8816
  L 223.3909 35.9528
  Z
  M 252.9161 39.1970
  A 2.26 2.26 0.0 0 0 251.8808 36.1732
  L 251.7192 36.0940
  A 2.26 2.26 0.0 0 0 248.6954 37.1293
  L 245.0439 44.5830
  A 2.26 2.26 0.0 0 0 246.0792 47.6068
  L 246.2408 47.6860
  A 2.26 2.26 0.0 0 0 249.2646 46.6507
  L 252.9161 39.1970
  Z
  M 317.8957 50.8819
  A 7.48 6.22 98.8 0 0 325.1868 44.4416
  A 7.48 6.22 98.8 0 0 320.1843 36.0981
  A 7.48 6.22 98.8 0 0 312.8932 42.5384
  A 7.48 6.22 98.8 0 0 317.8957 50.8819
  Z
  M 344.46 37.16
  Q 344.09 36.03 342.86 36.07
  A 1.42 1.42 0.0 0 0 341.50 37.49
  L 341.50 50.13
  Q 341.50 50.77 342.13 50.76
  L 343.80 50.73
  Q 344.52 50.72 344.50 49.99
  C 344.41 46.21 343.56 41.33 348.19 40.00
  A 0.59 0.59 0.0 0 1 348.93 40.45
  L 349.23 41.96
  A 1.40 1.40 0.0 0 0 351.89 42.22
  Q 353.55 38.25 350.41 36.06
  Q 349.88 35.69 349.26 35.90
  L 344.92 37.39
  Q 344.58 37.51 344.46 37.16
  Z
  M 335.12 46.96
  L 331.56 47.01
  A 0.76 0.76 0.0 0 1 330.79 46.24
  L 330.85 37.20
  A 0.79 0.78 -86.3 0 0 330.17 36.42
  L 328.44 36.18
  Q 327.94 36.11 327.86 36.61
  C 327.15 41.14 325.87 54.59 335.60 50.33
  A 0.85 0.84 -43.7 0 1 336.31 50.34
  L 337.51 50.92
  Q 338.09 51.20 338.57 50.76
  C 339.60 49.82 339.22 48.51 339.23 47.33
  Q 339.25 42.24 339.35 37.09
  Q 339.36 36.35 338.62 36.31
  L 336.81 36.22
  Q 336.07 36.19 336.04 36.93
  L 335.63 46.46
  A 0.52 0.52 0.0 0 1 335.12 46.96
  Z
  M 201.8807 55.8799
  A 2.26 2.26 0.0 0 0 201.7580 52.6861
  L 194.4354 45.9053
  A 2.26 2.26 0.0 0 0 191.2416 46.0280
  L 191.1193 46.1601
  A 2.26 2.26 0.0 0 0 191.2420 49.3539
  L 198.5646 56.1347
  A 2.26 2.26 0.0 0 0 201.7584 56.0120
  L 201.8807 55.8799
  Z
  M 278.5848 55.6910
  A 7.91 2.68 -29.2 0 0 270.3725 57.2106
  A 7.91 2.68 -29.2 0 0 264.7752 63.4090
  A 7.91 2.68 -29.2 0 0 272.9875 61.8894
  A 7.91 2.68 -29.2 0 0 278.5848 55.6910
  Z
  M 304.90 79.52
  L 302.43 67.49
  Q 302.32 66.95 301.87 66.62
  C 299.55 64.95 298.46 67.92 298.12 69.58
  C 297.09 74.52 294.36 81.70 294.81 86.55
  A 1.57 1.57 0.0 0 0 297.91 86.75
  L 300.03 77.05
  A 0.35 0.35 0.0 0 1 300.71 77.03
  L 303.48 87.00
  A 1.72 1.72 0.0 0 0 306.76 87.09
  L 310.38 76.55
  A 0.28 0.28 0.0 0 1 310.92 76.58
  L 313.29 87.67
  A 1.46 1.45 2.5 0 0 314.29 88.75
  C 316.13 89.31 317.02 87.84 316.58 86.23
  Q 314.28 77.66 313.12 68.35
  A 2.39 2.38 -86.0 0 0 311.39 66.35
  Q 309.37 65.79 308.94 68.22
  C 308.26 72.06 307.02 75.92 305.66 79.58
  A 0.40 0.40 0.0 0 1 304.90 79.52
  Z
  M 324.41 80.43
  Q 322.51 77.39 320.68 74.30
  Q 320.09 73.29 319.41 73.13
  Q 318.39 72.87 317.63 74.05
  A 1.47 1.47 0.0 0 0 317.59 75.57
  L 322.68 84.68
  Q 322.92 85.10 322.70 85.53
  Q 321.18 88.58 320.15 91.85
  Q 319.74 93.16 321.12 93.81
  A 1.50 1.50 0.0 0 0 323.13 93.04
  Q 326.75 84.62 331.08 76.05
  C 331.90 74.43 331.43 73.13 329.47 73.05
  Q 328.94 73.03 328.70 73.50
  L 325.08 80.40
  Q 324.77 81.00 324.41 80.43
  Z
  M 284.5223 91.4705
  A 6.06 2.53 16.1 0 0 279.4016 87.3592
  A 6.06 2.53 16.1 0 0 272.8777 88.1095
  A 6.06 2.53 16.1 0 0 277.9984 92.2208
  A 6.06 2.53 16.1 0 0 284.5223 91.4705
  Z
  M 300.55 114.53
  L 303.17 123.83
  A 1.78 1.78 0.0 0 0 305.90 124.82
  C 307.81 123.51 309.46 116.41 310.22 114.03
  A 0.30 0.30 0.0 0 1 310.80 114.06
  L 312.92 124.33
  A 2.03 2.02 -9.9 0 0 315.20 125.93
  Q 317.52 125.60 316.79 123.03
  Q 314.38 114.52 313.20 105.75
  Q 313.00 104.27 312.19 103.55
  A 1.95 1.95 0.0 0 0 309.02 104.48
  L 305.69 116.14
  A 0.38 0.38 0.0 0 1 304.95 116.11
  L 302.54 104.59
  A 1.94 1.93 62.1 0 0 299.30 103.59
  C 297.02 105.80 295.02 118.77 294.13 122.65
  A 1.72 1.72 0.0 0 0 295.81 124.75
  L 297.14 124.75
  Q 297.80 124.75 297.94 124.10
  L 299.99 114.54
  A 0.29 0.29 0.0 0 1 300.55 114.53
  Z
  M 380.73 104.58
  A 1.54 1.54 0.0 0 0 379.19 103.04
  L 378.55 103.04
  A 1.54 1.54 0.0 0 0 377.01 104.58
  L 377.01 123.42
  A 1.54 1.54 0.0 0 0 378.55 124.96
  L 379.19 124.96
  A 1.54 1.54 0.0 0 0 380.73 123.42
  L 380.73 104.58
  Z
  M 275.1012 117.1724
  A 2.22 2.22 0.0 0 0 275.0135 114.0340
  L 267.5734 106.9983
  A 2.22 2.22 0.0 0 0 264.4350 107.0859
  L 264.3388 107.1876
  A 2.22 2.22 0.0 0 0 264.4265 110.3260
  L 271.8666 117.3617
  A 2.22 2.22 0.0 0 0 275.0050 117.2741
  L 275.1012 117.1724
  Z
  M 318.96 113.95
  C 315.50 119.75 319.65 128.01 327.04 124.01
  Q 327.45 123.79 327.80 124.09
  Q 329.33 125.38 331.07 124.67
  A 0.83 0.82 -23.0 0 0 331.52 123.57
  Q 329.21 118.40 330.50 112.93
  A 1.12 1.09 31.6 0 0 330.25 111.93
  C 326.93 108.22 321.25 110.08 318.96 113.95
  Z
  M 340.51 114.14
  A 0.64 0.64 0.0 0 1 341.45 114.78
  Q 340.84 119.70 342.18 124.52
  A 0.78 0.78 0.0 0 0 343.13 125.06
  L 345.14 124.52
  Q 345.78 124.35 345.67 123.69
  Q 344.94 119.24 344.75 114.73
  C 344.57 110.23 342.08 108.77 338.08 111.04
  Q 336.98 111.66 336.30 110.61
  A 1.78 1.77 -61.0 0 0 333.03 111.55
  L 332.89 123.95
  A 0.78 0.78 0.0 0 0 333.61 124.74
  L 335.75 124.90
  A 0.84 0.84 0.0 0 0 336.66 124.11
  C 336.91 119.93 337.17 115.97 340.51 114.14
  Z
  M 355.13 124.91
  C 354.87 127.45 349.43 126.94 347.57 127.05
  A 1.55 1.55 0.0 0 0 346.55 129.66
  C 348.84 132.07 355.04 131.32 357.19 128.68
  C 359.38 125.98 359.42 116.77 359.85 113.05
  A 1.09 1.07 27.0 0 0 359.57 112.21
  Q 357.60 110.07 355.00 109.98
  C 343.01 109.52 343.66 128.32 354.62 124.50
  Q 355.19 124.31 355.13 124.91
  Z
  M 372.84 111.15
  C 358.91 103.90 356.89 130.35 370.03 124.26
  C 370.84 123.88 371.66 123.96 372.20 124.59
  A 1.46 1.44 14.6 0 0 374.67 123.16
  Q 372.84 118.23 373.77 113.04
  A 1.78 1.77 -71.3 0 0 372.84 111.15
  Z
  M 388.2911 125.0483
  A 7.62 6.41 98.9 0 0 395.8028 118.5117
  A 7.62 6.41 98.9 0 0 390.6489 109.9917
  A 7.62 6.41 98.9 0 0 383.1372 116.5283
  A 7.62 6.41 98.9 0 0 388.2911 125.0483
  Z
  M 397.75 111.23
  L 397.75 123.51
  Q 397.75 125.03 399.27 124.96
  C 404.12 124.75 397.95 115.50 404.46 114.27
  Q 405.04 114.17 405.19 114.73
  L 405.49 115.88
  A 1.63 1.63 0.0 0 0 408.69 115.63
  C 409.37 108.79 406.54 109.55 401.57 110.98
  Q 401.18 111.09 400.90 110.80
  Q 399.77 109.66 398.39 110.26
  A 1.06 1.05 78.7 0 0 397.75 111.23
  Z
  M 415.05 120.61
  A 0.56 0.56 0.0 0 1 415.03 119.54
  C 435.43 113.19 409.95 102.77 409.99 118.00
  C 410.02 128.26 425.23 125.42 423.39 120.77
  A 1.36 1.36 0.0 0 0 421.54 120.05
  Q 418.40 121.56 415.05 120.61
  Z"
/>
<path fill="#000000" d="
  M 91.21 40.87
  C 92.88 41.50 94.75 41.90 96.16 42.55
  C 108.55 48.24 112.88 62.50 106.26 74.32
  Q 105.99 74.81 105.84 74.27
  L 103.17 64.72
  A 0.47 0.47 0.0 0 0 102.25 64.77
  L 101.67 68.30
  A 0.40 0.40 0.0 0 1 100.91 68.41
  L 94.58 55.31
  Q 94.09 54.31 93.68 55.35
  Q 93.01 57.05 93.28 58.90
  A 0.30 0.30 0.0 0 1 92.71 59.06
  Q 88.80 49.83 79.46 46.20
  A 0.33 0.32 -15.6 0 0 79.14 46.76
  Q 87.19 52.85 90.54 62.41
  Q 90.97 63.64 90.06 62.70
  L 86.97 59.53
  A 0.24 0.24 0.0 0 0 86.57 59.78
  C 92.50 75.21 81.72 88.91 66.02 88.26
  A 0.53 0.53 0.0 0 1 65.75 87.28
  Q 69.52 84.79 72.02 81.04
  Q 72.57 80.21 71.69 80.67
  Q 69.37 81.87 66.75 82.27
  Q 65.77 82.42 66.49 81.74
  Q 71.76 76.75 74.68 70.09
  A 0.68 0.68 0.0 0 0 73.73 69.22
  L 70.65 70.90
  Q 69.93 71.30 70.32 70.57
  Q 76.04 60.13 71.02 49.29
  A 0.46 0.46 0.0 0 0 70.21 49.26
  Q 51.88 80.88 57.66 117.56
  Q 58.16 120.78 58.79 122.79
  Q 58.97 123.38 59.48 123.03
  C 71.17 114.93 88.66 101.16 103.71 108.38
  Q 104.15 108.60 104.28 109.07
  C 105.11 112.39 99.24 114.79 96.68 115.91
  Q 95.73 116.33 93.94 118.88
  C 88.64 126.46 99.59 128.00 104.02 127.49
  C 145.53 122.76 157.22 74.19 196.49 67.34
  Q 212.63 64.53 224.96 74.79
  Q 227.65 77.03 227.28 80.31
  A 0.86 0.86 0.0 0 1 226.08 81.00
  C 221.13 78.82 215.48 78.10 210.40 80.09
  C 198.14 84.89 197.82 99.42 208.25 106.75
  C 228.40 120.92 257.53 109.45 258.05 84.15
  C 258.32 70.88 246.74 59.07 233.20 58.90
  C 229.28 58.85 224.09 60.13 219.49 60.59
  A 1.16 1.16 0.0 0 1 218.50 58.67
  C 223.48 52.94 235.08 53.38 241.25 55.28
  C 261.62 61.59 267.89 83.95 257.46 101.47
  C 250.28 113.52 236.59 118.96 222.94 117.33
  C 212.39 116.08 199.59 109.72 196.83 98.60
  C 193.82 86.49 201.89 76.25 213.85 73.71
  Q 214.43 73.59 213.88 73.37
  C 199.40 67.43 181.56 75.54 171.04 85.30
  C 164.87 91.03 157.62 98.42 150.34 106.27
  Q 130.93 127.22 104.04 132.06
  Q 97.70 133.20 92.63 129.34
  C 84.24 122.95 88.95 115.70 95.93 111.32
  Q 96.56 110.93 95.83 110.83
  C 82.07 108.91 66.14 124.84 54.52 131.18
  Q 35.35 141.66 13.26 143.52
  Q 11.69 143.65 10.39 142.95
  A 1.64 1.64 0.0 0 1 11.02 139.88
  C 15.97 139.40 49.47 134.03 48.04 126.68
  C 42.59 98.65 49.26 69.36 64.76 45.70
  A 0.22 0.22 0.0 0 0 64.55 45.36
  C 55.73 46.58 52.20 51.55 48.85 59.03
  Q 48.59 59.62 48.38 59.02
  L 47.37 56.20
  A 0.35 0.34 46.6 0 0 46.73 56.18
  Q 44.16 62.09 44.51 68.53
  Q 44.56 69.47 44.04 68.68
  L 41.79 65.27
  A 0.33 0.33 0.0 0 0 41.19 65.47
  L 41.55 72.75
  A 0.50 0.50 0.0 0 1 40.73 73.15
  C 30.58 64.52 32.80 49.07 44.85 43.50
  Q 45.47 43.21 44.81 43.08
  L 42.40 42.59
  A 0.37 0.37 0.0 0 1 42.31 41.90
  Q 49.99 38.20 58.46 39.61
  A 0.21 0.21 0.0 0 0 58.61 39.23
  Q 50.95 34.59 42.46 37.43
  Q 41.69 37.69 41.90 36.91
  L 42.40 35.01
  Q 42.62 34.14 41.75 34.37
  L 31.13 37.21
  Q 30.64 37.34 30.71 36.84
  L 30.93 35.39
  A 0.56 0.56 0.0 0 0 30.15 34.79
  L 23.93 37.47
  A 0.47 0.47 0.0 0 1 23.33 36.81
  C 32.67 20.07 54.27 19.45 65.13 35.20
  A 0.22 0.22 0.0 0 0 65.52 35.02
  Q 62.93 24.74 55.00 17.78
  Q 54.53 17.36 54.38 16.75
  Q 53.51 12.94 49.46 12.90
  A 0.35 0.35 0.0 0 1 49.24 12.28
  C 55.78 6.96 65.02 12.46 68.44 18.65
  Q 70.88 23.07 72.44 27.85
  A 0.40 0.39 64.2 0 0 73.04 28.06
  C 81.75 22.21 92.91 17.45 102.52 23.97
  Q 106.91 26.95 108.18 32.04
  Q 108.30 32.52 107.83 32.35
  L 101.12 29.99
  Q 100.43 29.74 100.74 30.41
  L 101.92 32.93
  A 0.44 0.44 0.0 0 1 101.32 33.50
  Q 96.76 31.13 91.61 30.93
  A 0.69 0.68 10.1 0 0 90.93 31.40
  L 90.38 33.09
  Q 90.21 33.59 89.70 33.49
  Q 81.60 32.04 75.08 36.83
  A 0.20 0.20 0.0 0 0 75.25 37.18
  Q 85.79 34.45 95.49 39.51
  A 0.41 0.41 0.0 0 1 95.26 40.28
  Q 93.25 40.09 91.25 40.47
  Q 90.49 40.61 91.21 40.87
  Z"
/>
<path fill="#000000" d="
  M 300.21 33.03
  L 295.07 32.93
  Q 294.48 32.92 294.24 32.37
  C 293.20 29.96 294.32 29.00 296.62 29.00
  C 299.46 29.00 309.48 28.28 311.49 29.37
  Q 312.85 30.11 312.03 31.72
  A 2.35 2.34 13.4 0 1 309.94 33.00
  L 304.65 33.00
  Q 304.06 33.00 304.10 33.59
  L 304.97 49.36
  A 1.38 1.37 -86.5 0 1 303.36 50.79
  L 302.34 50.62
  Q 301.66 50.50 301.62 49.81
  L 300.67 33.47
  Q 300.64 33.04 300.21 33.03
  Z"
/>
<rect fill="#000000" x="-2.41" y="-6.35" transform="translate(221.86,40.41) rotate(-11.8)" width="4.82" height="12.70" rx="2.30"/>
<rect fill="#000000" x="-2.35" y="-6.41" transform="translate(248.98,41.89) rotate(26.1)" width="4.70" height="12.82" rx="2.26"/>
<path fill="#000000" d="
  M 317.8957 50.8819
  A 7.48 6.22 98.8 0 1 312.8932 42.5384
  A 7.48 6.22 98.8 0 1 320.1843 36.0981
  A 7.48 6.22 98.8 0 1 325.1868 44.4416
  A 7.48 6.22 98.8 0 1 317.8957 50.8819
  Z
  M 318.2536 47.0795
  A 3.64 2.84 102.8 0 0 321.8294 44.1592
  A 3.64 2.84 102.8 0 0 319.8664 39.9805
  A 3.64 2.84 102.8 0 0 316.2906 42.9008
  A 3.64 2.84 102.8 0 0 318.2536 47.0795
  Z"
/>
<path fill="#000000" d="
  M 344.92 37.39
  L 349.26 35.90
  Q 349.88 35.69 350.41 36.06
  Q 353.55 38.25 351.89 42.22
  A 1.40 1.40 0.0 0 1 349.23 41.96
  L 348.93 40.45
  A 0.59 0.59 0.0 0 0 348.19 40.00
  C 343.56 41.33 344.41 46.21 344.50 49.99
  Q 344.52 50.72 343.80 50.73
  L 342.13 50.76
  Q 341.50 50.77 341.50 50.13
  L 341.50 37.49
  A 1.42 1.42 0.0 0 1 342.86 36.07
  Q 344.09 36.03 344.46 37.16
  Q 344.58 37.51 344.92 37.39
  Z"
/>
<path fill="#000000" d="
  M 335.63 46.46
  L 336.04 36.93
  Q 336.07 36.19 336.81 36.22
  L 338.62 36.31
  Q 339.36 36.35 339.35 37.09
  Q 339.25 42.24 339.23 47.33
  C 339.22 48.51 339.60 49.82 338.57 50.76
  Q 338.09 51.20 337.51 50.92
  L 336.31 50.34
  A 0.85 0.84 -43.7 0 0 335.60 50.33
  C 325.87 54.59 327.15 41.14 327.86 36.61
  Q 327.94 36.11 328.44 36.18
  L 330.17 36.42
  A 0.79 0.78 -86.3 0 1 330.85 37.20
  L 330.79 46.24
  A 0.76 0.76 0.0 0 0 331.56 47.01
  L 335.12 46.96
  A 0.52 0.52 0.0 0 0 335.63 46.46
  Z"
/>
<ellipse fill="#ffffff" cx="0.00" cy="0.00" transform="translate(319.06,43.53) rotate(102.8)" rx="3.64" ry="2.84"/>
<rect fill="#000000" x="-7.25" y="-2.35" transform="translate(196.50,51.02) rotate(42.8)" width="14.50" height="4.70" rx="2.26"/>
<ellipse fill="#000000" cx="0.00" cy="0.00" transform="translate(271.68,59.55) rotate(-29.2)" rx="7.91" ry="2.68"/>
<path fill="#000000" d="
  M 304.90 79.52
  A 0.40 0.40 0.0 0 0 305.66 79.58
  C 307.02 75.92 308.26 72.06 308.94 68.22
  Q 309.37 65.79 311.39 66.35
  A 2.39 2.38 -86.0 0 1 313.12 68.35
  Q 314.28 77.66 316.58 86.23
  C 317.02 87.84 316.13 89.31 314.29 88.75
  A 1.46 1.45 2.5 0 1 313.29 87.67
  L 310.92 76.58
  A 0.28 0.28 0.0 0 0 310.38 76.55
  L 306.76 87.09
  A 1.72 1.72 0.0 0 1 303.48 87.00
  L 300.71 77.03
  A 0.35 0.35 0.0 0 0 300.03 77.05
  L 297.91 86.75
  A 1.57 1.57 0.0 0 1 294.81 86.55
  C 294.36 81.70 297.09 74.52 298.12 69.58
  C 298.46 67.92 299.55 64.95 301.87 66.62
  Q 302.32 66.95 302.43 67.49
  L 304.90 79.52
  Z"
/>
<path fill="#000000" d="
  M 325.08 80.40
  L 328.70 73.50
  Q 328.94 73.03 329.47 73.05
  C 331.43 73.13 331.90 74.43 331.08 76.05
  Q 326.75 84.62 323.13 93.04
  A 1.50 1.50 0.0 0 1 321.12 93.81
  Q 319.74 93.16 320.15 91.85
  Q 321.18 88.58 322.70 85.53
  Q 322.92 85.10 322.68 84.68
  L 317.59 75.57
  A 1.47 1.47 0.0 0 1 317.63 74.05
  Q 318.39 72.87 319.41 73.13
  Q 320.09 73.29 320.68 74.30
  Q 322.51 77.39 324.41 80.43
  Q 324.77 81.00 325.08 80.40
  Z"
/>
<ellipse fill="#000000" cx="0.00" cy="0.00" transform="translate(278.70,89.79) rotate(16.1)" rx="6.06" ry="2.53"/>
<path fill="#a4b953" d="
  M 300.55 114.53
  A 0.29 0.29 0.0 0 0 299.99 114.54
  L 297.94 124.10
  Q 297.80 124.75 297.14 124.75
  L 295.81 124.75
  A 1.72 1.72 0.0 0 1 294.13 122.65
  C 295.02 118.77 297.02 105.80 299.30 103.59
  A 1.94 1.93 62.1 0 1 302.54 104.59
  L 304.95 116.11
  A 0.38 0.38 0.0 0 0 305.69 116.14
  L 309.02 104.48
  A 1.95 1.95 0.0 0 1 312.19 103.55
  Q 313.00 104.27 313.20 105.75
  Q 314.38 114.52 316.79 123.03
  Q 317.52 125.60 315.20 125.93
  A 2.03 2.02 -9.9 0 1 312.92 124.33
  L 310.80 114.06
  A 0.30 0.30 0.0 0 0 310.22 114.03
  C 309.46 116.41 307.81 123.51 305.90 124.82
  A 1.78 1.78 0.0 0 1 303.17 123.83
  L 300.55 114.53
  Z"
/>
<rect fill="#a4b953" x="377.01" y="103.04" width="3.72" height="21.92" rx="1.54"/>
<rect fill="#000000" x="-7.34" y="-2.29" transform="translate(269.72,112.18) rotate(43.4)" width="14.68" height="4.58" rx="2.22"/>
<path fill="#a4b953" d="
  M 318.96 113.95
  C 321.25 110.08 326.93 108.22 330.25 111.93
  A 1.12 1.09 31.6 0 1 330.50 112.93
  Q 329.21 118.40 331.52 123.57
  A 0.83 0.82 -23.0 0 1 331.07 124.67
  Q 329.33 125.38 327.80 124.09
  Q 327.45 123.79 327.04 124.01
  C 319.65 128.01 315.50 119.75 318.96 113.95
  Z
  M 326.32 120.04
  L 326.41 115.36
  A 1.11 1.11 0.0 0 0 325.33 114.23
  L 325.10 114.22
  A 3.54 3.27 1.1 0 0 321.49 117.42
  L 321.49 117.78
  A 3.54 3.27 1.1 0 0 324.96 121.12
  L 325.19 121.12
  A 1.11 1.11 0.0 0 0 326.32 120.04
  Z"
/>
<path fill="#a4b953" d="
  M 340.51 114.14
  C 337.17 115.97 336.91 119.93 336.66 124.11
  A 0.84 0.84 0.0 0 1 335.75 124.90
  L 333.61 124.74
  A 0.78 0.78 0.0 0 1 332.89 123.95
  L 333.03 111.55
  A 1.78 1.77 -61.0 0 1 336.30 110.61
  Q 336.98 111.66 338.08 111.04
  C 342.08 108.77 344.57 110.23 344.75 114.73
  Q 344.94 119.24 345.67 123.69
  Q 345.78 124.35 345.14 124.52
  L 343.13 125.06
  A 0.78 0.78 0.0 0 1 342.18 124.52
  Q 340.84 119.70 341.45 114.78
  A 0.64 0.64 0.0 0 0 340.51 114.14
  Z"
/>
<path fill="#a4b953" d="
  M 354.62 124.50
  C 343.66 128.32 343.01 109.52 355.00 109.98
  Q 357.60 110.07 359.57 112.21
  A 1.09 1.07 27.0 0 1 359.85 113.05
  C 359.42 116.77 359.38 125.98 357.19 128.68
  C 355.04 131.32 348.84 132.07 346.55 129.66
  A 1.55 1.55 0.0 0 1 347.57 127.05
  C 349.43 126.94 354.87 127.45 355.13 124.91
  Q 355.19 124.31 354.62 124.50
  Z
  M 350.7818 120.4819
  A 3.82 2.58 124.4 0 0 355.0688 118.7876
  A 3.82 2.58 124.4 0 0 355.0982 114.1781
  A 3.82 2.58 124.4 0 0 350.8112 115.8724
  A 3.82 2.58 124.4 0 0 350.7818 120.4819
  Z"
/>
<path fill="#a4b953" d="
  M 370.03 124.26
  C 356.89 130.35 358.91 103.90 372.84 111.15
  A 1.78 1.77 -71.3 0 1 373.77 113.04
  Q 372.84 118.23 374.67 123.16
  A 1.46 1.44 14.6 0 1 372.20 124.59
  C 371.66 123.96 370.84 123.88 370.03 124.26
  Z
  M 369.50 120.14
  L 369.98 115.42
  A 1.13 1.13 0.0 0 0 368.97 114.19
  L 368.82 114.17
  A 3.72 3.36 5.8 0 0 364.78 117.14
  L 364.75 117.42
  A 3.72 3.36 5.8 0 0 368.11 121.14
  L 368.26 121.15
  A 1.13 1.13 0.0 0 0 369.50 120.14
  Z"
/>
<path fill="#a4b953" d="
  M 388.2911 125.0483
  A 7.62 6.41 98.9 0 1 383.1372 116.5283
  A 7.62 6.41 98.9 0 1 390.6489 109.9917
  A 7.62 6.41 98.9 0 1 395.8028 118.5117
  A 7.62 6.41 98.9 0 1 388.2911 125.0483
  Z
  M 388.8176 120.9278
  A 3.45 2.66 100.9 0 0 392.0820 118.0430
  A 3.45 2.66 100.9 0 0 390.1224 114.1522
  A 3.45 2.66 100.9 0 0 386.8580 117.0370
  A 3.45 2.66 100.9 0 0 388.8176 120.9278
  Z"
/>
<path fill="#a4b953" d="
  M 398.39 110.26
  Q 399.77 109.66 400.90 110.80
  Q 401.18 111.09 401.57 110.98
  C 406.54 109.55 409.37 108.79 408.69 115.63
  A 1.63 1.63 0.0 0 1 405.49 115.88
  L 405.19 114.73
  Q 405.04 114.17 404.46 114.27
  C 397.95 115.50 404.12 124.75 399.27 124.96
  Q 397.75 125.03 397.75 123.51
  L 397.75 111.23
  A 1.06 1.05 78.7 0 1 398.39 110.26
  Z"
/>
<path fill="#a4b953" d="
  M 415.05 120.61
  Q 418.40 121.56 421.54 120.05
  A 1.36 1.36 0.0 0 1 423.39 120.77
  C 425.23 125.42 410.02 128.26 409.99 118.00
  C 409.95 102.77 435.43 113.19 415.03 119.54
  A 0.56 0.56 0.0 0 0 415.05 120.61
  Z
  M 414.12 116.73
  L 418.97 114.69
  A 0.12 0.12 0.0 0 0 419.04 114.54
  L 419.02 114.49
  A 2.59 1.27 -22.8 0 0 416.14 114.32
  L 415.84 114.45
  A 2.59 1.27 -22.8 0 0 413.95 116.62
  L 413.97 116.67
  A 0.12 0.12 0.0 0 0 414.12 116.73
  Z"
/>
<path fill="#ffffff" d="
  M 326.32 120.04
  A 1.11 1.11 0.0 0 1 325.19 121.12
  L 324.96 121.12
  A 3.54 3.27 1.1 0 1 321.49 117.78
  L 321.49 117.42
  A 3.54 3.27 1.1 0 1 325.10 114.22
  L 325.33 114.23
  A 1.11 1.11 0.0 0 1 326.41 115.36
  L 326.32 120.04
  Z"
/>
<ellipse fill="#ffffff" cx="0.00" cy="0.00" transform="translate(352.94,117.33) rotate(124.4)" rx="3.82" ry="2.58"/>
<path fill="#ffffff" d="
  M 369.50 120.14
  A 1.13 1.13 0.0 0 1 368.26 121.15
  L 368.11 121.14
  A 3.72 3.36 5.8 0 1 364.75 117.42
  L 364.78 117.14
  A 3.72 3.36 5.8 0 1 368.82 114.17
  L 368.97 114.19
  A 1.13 1.13 0.0 0 1 369.98 115.42
  L 369.50 120.14
  Z"
/>
<ellipse fill="#ffffff" cx="0.00" cy="0.00" transform="translate(389.47,117.54) rotate(100.9)" rx="3.45" ry="2.66"/>
<path fill="#ffffff" d="
  M 414.12 116.73
  A 0.12 0.12 0.0 0 1 413.97 116.67
  L 413.95 116.62
  A 2.59 1.27 -22.8 0 1 415.84 114.45
  L 416.14 114.32
  A 2.59 1.27 -22.8 0 1 419.02 114.49
  L 419.04 114.54
  A 0.12 0.12 0.0 0 1 418.97 114.69
  L 414.12 116.73
  Z"
/>
</svg>
