<?xml version="1.0" encoding="UTF-8" standalone="no"?>
<!DOCTYPE svg PUBLIC "-//W3C//DTD SVG 1.1//EN" "http://www.w3.org/Graphics/SVG/1.1/DTD/svg11.dtd">
<svg xmlns="http://www.w3.org/2000/svg" version="1.1" viewBox="0.00 0.00 327.00 146.00">
<g stroke-width="2.00" fill="none" stroke-linecap="butt">
<path stroke="#e7c9ab" vector-effect="non-scaling-stroke" d="
  M 78.76 36.93
  L 78.69 78.10
  Q 78.69 78.48 78.31 78.51
  Q 78.15 78.53 77.97 78.52"
/>
<path stroke="#ffe48f" vector-effect="non-scaling-stroke" d="
  M 77.97 78.52
  C 61.51 79.99 49.02 92.87 48.72 109.14
  Q 48.70 110.26 49.82 110.26
  L 110.16 110.24
  Q 111.36 110.24 111.32 109.04
  C 110.66 92.08 98.09 79.73 81.14 78.44"
/>
<path stroke="#e7c9ab" vector-effect="non-scaling-stroke" d="
  M 81.14 78.44
  L 81.21 36.82"
/>
<path stroke="#d1dea3" vector-effect="non-scaling-stroke" d="
  M 81.21 36.82
  L 96.30 51.93
  Q 96.69 52.32 96.80 51.78
  C 98.30 44.66 92.70 38.95 86.87 35.79
  Q 85.87 35.25 87.00 35.25
  L 112.53 35.25
  Q 113.25 35.25 112.90 34.62
  C 108.24 26.26 96.16 25.67 88.19 28.35
  C 87.48 28.58 86.59 29.21 85.76 29.46
  Q 84.93 29.71 85.54 29.10
  L 103.53 11.06
  A 0.56 0.56 0.0 0 0 103.24 10.11
  C 92.35 8.08 82.70 18.18 80.05 27.43
  Q 79.92 27.89 79.77 27.44
  C 76.42 17.53 68.25 8.25 56.62 10.17
  A 0.43 0.43 0.0 0 0 56.39 10.89
  L 74.43 29.09
  A 0.19 0.19 0.0 0 1 74.21 29.39
  C 65.98 25.53 52.30 25.49 47.09 34.58
  Q 46.70 35.27 47.50 35.27
  L 73.26 35.21
  Q 73.74 35.21 73.34 35.48
  C 67.16 39.73 62.76 43.11 62.90 51.49
  A 0.64 0.64 0.0 0 0 64.00 51.93
  L 78.76 36.93"
/>
<path stroke="#b8a74e" vector-effect="non-scaling-stroke" d="
  M 81.21 36.82
  Q 79.93 35.47 78.76 36.93"
/>
<path stroke="#e7ae3b" vector-effect="non-scaling-stroke" d="
  M 81.14 78.44
  Q 81.31 93.44 81.19 108.29
  Q 81.19 109.11 80.81 109.46
  Q 80.24 109.98 79.34 109.57
  Q 78.88 109.37 78.87 108.87
  Q 78.48 94.81 79.15 80.76
  Q 79.24 78.93 77.97 78.52"
/>
<path stroke="#808080" vector-effect="non-scaling-stroke" d="
  M 178.28 21.87
  C 181.29 22.17 188.47 23.67 187.05 19.27
  A 1.78 1.78 0.0 0 0 185.40 18.04
  L 166.87 17.50
  Q 166.44 17.49 166.11 17.77
  Q 164.74 18.93 165.45 20.84
  A 0.89 0.89 0.0 0 0 166.19 21.42
  L 172.89 22.17
  Q 173.32 22.22 173.34 22.65
  L 174.36 39.31
  A 1.87 1.87 0.0 0 0 177.51 40.56
  Q 178.98 39.19 178.55 36.49
  Q 178.08 33.55 177.79 22.32
  Q 177.78 21.82 178.28 21.87"
/>
<path stroke="#808080" vector-effect="non-scaling-stroke" d="
  M 209.63 37.06
  Q 208.77 32.30 209.60 27.51
  C 210.04 24.97 207.71 23.43 205.83 25.02
  A 1.23 1.18 -16.5 0 0 205.42 25.74
  Q 204.26 32.39 205.82 38.96
  Q 205.96 39.54 206.43 39.92
  Q 210.12 42.91 214.70 41.15
  Q 215.14 40.98 215.45 41.33
  Q 216.98 43.07 218.84 41.56
  Q 219.25 41.22 219.25 40.68
  Q 219.18 33.82 219.49 26.97
  C 219.58 24.92 218.82 24.46 216.88 24.50
  A 1.72 1.71 -89.8 0 0 215.20 26.18
  L 214.92 36.75
  Q 214.90 37.39 214.26 37.42
  L 210.38 37.65
  Q 209.75 37.69 209.63 37.06"
/>
<path stroke="#808080" vector-effect="non-scaling-stroke" d="
  M 231.18 28.97
  L 231.52 31.05
  Q 231.60 31.52 232.04 31.72
  C 237.23 34.09 237.42 19.60 226.73 26.33
  Q 226.22 26.65 225.96 26.10
  Q 225.14 24.33 223.09 25.20
  Q 222.08 25.63 222.08 26.73
  L 222.07 40.78
  A 0.95 0.95 0.0 0 0 222.68 41.68
  Q 224.67 42.43 225.65 41.22
  C 228.49 37.70 222.68 30.40 230.69 28.64
  Q 231.11 28.55 231.18 28.97"
/>
<path stroke="#808080" vector-effect="non-scaling-stroke" d="
  M 193.7761 41.7525
  A 8.58 7.51 102.0 0 0 202.9059 34.9214
  A 8.58 7.51 102.0 0 0 197.3439 24.9675
  A 8.58 7.51 102.0 0 0 188.2141 31.7986
  A 8.58 7.51 102.0 0 0 193.7761 41.7525"
/>
<path stroke="#e7c9ab" vector-effect="non-scaling-stroke" d="
  M 33.87 67.21
  L 33.91 108.74
  A 1.27 1.26 89.8 0 0 35.17 110.00
  L 35.79 110.00
  Q 36.50 110.00 36.50 109.29
  Q 36.51 88.63 36.50 68.00
  Q 36.50 67.67 36.93 67.51"
/>
<path stroke="#d1dea3" vector-effect="non-scaling-stroke" d="
  M 36.93 67.51
  L 51.55 82.15
  Q 51.90 82.50 52.06 82.03
  C 54.34 75.38 47.17 68.06 41.84 66.08
  Q 39.51 65.21 41.99 65.22
  L 68.04 65.32
  Q 68.78 65.33 68.40 64.70
  C 62.98 55.78 49.41 55.51 41.08 59.71
  A 0.24 0.24 0.0 0 1 40.80 59.32
  L 58.81 41.31
  A 0.64 0.64 0.0 0 0 58.48 40.23
  C 47.49 38.11 37.87 48.66 35.48 58.26
  Q 35.23 59.30 35.05 58.25
  C 33.32 47.92 22.83 38.66 12.18 40.24
  A 0.54 0.54 0.0 0 0 11.88 41.15
  L 30.53 59.94
  A 0.11 0.11 0.0 0 1 30.40 60.12
  C 22.74 56.11 6.80 55.03 2.51 64.85
  Q 2.33 65.26 2.78 65.26
  L 29.23 65.22
  Q 29.67 65.22 29.29 65.44
  C 23.24 68.99 16.60 74.73 18.66 82.05
  Q 18.82 82.60 19.21 82.19
  L 33.87 67.21"
/>
<path stroke="#b8a74e" vector-effect="non-scaling-stroke" d="
  M 36.93 67.51
  Q 36.40 67.13 36.05 66.46
  A 0.86 0.84 -15.1 0 0 35.25 66.01
  Q 34.26 66.08 33.87 67.21"
/>
<path stroke="#e7c9ab" vector-effect="non-scaling-stroke" d="
  M 123.48 67.13
  L 123.49 109.28
  Q 123.49 110.00 124.21 110.00
  L 125.05 110.00
  A 1.00 1.00 0.0 0 0 126.05 109.00
  L 126.09 67.23"
/>
<path stroke="#d1dea3" vector-effect="non-scaling-stroke" d="
  M 126.09 67.23
  L 140.79 82.20
  Q 141.23 82.65 141.39 82.04
  C 143.34 74.83 136.58 68.36 130.65 65.69
  A 0.23 0.23 0.0 0 1 130.74 65.25
  L 156.76 65.25
  Q 158.33 65.25 157.44 63.96
  C 151.67 55.62 141.52 56.36 132.78 57.98
  A 0.54 0.54 0.0 0 1 132.30 57.07
  L 148.07 41.30
  A 0.65 0.65 0.0 0 0 147.70 40.20
  C 136.78 38.67 127.77 47.80 124.74 57.53
  Q 124.59 58.00 124.46 57.52
  C 121.82 48.19 112.20 38.14 101.51 40.23
  A 0.63 0.63 0.0 0 0 101.19 41.30
  L 119.42 59.57
  Q 119.57 59.72 119.44 59.88
  Q 119.34 60.01 119.19 60.02
  Q 119.05 60.03 118.85 59.87
  C 112.48 55.06 94.84 56.34 91.86 64.71
  Q 91.66 65.26 92.25 65.26
  L 118.76 65.22
  Q 119.30 65.22 118.82 65.47
  C 113.02 68.50 105.91 74.55 107.91 82.03
  Q 108.05 82.56 108.45 82.17
  L 123.48 67.13"
/>
<path stroke="#b8a74e" vector-effect="non-scaling-stroke" d="
  M 126.09 67.23
  Q 125.81 66.55 124.87 66.14
  Q 124.35 65.91 124.02 66.38
  L 123.48 67.13"
/>
<path stroke="#808080" vector-effect="non-scaling-stroke" d="
  M 173.38 73.69
  C 174.32 76.50 175.47 85.82 179.25 85.63
  A 1.88 1.88 0.0 0 0 180.91 84.39
  L 185.12 72.60
  A 0.19 0.19 0.0 0 1 185.48 72.63
  Q 186.45 78.05 187.80 83.48
  C 188.78 87.43 193.29 86.53 192.53 83.50
  Q 189.19 70.20 188.45 64.32
  C 188.11 61.60 184.11 59.62 183.32 62.81
  Q 181.60 69.73 179.25 76.28
  A 0.32 0.32 0.0 0 1 178.63 76.24
  Q 177.18 69.71 175.62 63.28
  Q 175.05 60.97 172.64 61.57
  A 2.44 2.42 -0.1 0 0 170.85 63.35
  Q 168.63 72.39 166.21 81.99
  Q 165.98 82.91 166.37 84.70
  A 1.17 1.13 -81.7 0 0 166.90 85.44
  C 169.08 86.76 170.30 85.33 170.70 83.24
  Q 171.64 78.43 172.97 73.70
  Q 173.16 73.02 173.38 73.69"
/>
<path stroke="#808080" vector-effect="non-scaling-stroke" d="
  M 202.01 78.05
  C 201.07 75.95 197.73 68.16 194.74 69.11
  A 1.87 1.86 66.7 0 0 193.68 71.79
  L 199.76 82.86
  Q 200.01 83.30 199.80 83.76
  C 198.89 85.83 194.79 92.80 198.43 93.90
  A 1.80 1.80 0.0 0 0 200.60 92.88
  Q 205.10 82.27 210.11 72.31
  C 210.85 70.84 210.62 69.57 209.03 68.94
  Q 207.29 68.25 206.47 69.93
  L 202.48 78.06
  A 0.26 0.26 0.0 0 1 202.01 78.05"
/>
<path stroke="#d1dea3" vector-effect="non-scaling-stroke" d="
  M 268.98 106.19
  A 2.18 2.18 0.0 0 0 266.80 104.01
  L 266.68 104.01
  A 2.18 2.18 0.0 0 0 264.50 106.19
  L 264.50 127.33
  A 2.18 2.18 0.0 0 0 266.68 129.51
  L 266.80 129.51
  A 2.18 2.18 0.0 0 0 268.98 127.33
  L 268.98 106.19"
/>
<path stroke="#d1dea3" vector-effect="non-scaling-stroke" d="
  M 172.89 117.74
  A 0.35 0.35 0.0 0 1 173.57 117.74
  C 174.04 119.85 175.90 132.48 180.19 128.98
  C 182.03 127.47 183.95 119.80 185.02 117.14
  Q 185.32 116.39 185.50 117.18
  L 187.89 128.19
  A 2.48 2.47 78.6 0 0 190.76 130.10
  Q 193.24 129.65 192.47 127.05
  Q 189.74 117.93 188.50 108.51
  C 188.12 105.54 184.10 103.54 183.29 106.80
  Q 181.55 113.71 179.25 120.27
  A 0.31 0.31 0.0 0 1 178.65 120.24
  Q 177.19 113.61 175.49 107.11
  Q 174.74 104.22 171.85 105.95
  A 2.42 2.42 0.0 0 0 170.74 107.48
  Q 168.67 116.41 166.27 125.75
  Q 165.35 129.33 168.20 130.02
  A 1.80 1.80 0.0 0 0 170.37 128.68
  L 172.89 117.74"
/>
<path stroke="#d1dea3" vector-effect="non-scaling-stroke" d="
  M 227.04 127.97
  C 226.62 123.77 227.80 106.16 217.26 114.12
  A 0.47 0.47 0.0 0 1 216.51 113.76
  Q 216.47 111.79 214.34 112.02
  A 1.95 1.95 0.0 0 0 212.60 113.83
  Q 212.18 120.09 212.18 126.91
  C 212.18 128.84 213.13 129.97 215.12 129.73
  A 1.76 1.76 0.0 0 0 216.65 127.67
  Q 215.43 121.02 220.25 116.64
  A 1.23 1.23 0.0 0 1 222.30 117.62
  C 222.17 119.78 221.05 131.07 225.66 129.93
  A 1.83 1.83 0.0 0 0 227.04 127.97"
/>
<path stroke="#d1dea3" vector-effect="non-scaling-stroke" d="
  M 293.20 114.10
  C 292.32 111.86 289.40 112.82 289.35 115.44
  Q 289.20 124.40 289.47 128.17
  Q 289.62 130.27 291.61 129.97
  A 2.24 2.24 0.0 0 0 293.50 127.76
  L 293.50 120.50
  Q 293.50 119.99 293.78 119.57
  Q 295.27 117.36 297.83 116.65
  Q 298.37 116.50 298.44 117.05
  L 298.71 119.03
  Q 298.77 119.47 299.15 119.69
  C 300.86 120.69 302.44 119.71 302.66 117.82
  Q 302.90 115.70 301.95 113.64
  A 1.20 1.19 -2.3 0 0 301.26 113.01
  C 298.72 112.12 296.10 112.90 293.97 114.34
  Q 293.44 114.71 293.20 114.10"
/>
<path stroke="#d1dea3" vector-effect="non-scaling-stroke" d="
  M 209.21 116.68
  C 210.87 110.72 191.67 110.95 194.32 123.99
  C 195.47 129.64 200.79 131.25 205.65 128.56
  A 0.55 0.54 -32.9 0 1 206.34 128.70
  Q 207.07 129.65 208.18 129.99
  A 1.69 1.68 -4.9 0 0 210.18 127.62
  C 208.60 124.49 208.20 120.32 209.21 116.68"
/>
<path stroke="#d1dea3" vector-effect="non-scaling-stroke" d="
  M 245.85 120.75
  C 244.57 127.88 250.94 132.17 257.09 128.52
  A 0.59 0.58 -33.5 0 1 257.85 128.67
  C 259.61 131.00 262.59 130.02 261.35 126.78
  Q 259.31 121.46 260.83 115.76
  A 0.80 0.79 28.2 0 0 260.58 114.95
  C 254.91 110.03 247.12 113.67 245.85 120.75"
/>
<path stroke="#d1dea3" vector-effect="non-scaling-stroke" d="
  M 309.44 124.05
  L 317.89 120.03
  A 0.71 0.62 -80.6 0 0 318.16 119.81
  C 320.24 117.02 319.36 114.07 316.01 113.20
  C 302.84 109.79 299.30 129.47 312.51 129.64
  C 314.55 129.67 321.32 128.70 319.86 125.03
  A 1.19 1.19 0.0 0 0 318.28 124.38
  C 315.64 125.52 312.03 126.84 309.36 124.82
  Q 308.77 124.37 309.44 124.05"
/>
<path stroke="#d1dea3" vector-effect="non-scaling-stroke" d="
  M 238.31 128.58
  A 0.36 0.36 0.0 0 1 238.93 128.84
  C 238.71 136.71 233.13 132.44 228.98 133.76
  Q 228.49 133.92 228.33 134.41
  C 226.80 139.09 241.46 140.15 242.56 131.06
  Q 243.44 123.73 244.10 116.31
  Q 244.14 115.83 243.79 115.50
  C 235.52 107.79 223.07 119.32 229.83 127.48
  C 231.49 129.49 235.99 131.04 238.31 128.58"
/>
<path stroke="#d1dea3" vector-effect="non-scaling-stroke" d="
  M 277.7301 129.7528
  A 8.59 7.53 102.3 0 0 286.9172 122.9641
  A 8.59 7.53 102.3 0 0 281.3899 112.9672
  A 8.59 7.53 102.3 0 0 272.2028 119.7559
  A 8.59 7.53 102.3 0 0 277.7301 129.7528"
/>
<path stroke="#d9f2ed" vector-effect="non-scaling-stroke" d="
  M 142.20 117.82
  L 18.01 117.83
  Q 17.67 117.83 17.85 118.12
  Q 17.97 118.32 18.25 118.29
  Q 18.52 118.27 18.75 118.39
  C 22.04 120.10 24.91 123.37 28.08 124.19
  C 36.09 126.23 39.08 117.62 44.94 119.59
  C 47.19 120.34 49.06 123.04 51.44 123.91
  Q 57.61 126.15 63.20 120.94
  C 70.91 113.76 75.52 132.22 87.74 120.99
  C 94.10 115.14 98.82 125.99 105.53 124.90
  C 109.89 124.19 112.15 119.54 116.29 119.43
  C 120.25 119.33 121.49 121.97 124.02 123.31
  C 131.93 127.51 135.76 120.37 142.24 118.04
  Q 142.85 117.82 142.20 117.82"
/>
<path stroke="#d9f2ed" vector-effect="non-scaling-stroke" d="
  M 61.25 132.75
  Q 53.70 132.30 38.18 133.17
  Q 37.42 133.22 38.11 133.55
  C 40.29 134.61 41.64 135.41 44.06 136.98
  Q 52.38 142.38 61.48 135.93
  C 64.23 133.97 68.04 134.47 70.93 136.55
  Q 75.56 139.88 81.33 139.52
  C 89.09 139.05 90.52 130.83 99.54 137.07
  Q 104.84 140.75 111.19 139.08
  C 114.44 138.23 117.44 135.53 120.73 133.88
  Q 120.93 133.78 120.77 133.64
  Q 120.65 133.53 120.54 133.40
  Q 120.28 133.10 119.91 133.22
  C 116.78 134.24 114.60 132.84 111.84 133.01
  Q 101.30 133.64 90.75 132.97
  C 79.46 132.25 71.51 133.36 61.25 132.75"
/>
<path stroke="#808080" vector-effect="non-scaling-stroke" d="
  M 194.8154 37.8051
  A 4.47 3.26 100.5 0 0 198.8354 34.0041
  A 4.47 3.26 100.5 0 0 196.4446 29.0149
  A 4.47 3.26 100.5 0 0 192.4246 32.8159
  A 4.47 3.26 100.5 0 0 194.8154 37.8051"
/>
<path stroke="#d1dea3" vector-effect="non-scaling-stroke" d="
  M 203.78 116.42
  C 195.34 117.95 198.16 129.79 204.36 125.10
  Q 204.72 124.83 204.70 124.38
  L 204.42 116.94
  Q 204.40 116.31 203.78 116.42"
/>
<path stroke="#d1dea3" vector-effect="non-scaling-stroke" d="
  M 251.97 125.93
  Q 254.07 126.34 255.77 125.25
  Q 256.25 124.95 256.22 124.39
  L 255.92 116.95
  Q 255.90 116.54 255.49 116.51
  C 250.86 116.26 248.71 121.97 251.05 125.33
  Q 251.39 125.82 251.97 125.93"
/>
<path stroke="#d1dea3" vector-effect="non-scaling-stroke" d="
  M 309.05 120.08
  L 314.78 117.42
  A 0.03 0.03 0.0 0 0 314.79 117.38
  L 314.78 117.34
  A 3.07 1.89 -24.9 0 0 311.20 116.92
  L 310.98 117.02
  A 3.07 1.89 -24.9 0 0 308.99 120.03
  L 309.01 120.06
  A 0.03 0.03 0.0 0 0 309.05 120.08"
/>
<path stroke="#d1dea3" vector-effect="non-scaling-stroke" d="
  M 239.00 116.85
  C 228.74 115.09 232.36 131.05 237.73 124.66
  Q 239.82 122.15 239.49 117.40
  Q 239.46 116.93 239.00 116.85"
/>
<path stroke="#d1dea3" vector-effect="non-scaling-stroke" d="
  M 278.9369 125.8026
  A 4.46 3.21 99.2 0 0 282.8187 121.9132
  A 4.46 3.21 99.2 0 0 280.3631 116.9974
  A 4.46 3.21 99.2 0 0 276.4813 120.8868
  A 4.46 3.21 99.2 0 0 278.9369 125.8026"
/>
</g>
<path fill="#ffffff" d="
  M 0.00 0.00
  L 327.00 0.00
  L 327.00 146.00
  L 0.00 146.00
  L 0.00 0.00
  Z
  M 78.76 36.93
  L 78.69 78.10
  Q 78.69 78.48 78.31 78.51
  Q 78.15 78.53 77.97 78.52
  C 61.51 79.99 49.02 92.87 48.72 109.14
  Q 48.70 110.26 49.82 110.26
  L 110.16 110.24
  Q 111.36 110.24 111.32 109.04
  C 110.66 92.08 98.09 79.73 81.14 78.44
  L 81.21 36.82
  L 96.30 51.93
  Q 96.69 52.32 96.80 51.78
  C 98.30 44.66 92.70 38.95 86.87 35.79
  Q 85.87 35.25 87.00 35.25
  L 112.53 35.25
  Q 113.25 35.25 112.90 34.62
  C 108.24 26.26 96.16 25.67 88.19 28.35
  C 87.48 28.58 86.59 29.21 85.76 29.46
  Q 84.93 29.71 85.54 29.10
  L 103.53 11.06
  A 0.56 0.56 0.0 0 0 103.24 10.11
  C 92.35 8.08 82.70 18.18 80.05 27.43
  Q 79.92 27.89 79.77 27.44
  C 76.42 17.53 68.25 8.25 56.62 10.17
  A 0.43 0.43 0.0 0 0 56.39 10.89
  L 74.43 29.09
  A 0.19 0.19 0.0 0 1 74.21 29.39
  C 65.98 25.53 52.30 25.49 47.09 34.58
  Q 46.70 35.27 47.50 35.27
  L 73.26 35.21
  Q 73.74 35.21 73.34 35.48
  C 67.16 39.73 62.76 43.11 62.90 51.49
  A 0.64 0.64 0.0 0 0 64.00 51.93
  L 78.76 36.93
  Z
  M 178.28 21.87
  C 181.29 22.17 188.47 23.67 187.05 19.27
  A 1.78 1.78 0.0 0 0 185.40 18.04
  L 166.87 17.50
  Q 166.44 17.49 166.11 17.77
  Q 164.74 18.93 165.45 20.84
  A 0.89 0.89 0.0 0 0 166.19 21.42
  L 172.89 22.17
  Q 173.32 22.22 173.34 22.65
  L 174.36 39.31
  A 1.87 1.87 0.0 0 0 177.51 40.56
  Q 178.98 39.19 178.55 36.49
  Q 178.08 33.55 177.79 22.32
  Q 177.78 21.82 178.28 21.87
  Z
  M 209.63 37.06
  Q 208.77 32.30 209.60 27.51
  C 210.04 24.97 207.71 23.43 205.83 25.02
  A 1.23 1.18 -16.5 0 0 205.42 25.74
  Q 204.26 32.39 205.82 38.96
  Q 205.96 39.54 206.43 39.92
  Q 210.12 42.91 214.70 41.15
  Q 215.14 40.98 215.45 41.33
  Q 216.98 43.07 218.84 41.56
  Q 219.25 41.22 219.25 40.68
  Q 219.18 33.82 219.49 26.97
  C 219.58 24.92 218.82 24.46 216.88 24.50
  A 1.72 1.71 -89.8 0 0 215.20 26.18
  L 214.92 36.75
  Q 214.90 37.39 214.26 37.42
  L 210.38 37.65
  Q 209.75 37.69 209.63 37.06
  Z
  M 231.18 28.97
  L 231.52 31.05
  Q 231.60 31.52 232.04 31.72
  C 237.23 34.09 237.42 19.60 226.73 26.33
  Q 226.22 26.65 225.96 26.10
  Q 225.14 24.33 223.09 25.20
  Q 222.08 25.63 222.08 26.73
  L 222.07 40.78
  A 0.95 0.95 0.0 0 0 222.68 41.68
  Q 224.67 42.43 225.65 41.22
  C 228.49 37.70 222.68 30.40 230.69 28.64
  Q 231.11 28.55 231.18 28.97
  Z
  M 193.7761 41.7525
  A 8.58 7.51 102.0 0 0 202.9059 34.9214
  A 8.58 7.51 102.0 0 0 197.3439 24.9675
  A 8.58 7.51 102.0 0 0 188.2141 31.7986
  A 8.58 7.51 102.0 0 0 193.7761 41.7525
  Z
  M 33.87 67.21
  L 33.91 108.74
  A 1.27 1.26 89.8 0 0 35.17 110.00
  L 35.79 110.00
  Q 36.50 110.00 36.50 109.29
  Q 36.51 88.63 36.50 68.00
  Q 36.50 67.67 36.93 67.51
  L 51.55 82.15
  Q 51.90 82.50 52.06 82.03
  C 54.34 75.38 47.17 68.06 41.84 66.08
  Q 39.51 65.21 41.99 65.22
  L 68.04 65.32
  Q 68.78 65.33 68.40 64.70
  C 62.98 55.78 49.41 55.51 41.08 59.71
  A 0.24 0.24 0.0 0 1 40.80 59.32
  L 58.81 41.31
  A 0.64 0.64 0.0 0 0 58.48 40.23
  C 47.49 38.11 37.87 48.66 35.48 58.26
  Q 35.23 59.30 35.05 58.25
  C 33.32 47.92 22.83 38.66 12.18 40.24
  A 0.54 0.54 0.0 0 0 11.88 41.15
  L 30.53 59.94
  A 0.11 0.11 0.0 0 1 30.40 60.12
  C 22.74 56.11 6.80 55.03 2.51 64.85
  Q 2.33 65.26 2.78 65.26
  L 29.23 65.22
  Q 29.67 65.22 29.29 65.44
  C 23.24 68.99 16.60 74.73 18.66 82.05
  Q 18.82 82.60 19.21 82.19
  L 33.87 67.21
  Z
  M 123.48 67.13
  L 123.49 109.28
  Q 123.49 110.00 124.21 110.00
  L 125.05 110.00
  A 1.00 1.00 0.0 0 0 126.05 109.00
  L 126.09 67.23
  L 140.79 82.20
  Q 141.23 82.65 141.39 82.04
  C 143.34 74.83 136.58 68.36 130.65 65.69
  A 0.23 0.23 0.0 0 1 130.74 65.25
  L 156.76 65.25
  Q 158.33 65.25 157.44 63.96
  C 151.67 55.62 141.52 56.36 132.78 57.98
  A 0.54 0.54 0.0 0 1 132.30 57.07
  L 148.07 41.30
  A 0.65 0.65 0.0 0 0 147.70 40.20
  C 136.78 38.67 127.77 47.80 124.74 57.53
  Q 124.59 58.00 124.46 57.52
  C 121.82 48.19 112.20 38.14 101.51 40.23
  A 0.63 0.63 0.0 0 0 101.19 41.30
  L 119.42 59.57
  Q 119.57 59.72 119.44 59.88
  Q 119.34 60.01 119.19 60.02
  Q 119.05 60.03 118.85 59.87
  C 112.48 55.06 94.84 56.34 91.86 64.71
  Q 91.66 65.26 92.25 65.26
  L 118.76 65.22
  Q 119.30 65.22 118.82 65.47
  C 113.02 68.50 105.91 74.55 107.91 82.03
  Q 108.05 82.56 108.45 82.17
  L 123.48 67.13
  Z
  M 173.38 73.69
  C 174.32 76.50 175.47 85.82 179.25 85.63
  A 1.88 1.88 0.0 0 0 180.91 84.39
  L 185.12 72.60
  A 0.19 0.19 0.0 0 1 185.48 72.63
  Q 186.45 78.05 187.80 83.48
  C 188.78 87.43 193.29 86.53 192.53 83.50
  Q 189.19 70.20 188.45 64.32
  C 188.11 61.60 184.11 59.62 183.32 62.81
  Q 181.60 69.73 179.25 76.28
  A 0.32 0.32 0.0 0 1 178.63 76.24
  Q 177.18 69.71 175.62 63.28
  Q 175.05 60.97 172.64 61.57
  A 2.44 2.42 -0.1 0 0 170.85 63.35
  Q 168.63 72.39 166.21 81.99
  Q 165.98 82.91 166.37 84.70
  A 1.17 1.13 -81.7 0 0 166.90 85.44
  C 169.08 86.76 170.30 85.33 170.70 83.24
  Q 171.64 78.43 172.97 73.70
  Q 173.16 73.02 173.38 73.69
  Z
  M 202.01 78.05
  C 201.07 75.95 197.73 68.16 194.74 69.11
  A 1.87 1.86 66.7 0 0 193.68 71.79
  L 199.76 82.86
  Q 200.01 83.30 199.80 83.76
  C 198.89 85.83 194.79 92.80 198.43 93.90
  A 1.80 1.80 0.0 0 0 200.60 92.88
  Q 205.10 82.27 210.11 72.31
  C 210.85 70.84 210.62 69.57 209.03 68.94
  Q 207.29 68.25 206.47 69.93
  L 202.48 78.06
  A 0.26 0.26 0.0 0 1 202.01 78.05
  Z
  M 268.98 106.19
  A 2.18 2.18 0.0 0 0 266.80 104.01
  L 266.68 104.01
  A 2.18 2.18 0.0 0 0 264.50 106.19
  L 264.50 127.33
  A 2.18 2.18 0.0 0 0 266.68 129.51
  L 266.80 129.51
  A 2.18 2.18 0.0 0 0 268.98 127.33
  L 268.98 106.19
  Z
  M 172.89 117.74
  A 0.35 0.35 0.0 0 1 173.57 117.74
  C 174.04 119.85 175.90 132.48 180.19 128.98
  C 182.03 127.47 183.95 119.80 185.02 117.14
  Q 185.32 116.39 185.50 117.18
  L 187.89 128.19
  A 2.48 2.47 78.6 0 0 190.76 130.10
  Q 193.24 129.65 192.47 127.05
  Q 189.74 117.93 188.50 108.51
  C 188.12 105.54 184.10 103.54 183.29 106.80
  Q 181.55 113.71 179.25 120.27
  A 0.31 0.31 0.0 0 1 178.65 120.24
  Q 177.19 113.61 175.49 107.11
  Q 174.74 104.22 171.85 105.95
  A 2.42 2.42 0.0 0 0 170.74 107.48
  Q 168.67 116.41 166.27 125.75
  Q 165.35 129.33 168.20 130.02
  A 1.80 1.80 0.0 0 0 170.37 128.68
  L 172.89 117.74
  Z
  M 227.04 127.97
  C 226.62 123.77 227.80 106.16 217.26 114.12
  A 0.47 0.47 0.0 0 1 216.51 113.76
  Q 216.47 111.79 214.34 112.02
  A 1.95 1.95 0.0 0 0 212.60 113.83
  Q 212.18 120.09 212.18 126.91
  C 212.18 128.84 213.13 129.97 215.12 129.73
  A 1.76 1.76 0.0 0 0 216.65 127.67
  Q 215.43 121.02 220.25 116.64
  A 1.23 1.23 0.0 0 1 222.30 117.62
  C 222.17 119.78 221.05 131.07 225.66 129.93
  A 1.83 1.83 0.0 0 0 227.04 127.97
  Z
  M 293.20 114.10
  C 292.32 111.86 289.40 112.82 289.35 115.44
  Q 289.20 124.40 289.47 128.17
  Q 289.62 130.27 291.61 129.97
  A 2.24 2.24 0.0 0 0 293.50 127.76
  L 293.50 120.50
  Q 293.50 119.99 293.78 119.57
  Q 295.27 117.36 297.83 116.65
  Q 298.37 116.50 298.44 117.05
  L 298.71 119.03
  Q 298.77 119.47 299.15 119.69
  C 300.86 120.69 302.44 119.71 302.66 117.82
  Q 302.90 115.70 301.95 113.64
  A 1.20 1.19 -2.3 0 0 301.26 113.01
  C 298.72 112.12 296.10 112.90 293.97 114.34
  Q 293.44 114.71 293.20 114.10
  Z
  M 209.21 116.68
  C 210.87 110.72 191.67 110.95 194.32 123.99
  C 195.47 129.64 200.79 131.25 205.65 128.56
  A 0.55 0.54 -32.9 0 1 206.34 128.70
  Q 207.07 129.65 208.18 129.99
  A 1.69 1.68 -4.9 0 0 210.18 127.62
  C 208.60 124.49 208.20 120.32 209.21 116.68
  Z
  M 245.85 120.75
  C 244.57 127.88 250.94 132.17 257.09 128.52
  A 0.59 0.58 -33.5 0 1 257.85 128.67
  C 259.61 131.00 262.59 130.02 261.35 126.78
  Q 259.31 121.46 260.83 115.76
  A 0.80 0.79 28.2 0 0 260.58 114.95
  C 254.91 110.03 247.12 113.67 245.85 120.75
  Z
  M 309.44 124.05
  L 317.89 120.03
  A 0.71 0.62 -80.6 0 0 318.16 119.81
  C 320.24 117.02 319.36 114.07 316.01 113.20
  C 302.84 109.79 299.30 129.47 312.51 129.64
  C 314.55 129.67 321.32 128.70 319.86 125.03
  A 1.19 1.19 0.0 0 0 318.28 124.38
  C 315.64 125.52 312.03 126.84 309.36 124.82
  Q 308.77 124.37 309.44 124.05
  Z
  M 238.31 128.58
  A 0.36 0.36 0.0 0 1 238.93 128.84
  C 238.71 136.71 233.13 132.44 228.98 133.76
  Q 228.49 133.92 228.33 134.41
  C 226.80 139.09 241.46 140.15 242.56 131.06
  Q 243.44 123.73 244.10 116.31
  Q 244.14 115.83 243.79 115.50
  C 235.52 107.79 223.07 119.32 229.83 127.48
  C 231.49 129.49 235.99 131.04 238.31 128.58
  Z
  M 277.7301 129.7528
  A 8.59 7.53 102.3 0 0 286.9172 122.9641
  A 8.59 7.53 102.3 0 0 281.3899 112.9672
  A 8.59 7.53 102.3 0 0 272.2028 119.7559
  A 8.59 7.53 102.3 0 0 277.7301 129.7528
  Z
  M 142.20 117.82
  L 18.01 117.83
  Q 17.67 117.83 17.85 118.12
  Q 17.97 118.32 18.25 118.29
  Q 18.52 118.27 18.75 118.39
  C 22.04 120.10 24.91 123.37 28.08 124.19
  C 36.09 126.23 39.08 117.62 44.94 119.59
  C 47.19 120.34 49.06 123.04 51.44 123.91
  Q 57.61 126.15 63.20 120.94
  C 70.91 113.76 75.52 132.22 87.74 120.99
  C 94.10 115.14 98.82 125.99 105.53 124.90
  C 109.89 124.19 112.15 119.54 116.29 119.43
  C 120.25 119.33 121.49 121.97 124.02 123.31
  C 131.93 127.51 135.76 120.37 142.24 118.04
  Q 142.85 117.82 142.20 117.82
  Z
  M 61.25 132.75
  Q 53.70 132.30 38.18 133.17
  Q 37.42 133.22 38.11 133.55
  C 40.29 134.61 41.64 135.41 44.06 136.98
  Q 52.38 142.38 61.48 135.93
  C 64.23 133.97 68.04 134.47 70.93 136.55
  Q 75.56 139.88 81.33 139.52
  C 89.09 139.05 90.52 130.83 99.54 137.07
  Q 104.84 140.75 111.19 139.08
  C 114.44 138.23 117.44 135.53 120.73 133.88
  Q 120.93 133.78 120.77 133.64
  Q 120.65 133.53 120.54 133.40
  Q 120.28 133.10 119.91 133.22
  C 116.78 134.24 114.60 132.84 111.84 133.01
  Q 101.30 133.64 90.75 132.97
  C 79.46 132.25 71.51 133.36 61.25 132.75
  Z"
/>
<path fill="#a2bc46" d="
  M 81.21 36.82
  Q 79.93 35.47 78.76 36.93
  L 64.00 51.93
  A 0.64 0.64 0.0 0 1 62.90 51.49
  C 62.76 43.11 67.16 39.73 73.34 35.48
  Q 73.74 35.21 73.26 35.21
  L 47.50 35.27
  Q 46.70 35.27 47.09 34.58
  C 52.30 25.49 65.98 25.53 74.21 29.39
  A 0.19 0.19 0.0 0 0 74.43 29.09
  L 56.39 10.89
  A 0.43 0.43 0.0 0 1 56.62 10.17
  C 68.25 8.25 76.42 17.53 79.77 27.44
  Q 79.92 27.89 80.05 27.43
  C 82.70 18.18 92.35 8.08 103.24 10.11
  A 0.56 0.56 0.0 0 1 103.53 11.06
  L 85.54 29.10
  Q 84.93 29.71 85.76 29.46
  C 86.59 29.21 87.48 28.58 88.19 28.35
  C 96.16 25.67 108.24 26.26 112.90 34.62
  Q 113.25 35.25 112.53 35.25
  L 87.00 35.25
  Q 85.87 35.25 86.87 35.79
  C 92.70 38.95 98.30 44.66 96.80 51.78
  Q 96.69 52.32 96.30 51.93
  L 81.21 36.82
  Z"
/>
<path fill="#000000" d="
  M 177.79 22.32
  Q 178.08 33.55 178.55 36.49
  Q 178.98 39.19 177.51 40.56
  A 1.87 1.87 0.0 0 1 174.36 39.31
  L 173.34 22.65
  Q 173.32 22.22 172.89 22.17
  L 166.19 21.42
  A 0.89 0.89 0.0 0 1 165.45 20.84
  Q 164.74 18.93 166.11 17.77
  Q 166.44 17.49 166.87 17.50
  L 185.40 18.04
  A 1.78 1.78 0.0 0 1 187.05 19.27
  C 188.47 23.67 181.29 22.17 178.28 21.87
  Q 177.78 21.82 177.79 22.32
  Z"
/>
<path fill="#000000" d="
  M 210.38 37.65
  L 214.26 37.42
  Q 214.90 37.39 214.92 36.75
  L 215.20 26.18
  A 1.72 1.71 -89.8 0 1 216.88 24.50
  C 218.82 24.46 219.58 24.92 219.49 26.97
  Q 219.18 33.82 219.25 40.68
  Q 219.25 41.22 218.84 41.56
  Q 216.98 43.07 215.45 41.33
  Q 215.14 40.98 214.70 41.15
  Q 210.12 42.91 206.43 39.92
  Q 205.96 39.54 205.82 38.96
  Q 204.26 32.39 205.42 25.74
  A 1.23 1.18 -16.5 0 1 205.83 25.02
  C 207.71 23.43 210.04 24.97 209.60 27.51
  Q 208.77 32.30 209.63 37.06
  Q 209.75 37.69 210.38 37.65
  Z"
/>
<path fill="#000000" d="
  M 230.69 28.64
  C 222.68 30.40 228.49 37.70 225.65 41.22
  Q 224.67 42.43 222.68 41.68
  A 0.95 0.95 0.0 0 1 222.07 40.78
  L 222.08 26.73
  Q 222.08 25.63 223.09 25.20
  Q 225.14 24.33 225.96 26.10
  Q 226.22 26.65 226.73 26.33
  C 237.42 19.60 237.23 34.09 232.04 31.72
  Q 231.60 31.52 231.52 31.05
  L 231.18 28.97
  Q 231.11 28.55 230.69 28.64
  Z"
/>
<path fill="#000000" d="
  M 193.7761 41.7525
  A 8.58 7.51 102.0 0 1 188.2141 31.7986
  A 8.58 7.51 102.0 0 1 197.3439 24.9675
  A 8.58 7.51 102.0 0 1 202.9059 34.9214
  A 8.58 7.51 102.0 0 1 193.7761 41.7525
  Z
  M 194.8154 37.8051
  A 4.47 3.26 100.5 0 0 198.8354 34.0041
  A 4.47 3.26 100.5 0 0 196.4446 29.0149
  A 4.47 3.26 100.5 0 0 192.4246 32.8159
  A 4.47 3.26 100.5 0 0 194.8154 37.8051
  Z"
/>
<ellipse fill="#ffffff" cx="0.00" cy="0.00" transform="translate(195.63,33.41) rotate(100.5)" rx="4.47" ry="3.26"/>
<path fill="#ce9256" d="
  M 81.21 36.82
  L 81.14 78.44
  Q 81.31 93.44 81.19 108.29
  Q 81.19 109.11 80.81 109.46
  Q 80.24 109.98 79.34 109.57
  Q 78.88 109.37 78.87 108.87
  Q 78.48 94.81 79.15 80.76
  Q 79.24 78.93 77.97 78.52
  Q 78.15 78.53 78.31 78.51
  Q 78.69 78.48 78.69 78.10
  L 78.76 36.93
  Q 79.93 35.47 81.21 36.82
  Z"
/>
<path fill="#a2bc46" d="
  M 36.93 67.51
  Q 36.40 67.13 36.05 66.46
  A 0.86 0.84 -15.1 0 0 35.25 66.01
  Q 34.26 66.08 33.87 67.21
  L 19.21 82.19
  Q 18.82 82.60 18.66 82.05
  C 16.60 74.73 23.24 68.99 29.29 65.44
  Q 29.67 65.22 29.23 65.22
  L 2.78 65.26
  Q 2.33 65.26 2.51 64.85
  C 6.80 55.03 22.74 56.11 30.40 60.12
  A 0.11 0.11 0.0 0 0 30.53 59.94
  L 11.88 41.15
  A 0.54 0.54 0.0 0 1 12.18 40.24
  C 22.83 38.66 33.32 47.92 35.05 58.25
  Q 35.23 59.30 35.48 58.26
  C 37.87 48.66 47.49 38.11 58.48 40.23
  A 0.64 0.64 0.0 0 1 58.81 41.31
  L 40.80 59.32
  A 0.24 0.24 0.0 0 0 41.08 59.71
  C 49.41 55.51 62.98 55.78 68.40 64.70
  Q 68.78 65.33 68.04 65.32
  L 41.99 65.22
  Q 39.51 65.21 41.84 66.08
  C 47.17 68.06 54.34 75.38 52.06 82.03
  Q 51.90 82.50 51.55 82.15
  L 36.93 67.51
  Z"
/>
<path fill="#a2bc46" d="
  M 126.09 67.23
  Q 125.81 66.55 124.87 66.14
  Q 124.35 65.91 124.02 66.38
  L 123.48 67.13
  L 108.45 82.17
  Q 108.05 82.56 107.91 82.03
  C 105.91 74.55 113.02 68.50 118.82 65.47
  Q 119.30 65.22 118.76 65.22
  L 92.25 65.26
  Q 91.66 65.26 91.86 64.71
  C 94.84 56.34 112.48 55.06 118.85 59.87
  Q 119.05 60.03 119.19 60.02
  Q 119.34 60.01 119.44 59.88
  Q 119.57 59.72 119.42 59.57
  L 101.19 41.30
  A 0.63 0.63 0.0 0 1 101.51 40.23
  C 112.20 38.14 121.82 48.19 124.46 57.52
  Q 124.59 58.00 124.74 57.53
  C 127.77 47.80 136.78 38.67 147.70 40.20
  A 0.65 0.65 0.0 0 1 148.07 41.30
  L 132.30 57.07
  A 0.54 0.54 0.0 0 0 132.78 57.98
  C 141.52 56.36 151.67 55.62 157.44 63.96
  Q 158.33 65.25 156.76 65.25
  L 130.74 65.25
  A 0.23 0.23 0.0 0 0 130.65 65.69
  C 136.58 68.36 143.34 74.83 141.39 82.04
  Q 141.23 82.65 140.79 82.20
  L 126.09 67.23
  Z"
/>
<path fill="#000000" d="
  M 172.97 73.70
  Q 171.64 78.43 170.70 83.24
  C 170.30 85.33 169.08 86.76 166.90 85.44
  A 1.17 1.13 -81.7 0 1 166.37 84.70
  Q 165.98 82.91 166.21 81.99
  Q 168.63 72.39 170.85 63.35
  A 2.44 2.42 -0.1 0 1 172.64 61.57
  Q 175.05 60.97 175.62 63.28
  Q 177.18 69.71 178.63 76.24
  A 0.32 0.32 0.0 0 0 179.25 76.28
  Q 181.60 69.73 183.32 62.81
  C 184.11 59.62 188.11 61.60 188.45 64.32
  Q 189.19 70.20 192.53 83.50
  C 193.29 86.53 188.78 87.43 187.80 83.48
  Q 186.45 78.05 185.48 72.63
  A 0.19 0.19 0.0 0 0 185.12 72.60
  L 180.91 84.39
  A 1.88 1.88 0.0 0 1 179.25 85.63
  C 175.47 85.82 174.32 76.50 173.38 73.69
  Q 173.16 73.02 172.97 73.70
  Z"
/>
<path fill="#ce9256" d="
  M 36.93 67.51
  Q 36.50 67.67 36.50 68.00
  Q 36.51 88.63 36.50 109.29
  Q 36.50 110.00 35.79 110.00
  L 35.17 110.00
  A 1.27 1.26 89.8 0 1 33.91 108.74
  L 33.87 67.21
  Q 34.26 66.08 35.25 66.01
  A 0.86 0.84 -15.1 0 1 36.05 66.46
  Q 36.40 67.13 36.93 67.51
  Z"
/>
<path fill="#ce9256" d="
  M 126.09 67.23
  L 126.05 109.00
  A 1.00 1.00 0.0 0 1 125.05 110.00
  L 124.21 110.00
  Q 123.49 110.00 123.49 109.28
  L 123.48 67.13
  L 124.02 66.38
  Q 124.35 65.91 124.87 66.14
  Q 125.81 66.55 126.09 67.23
  Z"
/>
<path fill="#000000" d="
  M 202.01 78.05
  A 0.26 0.26 0.0 0 0 202.48 78.06
  L 206.47 69.93
  Q 207.29 68.25 209.03 68.94
  C 210.62 69.57 210.85 70.84 210.11 72.31
  Q 205.10 82.27 200.60 92.88
  A 1.80 1.80 0.0 0 1 198.43 93.90
  C 194.79 92.80 198.89 85.83 199.80 83.76
  Q 200.01 83.30 199.76 82.86
  L 193.68 71.79
  A 1.87 1.86 66.7 0 1 194.74 69.11
  C 197.73 68.16 201.07 75.95 202.01 78.05
  Z"
/>
<path fill="#ffc91f" d="
  M 77.97 78.52
  Q 79.24 78.93 79.15 80.76
  Q 78.48 94.81 78.87 108.87
  Q 78.88 109.37 79.34 109.57
  Q 80.24 109.98 80.81 109.46
  Q 81.19 109.11 81.19 108.29
  Q 81.31 93.44 81.14 78.44
  C 98.09 79.73 110.66 92.08 111.32 109.04
  Q 111.36 110.24 110.16 110.24
  L 49.82 110.26
  Q 48.70 110.26 48.72 109.14
  C 49.02 92.87 61.51 79.99 77.97 78.52
  Z"
/>
<rect fill="#a2bc46" x="264.50" y="104.01" width="4.48" height="25.50" rx="2.18"/>
<path fill="#a2bc46" d="
  M 172.89 117.74
  L 170.37 128.68
  A 1.80 1.80 0.0 0 1 168.20 130.02
  Q 165.35 129.33 166.27 125.75
  Q 168.67 116.41 170.74 107.48
  A 2.42 2.42 0.0 0 1 171.85 105.95
  Q 174.74 104.22 175.49 107.11
  Q 177.19 113.61 178.65 120.24
  A 0.31 0.31 0.0 0 0 179.25 120.27
  Q 181.55 113.71 183.29 106.80
  C 184.10 103.54 188.12 105.54 188.50 108.51
  Q 189.74 117.93 192.47 127.05
  Q 193.24 129.65 190.76 130.10
  A 2.48 2.47 78.6 0 1 187.89 128.19
  L 185.50 117.18
  Q 185.32 116.39 185.02 117.14
  C 183.95 119.80 182.03 127.47 180.19 128.98
  C 175.90 132.48 174.04 119.85 173.57 117.74
  A 0.35 0.35 0.0 0 0 172.89 117.74
  Z"
/>
<path fill="#a2bc46" d="
  M 217.26 114.12
  C 227.80 106.16 226.62 123.77 227.04 127.97
  A 1.83 1.83 0.0 0 1 225.66 129.93
  C 221.05 131.07 222.17 119.78 222.30 117.62
  A 1.23 1.23 0.0 0 0 220.25 116.64
  Q 215.43 121.02 216.65 127.67
  A 1.76 1.76 0.0 0 1 215.12 129.73
  C 213.13 129.97 212.18 128.84 212.18 126.91
  Q 212.18 120.09 212.60 113.83
  A 1.95 1.95 0.0 0 1 214.34 112.02
  Q 216.47 111.79 216.51 113.76
  A 0.47 0.47 0.0 0 0 217.26 114.12
  Z"
/>
<path fill="#a2bc46" d="
  M 293.97 114.34
  C 296.10 112.90 298.72 112.12 301.26 113.01
  A 1.20 1.19 -2.3 0 1 301.95 113.64
  Q 302.90 115.70 302.66 117.82
  C 302.44 119.71 300.86 120.69 299.15 119.69
  Q 298.77 119.47 298.71 119.03
  L 298.44 117.05
  Q 298.37 116.50 297.83 116.65
  Q 295.27 117.36 293.78 119.57
  Q 293.50 119.99 293.50 120.50
  L 293.50 127.76
  A 2.24 2.24 0.0 0 1 291.61 129.97
  Q 289.62 130.27 289.47 128.17
  Q 289.20 124.40 289.35 115.44
  C 289.40 112.82 292.32 111.86 293.20 114.10
  Q 293.44 114.71 293.97 114.34
  Z"
/>
<path fill="#a2bc46" d="
  M 194.32 123.99
  C 191.67 110.95 210.87 110.72 209.21 116.68
  C 208.20 120.32 208.60 124.49 210.18 127.62
  A 1.69 1.68 -4.9 0 1 208.18 129.99
  Q 207.07 129.65 206.34 128.70
  A 0.55 0.54 -32.9 0 0 205.65 128.56
  C 200.79 131.25 195.47 129.64 194.32 123.99
  Z
  M 203.78 116.42
  C 195.34 117.95 198.16 129.79 204.36 125.10
  Q 204.72 124.83 204.70 124.38
  L 204.42 116.94
  Q 204.40 116.31 203.78 116.42
  Z"
/>
<path fill="#a2bc46" d="
  M 257.09 128.52
  C 250.94 132.17 244.57 127.88 245.85 120.75
  C 247.12 113.67 254.91 110.03 260.58 114.95
  A 0.80 0.79 28.2 0 1 260.83 115.76
  Q 259.31 121.46 261.35 126.78
  C 262.59 130.02 259.61 131.00 257.85 128.67
  A 0.59 0.58 -33.5 0 0 257.09 128.52
  Z
  M 251.97 125.93
  Q 254.07 126.34 255.77 125.25
  Q 256.25 124.95 256.22 124.39
  L 255.92 116.95
  Q 255.90 116.54 255.49 116.51
  C 250.86 116.26 248.71 121.97 251.05 125.33
  Q 251.39 125.82 251.97 125.93
  Z"
/>
<path fill="#a2bc46" d="
  M 309.36 124.82
  C 312.03 126.84 315.64 125.52 318.28 124.38
  A 1.19 1.19 0.0 0 1 319.86 125.03
  C 321.32 128.70 314.55 129.67 312.51 129.64
  C 299.30 129.47 302.84 109.79 316.01 113.20
  C 319.36 114.07 320.24 117.02 318.16 119.81
  A 0.71 0.62 -80.6 0 1 317.89 120.03
  L 309.44 124.05
  Q 308.77 124.37 309.36 124.82
  Z
  M 309.05 120.08
  L 314.78 117.42
  A 0.03 0.03 0.0 0 0 314.79 117.38
  L 314.78 117.34
  A 3.07 1.89 -24.9 0 0 311.20 116.92
  L 310.98 117.02
  A 3.07 1.89 -24.9 0 0 308.99 120.03
  L 309.01 120.06
  A 0.03 0.03 0.0 0 0 309.05 120.08
  Z"
/>
<path fill="#a2bc46" d="
  M 238.31 128.58
  C 235.99 131.04 231.49 129.49 229.83 127.48
  C 223.07 119.32 235.52 107.79 243.79 115.50
  Q 244.14 115.83 244.10 116.31
  Q 243.44 123.73 242.56 131.06
  C 241.46 140.15 226.80 139.09 228.33 134.41
  Q 228.49 133.92 228.98 133.76
  C 233.13 132.44 238.71 136.71 238.93 128.84
  A 0.36 0.36 0.0 0 0 238.31 128.58
  Z
  M 239.00 116.85
  C 228.74 115.09 232.36 131.05 237.73 124.66
  Q 239.82 122.15 239.49 117.40
  Q 239.46 116.93 239.00 116.85
  Z"
/>
<path fill="#a2bc46" d="
  M 277.7301 129.7528
  A 8.59 7.53 102.3 0 1 272.2028 119.7559
  A 8.59 7.53 102.3 0 1 281.3899 112.9672
  A 8.59 7.53 102.3 0 1 286.9172 122.9641
  A 8.59 7.53 102.3 0 1 277.7301 129.7528
  Z
  M 278.9369 125.8026
  A 4.46 3.21 99.2 0 0 282.8187 121.9132
  A 4.46 3.21 99.2 0 0 280.3631 116.9974
  A 4.46 3.21 99.2 0 0 276.4813 120.8868
  A 4.46 3.21 99.2 0 0 278.9369 125.8026
  Z"
/>
<path fill="#ffffff" d="
  M 204.36 125.10
  C 198.16 129.79 195.34 117.95 203.78 116.42
  Q 204.40 116.31 204.42 116.94
  L 204.70 124.38
  Q 204.72 124.83 204.36 125.10
  Z"
/>
<path fill="#ffffff" d="
  M 251.05 125.33
  C 248.71 121.97 250.86 116.26 255.49 116.51
  Q 255.90 116.54 255.92 116.95
  L 256.22 124.39
  Q 256.25 124.95 255.77 125.25
  Q 254.07 126.34 251.97 125.93
  Q 251.39 125.82 251.05 125.33
  Z"
/>
<path fill="#ffffff" d="
  M 309.05 120.08
  A 0.03 0.03 0.0 0 1 309.01 120.06
  L 308.99 120.03
  A 3.07 1.89 -24.9 0 1 310.98 117.02
  L 311.20 116.92
  A 3.07 1.89 -24.9 0 1 314.78 117.34
  L 314.79 117.38
  A 0.03 0.03 0.0 0 1 314.78 117.42
  L 309.05 120.08
  Z"
/>
<path fill="#ffffff" d="
  M 237.73 124.66
  C 232.36 131.05 228.74 115.09 239.00 116.85
  Q 239.46 116.93 239.49 117.40
  Q 239.82 122.15 237.73 124.66
  Z"
/>
<ellipse fill="#ffffff" cx="0.00" cy="0.00" transform="translate(279.65,121.40) rotate(99.2)" rx="4.46" ry="3.21"/>
<path fill="#b3e4db" d="
  M 18.01 117.83
  L 142.20 117.82
  Q 142.85 117.82 142.24 118.04
  C 135.76 120.37 131.93 127.51 124.02 123.31
  C 121.49 121.97 120.25 119.33 116.29 119.43
  C 112.15 119.54 109.89 124.19 105.53 124.90
  C 98.82 125.99 94.10 115.14 87.74 120.99
  C 75.52 132.22 70.91 113.76 63.20 120.94
  Q 57.61 126.15 51.44 123.91
  C 49.06 123.04 47.19 120.34 44.94 119.59
  C 39.08 117.62 36.09 126.23 28.08 124.19
  C 24.91 123.37 22.04 120.10 18.75 118.39
  Q 18.52 118.27 18.25 118.29
  Q 17.97 118.32 17.85 118.12
  Q 17.67 117.83 18.01 117.83
  Z"
/>
<path fill="#b3e4db" d="
  M 61.25 132.75
  C 71.51 133.36 79.46 132.25 90.75 132.97
  Q 101.30 133.64 111.84 133.01
  C 114.60 132.84 116.78 134.24 119.91 133.22
  Q 120.28 133.10 120.54 133.40
  Q 120.65 133.53 120.77 133.64
  Q 120.93 133.78 120.73 133.88
  C 117.44 135.53 114.44 138.23 111.19 139.08
  Q 104.84 140.75 99.54 137.07
  C 90.52 130.83 89.09 139.05 81.33 139.52
  Q 75.56 139.88 70.93 136.55
  C 68.04 134.47 64.23 133.97 61.48 135.93
  Q 52.38 142.38 44.06 136.98
  C 41.64 135.41 40.29 134.61 38.11 133.55
  Q 37.42 133.22 38.18 133.17
  Q 53.70 132.30 61.25 132.75
  Z"
/>
</svg>
