<?xml version="1.0" encoding="UTF-8" standalone="no"?>
<!DOCTYPE svg PUBLIC "-//W3C//DTD SVG 1.1//EN" "http://www.w3.org/Graphics/SVG/1.1/DTD/svg11.dtd">
<svg xmlns="http://www.w3.org/2000/svg" version="1.1" viewBox="0.00 0.00 295.00 180.00">
<g stroke-width="2.00" fill="none" stroke-linecap="butt">
<path stroke="#808080" vector-effect="non-scaling-stroke" d="
  M 81.96 45.26
  C 87.62 45.53 93.94 53.68 95.84 58.39
  A 0.21 0.20 -63.1 0 0 96.23 58.26
  Q 95.74 56.22 96.72 54.34
  A 0.52 0.51 45.9 0 1 97.64 54.36
  L 103.95 67.52
  A 0.36 0.36 0.0 0 0 104.63 67.43
  L 105.31 63.50
  A 0.30 0.30 0.0 0 1 105.88 63.44
  Q 107.75 67.95 108.53 72.78
  Q 108.76 74.25 109.47 72.94
  C 116.96 58.88 109.29 43.32 94.07 39.91
  A 0.12 0.11 22.1 0 1 93.99 39.74
  L 94.14 39.49
  A 0.49 0.48 15.0 0 1 94.56 39.25
  L 98.27 39.25
  A 0.41 0.41 0.0 0 0 98.46 38.47
  Q 88.77 33.44 78.24 36.18
  A 0.20 0.20 0.0 0 1 78.07 35.82
  Q 84.78 30.98 93.05 32.52
  Q 93.37 32.58 93.44 32.26
  L 93.73 30.80
  Q 93.86 30.15 94.52 30.07
  C 97.97 29.65 101.43 31.31 104.58 32.43
  Q 105.46 32.75 105.01 31.92
  L 103.68 29.48
  Q 103.26 28.72 104.08 29.00
  L 110.89 31.33
  Q 111.26 31.45 111.17 31.07
  C 108.98 22.03 98.94 18.32 90.55 20.35
  Q 83.32 22.09 76.24 27.03
  Q 75.76 27.37 75.53 26.83
  C 71.70 17.39 65.43 4.39 52.30 10.85
  A 0.53 0.53 0.0 0 0 52.50 11.85
  Q 56.55 12.09 57.38 15.74
  Q 57.50 16.29 57.93 16.67
  Q 65.99 23.83 68.64 34.24
  A 0.18 0.18 0.0 0 1 68.31 34.39
  C 57.39 18.23 36.19 19.12 26.22 35.90
  A 0.50 0.50 0.0 0 0 26.86 36.61
  L 33.14 33.78
  A 0.56 0.56 0.0 0 1 33.93 34.38
  L 33.71 35.85
  Q 33.64 36.37 34.14 36.23
  L 44.70 33.42
  Q 45.64 33.17 45.38 34.10
  L 44.82 36.06
  A 0.36 0.35 87.9 0 0 45.28 36.49
  Q 53.90 33.51 61.68 38.24
  A 0.24 0.24 0.0 0 1 61.52 38.68
  Q 53.04 37.17 45.38 40.89
  A 0.35 0.35 0.0 0 0 45.46 41.55
  L 47.67 41.99
  Q 48.60 42.18 47.75 42.59
  C 35.82 48.44 33.37 63.74 43.95 72.28
  Q 44.54 72.76 44.51 72.00
  L 44.17 64.23
  A 0.29 0.29 0.0 0 1 44.71 64.06
  L 46.84 67.44
  Q 47.43 68.38 47.41 67.27
  Q 47.29 60.98 49.73 55.17
  A 0.35 0.35 0.0 0 1 50.38 55.20
  L 51.38 58.41
  A 0.26 0.25 -45.8 0 0 51.87 58.40
  Q 55.35 46.50 67.52 44.32
  A 0.21 0.21 0.0 0 1 67.74 44.64
  Q 43.58 82.30 50.88 126.52
  C 51.93 132.84 18.42 138.40 13.97 138.86
  A 1.63 1.62 59.5 0 0 13.21 141.81
  Q 14.49 142.71 16.26 142.55
  Q 39.19 140.60 58.86 129.44
  C 71.41 122.33 82.80 109.90 98.09 109.51
  Q 100.01 109.46 98.45 110.59
  C 96.82 111.77 94.70 113.23 93.47 114.80
  C 85.75 124.74 98.75 132.56 107.46 130.95
  Q 132.09 126.38 150.38 107.89
  C 166.94 91.16 189.47 62.47 217.15 72.28
  A 0.21 0.21 0.0 0 1 217.11 72.69
  C 205.37 74.78 196.63 85.48 199.81 97.66
  C 201.84 105.42 208.65 110.92 216.02 113.70
  Q 234.00 120.47 249.26 111.57
  C 272.01 98.30 271.14 62.79 244.43 54.37
  C 238.48 52.50 226.27 51.82 221.54 57.66
  A 1.20 1.19 16.4 0 0 222.60 59.60
  C 227.27 59.10 232.50 57.82 236.51 57.92
  C 251.22 58.28 262.76 71.84 260.81 86.11
  C 258.53 102.80 244.18 113.31 227.66 111.78
  C 219.80 111.05 210.45 107.21 205.98 100.27
  C 201.97 94.05 203.50 86.19 209.05 81.61
  C 214.76 76.91 222.47 77.05 229.09 80.01
  A 0.82 0.81 -76.2 0 0 230.24 79.31
  C 230.83 68.55 209.47 65.14 202.05 65.83
  C 189.58 66.99 176.28 75.30 166.94 84.44
  C 151.01 100.05 127.61 130.13 100.83 126.20
  C 96.11 125.50 94.35 121.48 96.92 117.62
  C 98.98 114.52 103.40 113.33 106.20 111.21
  Q 108.00 109.84 107.25 108.29
  C 105.63 104.95 95.76 105.05 92.96 105.68
  C 81.98 108.12 71.72 115.50 62.45 122.08
  Q 61.96 122.43 61.79 121.85
  Q 61.25 120.06 60.76 116.99
  Q 54.89 80.78 72.99 48.44
  A 0.63 0.63 0.0 0 1 74.12 48.49
  Q 78.93 59.18 73.38 69.40
  Q 72.90 70.29 73.79 69.81
  L 76.74 68.22
  A 0.68 0.68 0.0 0 1 77.68 69.09
  Q 74.77 75.71 69.54 80.67
  Q 68.77 81.40 69.82 81.27
  Q 72.55 80.92 74.89 79.54
  Q 75.63 79.11 75.16 79.83
  Q 72.59 83.79 68.60 86.36
  A 0.48 0.48 0.0 0 0 68.84 87.24
  C 85.00 88.19 95.49 73.73 89.54 58.41
  A 0.14 0.14 0.0 0 1 89.77 58.26
  L 92.78 61.45
  Q 94.16 62.92 93.46 61.02
  Q 89.98 51.54 81.86 45.55
  Q 81.43 45.23 81.96 45.26"
/>
<path stroke="#808080" vector-effect="non-scaling-stroke" d="
  M 226.4024 34.9330
  A 2.29 2.29 0.0 0 0 223.7018 33.1455
  L 223.4862 33.1894
  A 2.29 2.29 0.0 0 0 221.6987 35.8900
  L 223.3176 43.8470
  A 2.29 2.29 0.0 0 0 226.0182 45.6345
  L 226.2338 45.5906
  A 2.29 2.29 0.0 0 0 228.0213 42.8900
  L 226.4024 34.9330"
/>
<path stroke="#808080" vector-effect="non-scaling-stroke" d="
  M 255.9026 38.1982
  A 2.26 2.26 0.0 0 0 254.8621 35.1762
  L 254.7003 35.0973
  A 2.26 2.26 0.0 0 0 251.6783 36.1378
  L 248.0574 43.5618
  A 2.26 2.26 0.0 0 0 249.0979 46.5838
  L 249.2597 46.6627
  A 2.26 2.26 0.0 0 0 252.2817 45.6222
  L 255.9026 38.1982"
/>
<path stroke="#808080" vector-effect="non-scaling-stroke" d="
  M 204.9065 54.8873
  A 2.28 2.28 0.0 0 0 204.7771 51.6655
  L 197.4574 44.9110
  A 2.28 2.28 0.0 0 0 194.2356 45.0404
  L 194.1135 45.1727
  A 2.28 2.28 0.0 0 0 194.2429 48.3945
  L 201.5626 55.1490
  A 2.28 2.28 0.0 0 0 204.7844 55.0196
  L 204.9065 54.8873"
/>
<path stroke="#808080" vector-effect="non-scaling-stroke" d="
  M 281.1507 54.7620
  A 2.32 2.32 0.0 0 0 277.9875 53.8907
  L 269.0317 58.9783
  A 2.32 2.32 0.0 0 0 268.1604 62.1415
  L 268.2493 62.2980
  A 2.32 2.32 0.0 0 0 271.4125 63.1693
  L 280.3683 58.0817
  A 2.32 2.32 0.0 0 0 281.2396 54.9185
  L 281.1507 54.7620"
/>
<path stroke="#808080" vector-effect="non-scaling-stroke" d="
  M 287.5185 90.4575
  A 6.05 2.52 15.9 0 0 282.3904 86.3764
  A 6.05 2.52 15.9 0 0 275.8815 87.1425
  A 6.05 2.52 15.9 0 0 281.0096 91.2236
  A 6.05 2.52 15.9 0 0 287.5185 90.4575"
/>
<path stroke="#808080" vector-effect="non-scaling-stroke" d="
  M 278.0924 116.1717
  A 2.21 2.21 0.0 0 0 278.0106 113.0474
  L 270.5683 105.9849
  A 2.21 2.21 0.0 0 0 267.4439 106.0667
  L 267.3476 106.1683
  A 2.21 2.21 0.0 0 0 267.4294 109.2926
  L 274.8717 116.3551
  A 2.21 2.21 0.0 0 0 277.9961 116.2733
  L 278.0924 116.1717"
/>
<path stroke="#d2dda8" vector-effect="non-scaling-stroke" d="
  M 223.73 149.90
  A 1.91 1.91 0.0 0 0 221.82 147.99
  L 221.68 147.99
  A 1.91 1.91 0.0 0 0 219.77 149.90
  L 219.77 169.06
  A 1.91 1.91 0.0 0 0 221.68 170.97
  L 221.82 170.97
  A 1.91 1.91 0.0 0 0 223.73 169.06
  L 223.73 149.90"
/>
<path stroke="#808080" vector-effect="non-scaling-stroke" d="
  M 43.00 153.00
  L 48.98 153.00
  A 2.03 2.03 0.0 0 0 50.94 151.49
  C 51.47 149.50 49.87 149.02 48.25 149.01
  Q 40.86 148.97 33.93 149.01
  A 2.08 2.07 -88.4 0 0 31.87 150.96
  C 31.70 153.84 36.63 152.91 38.37 153.12
  Q 38.96 153.20 38.99 153.79
  L 39.85 169.83
  Q 39.88 170.33 40.34 170.54
  Q 42.29 171.44 43.31 169.28
  A 0.91 0.79 59.3 0 0 43.38 168.89
  L 42.53 153.50
  Q 42.50 153.00 43.00 153.00"
/>
<path stroke="#808080" vector-effect="non-scaling-stroke" d="
  M 100.34 159.64
  A 0.24 0.24 0.0 0 1 100.81 159.64
  Q 101.98 164.16 103.23 168.75
  Q 103.99 171.55 106.37 170.42
  A 2.21 2.21 0.0 0 0 107.50 169.15
  L 110.86 159.26
  A 0.33 0.33 0.0 0 1 111.49 159.31
  Q 112.35 164.63 113.73 170.00
  Q 114.13 171.55 115.34 171.88
  A 1.69 1.69 0.0 0 0 117.42 169.78
  Q 115.16 161.89 114.16 153.23
  Q 113.86 150.68 112.40 149.60
  A 1.71 1.71 0.0 0 0 109.74 150.48
  L 106.08 162.76
  A 0.45 0.44 47.5 0 1 105.22 162.72
  L 102.68 150.64
  A 1.85 1.85 0.0 0 0 99.80 149.50
  C 98.31 150.54 98.12 153.20 97.77 154.62
  Q 96.08 161.45 94.48 168.06
  A 2.17 2.16 18.1 0 0 95.76 170.57
  Q 97.59 171.33 98.02 169.30
  Q 99.07 164.42 100.34 159.64"
/>
<path stroke="#d2dda8" vector-effect="non-scaling-stroke" d="
  M 145.21 162.02
  Q 144.02 156.44 142.80 150.75
  Q 142.49 149.32 141.12 149.05
  C 138.99 148.64 138.24 151.03 137.92 152.68
  Q 137.22 156.26 134.36 167.78
  Q 133.94 169.49 135.05 170.54
  A 1.86 1.86 0.0 0 0 138.14 169.60
  L 140.14 160.70
  A 0.32 0.31 -46.8 0 1 140.75 160.68
  L 143.32 169.72
  A 2.09 2.09 0.0 0 0 147.30 169.85
  L 150.82 160.01
  A 0.27 0.27 0.0 0 1 151.34 160.05
  Q 152.18 165.16 153.67 170.22
  Q 154.42 172.75 156.80 171.50
  A 1.54 1.53 -21.7 0 0 157.57 169.73
  Q 155.04 160.68 153.85 152.27
  Q 153.61 150.61 152.80 149.70
  A 1.94 1.93 -57.5 0 0 149.51 150.43
  L 145.94 162.05
  A 0.38 0.38 0.0 0 1 145.21 162.02"
/>
<path stroke="#808080" vector-effect="non-scaling-stroke" d="
  M 56.9027 170.8326
  A 7.48 6.44 101.0 0 0 64.6517 164.7188
  A 7.48 6.44 101.0 0 0 59.7573 156.1474
  A 7.48 6.44 101.0 0 0 52.0083 162.2612
  A 7.48 6.44 101.0 0 0 56.9027 170.8326"
/>
<path stroke="#808080" vector-effect="non-scaling-stroke" d="
  M 74.69 166.85
  L 71.11 167.06
  Q 70.46 167.10 70.36 166.45
  Q 69.76 162.57 70.20 158.66
  Q 70.34 157.37 70.08 156.87
  Q 69.58 155.90 68.06 156.18
  A 1.43 1.43 0.0 0 0 66.89 157.35
  C 66.04 162.33 65.51 174.10 74.89 170.39
  A 1.04 1.02 48.2 0 1 75.79 170.45
  C 76.76 171.00 78.24 171.08 78.78 169.88
  C 79.22 168.89 78.72 167.62 78.73 166.91
  Q 78.79 162.14 79.08 157.34
  Q 79.13 156.64 78.43 156.52
  L 76.42 156.15
  Q 75.57 156.00 75.54 156.86
  L 75.22 166.31
  Q 75.20 166.82 74.69 166.85"
/>
<path stroke="#808080" vector-effect="non-scaling-stroke" d="
  M 89.39 160.32
  L 89.54 161.75
  A 1.54 1.53 -41.7 0 0 92.57 161.92
  Q 93.12 159.44 92.11 157.06
  A 1.97 1.97 0.0 0 0 89.70 155.95
  L 85.12 157.39
  Q 84.62 157.54 84.47 157.04
  Q 84.26 156.28 83.31 156.08
  A 1.50 1.49 6.1 0 0 81.50 157.53
  L 81.50 169.98
  A 0.70 0.69 9.3 0 0 81.98 170.64
  C 85.89 171.88 84.80 165.49 84.69 162.73
  Q 84.66 162.06 85.24 161.73
  L 88.53 159.87
  A 0.58 0.58 0.0 0 1 89.39 160.32"
/>
<path stroke="#d2dda8" vector-effect="non-scaling-stroke" d="
  M 171.06 157.40
  C 156.16 148.98 154.29 177.34 168.34 170.07
  Q 168.78 169.85 169.21 170.10
  L 170.45 170.82
  A 1.52 1.52 0.0 0 0 172.64 168.95
  Q 170.75 164.12 171.79 158.98
  A 1.49 1.48 20.4 0 0 171.06 157.40"
/>
<path stroke="#d2dda8" vector-effect="non-scaling-stroke" d="
  M 186.59 159.79
  C 186.51 155.49 181.75 155.08 179.11 157.45
  A 0.46 0.46 0.0 0 1 178.39 157.32
  Q 177.38 155.30 175.33 156.31
  Q 174.80 156.57 174.76 157.16
  C 174.49 161.53 173.91 165.95 174.72 170.30
  Q 174.87 171.09 175.67 170.98
  L 177.60 170.71
  Q 178.23 170.63 178.27 169.99
  C 178.51 166.25 178.36 162.49 181.92 160.15
  A 0.67 0.67 0.0 0 1 182.96 160.67
  L 183.53 169.86
  A 1.05 1.05 0.0 0 0 184.21 170.78
  Q 185.97 171.45 187.23 170.29
  Q 187.62 169.92 187.53 169.39
  Q 186.69 164.61 186.59 159.79"
/>
<path stroke="#d2dda8" vector-effect="non-scaling-stroke" d="
  M 197.51 171.04
  C 196.59 174.79 192.46 174.13 189.51 173.97
  Q 189.03 173.95 188.70 174.30
  C 187.40 175.69 188.13 177.09 189.81 177.60
  C 193.62 178.76 200.32 177.87 200.80 172.75
  Q 201.44 165.93 202.28 159.07
  A 1.13 1.11 27.8 0 0 202.00 158.19
  Q 200.89 156.97 199.26 156.48
  C 185.55 152.38 184.26 174.64 196.94 170.51
  Q 197.70 170.27 197.51 171.04"
/>
<path stroke="#d2dda8" vector-effect="non-scaling-stroke" d="
  M 215.01 156.83
  C 201.59 151.56 199.02 173.36 210.78 170.92
  C 211.48 170.77 212.32 170.20 213.14 170.01
  A 1.15 1.14 57.2 0 1 214.12 170.23
  Q 215.89 171.65 217.42 170.23
  A 0.83 0.83 0.0 0 0 217.59 169.22
  Q 215.10 164.73 216.45 159.66
  A 2.39 2.39 0.0 0 0 215.01 156.83"
/>
<path stroke="#d2dda8" vector-effect="non-scaling-stroke" d="
  M 231.2841 171.0043
  A 7.65 6.58 101.2 0 0 239.2247 164.7781
  A 7.65 6.58 101.2 0 0 234.2559 155.9957
  A 7.65 6.58 101.2 0 0 226.3153 162.2219
  A 7.65 6.58 101.2 0 0 231.2841 171.0043"
/>
<path stroke="#d2dda8" vector-effect="non-scaling-stroke" d="
  M 249.09 160.52
  L 249.35 162.31
  A 0.68 0.67 88.3 0 0 249.95 162.88
  L 251.57 163.04
  Q 252.20 163.10 252.39 162.49
  Q 253.32 159.50 252.12 156.67
  A 0.78 0.76 82.5 0 0 251.51 156.19
  Q 248.38 155.72 245.53 157.05
  A 0.77 0.77 0.0 0 1 244.65 156.88
  Q 243.39 155.55 241.60 156.23
  A 0.80 0.80 0.0 0 0 241.07 156.98
  L 241.08 169.92
  Q 241.08 170.75 241.92 170.75
  L 244.09 170.75
  A 0.61 0.60 -89.0 0 0 244.69 170.16
  L 244.88 162.74
  Q 244.90 162.15 245.39 161.84
  L 248.18 160.10
  Q 248.95 159.62 249.09 160.52"
/>
<path stroke="#d2dda8" vector-effect="non-scaling-stroke" d="
  M 259.49 165.55
  L 266.68 162.34
  A 0.87 0.85 89.4 0 0 267.12 161.88
  C 268.88 157.32 263.12 155.15 259.74 156.17
  C 254.75 157.67 251.98 164.72 255.58 168.64
  C 258.67 172.00 264.55 171.74 267.84 168.57
  A 1.51 1.51 0.0 0 0 266.30 166.06
  Q 263.03 167.20 259.73 166.95
  A 0.73 0.73 0.0 0 1 259.49 165.55"
/>
<path stroke="#808080" vector-effect="non-scaling-stroke" d="
  M 126.14 163.98
  A 0.36 0.36 0.0 0 1 125.49 163.98
  Q 123.78 160.51 121.73 157.29
  Q 120.93 156.02 119.49 156.27
  A 1.55 1.55 0.0 0 0 118.41 158.55
  L 123.68 168.08
  A 1.16 1.15 -50.0 0 1 123.76 169.04
  Q 122.71 171.96 121.41 174.79
  C 120.57 176.60 121.21 178.14 123.44 177.70
  A 1.10 1.09 6.3 0 0 124.23 177.07
  Q 128.19 167.63 132.69 159.13
  Q 133.64 157.34 131.95 156.37
  A 1.64 1.63 28.5 0 0 129.67 157.04
  L 126.14 163.98"
/>
<path stroke="#808080" vector-effect="non-scaling-stroke" d="
  M 57.3789 167.0412
  A 3.63 2.95 104.7 0 0 61.1534 164.2786
  A 3.63 2.95 104.7 0 0 59.2211 160.0188
  A 3.63 2.95 104.7 0 0 55.4466 162.7814
  A 3.63 2.95 104.7 0 0 57.3789 167.0412"
/>
<path stroke="#d2dda8" vector-effect="non-scaling-stroke" d="
  M 167.52 166.10
  L 167.86 161.57
  A 1.17 1.17 0.0 0 0 166.78 160.32
  L 166.17 160.27
  A 3.43 3.27 4.3 0 0 162.50 163.27
  L 162.47 163.61
  A 3.43 3.27 4.3 0 0 165.65 167.13
  L 166.27 167.18
  A 1.17 1.17 0.0 0 0 167.52 166.10"
/>
<path stroke="#d2dda8" vector-effect="non-scaling-stroke" d="
  M 197.58 160.22
  C 193.96 159.45 191.14 161.99 192.15 165.53
  A 2.09 2.09 0.0 0 0 195.25 166.74
  Q 198.45 164.78 198.22 160.95
  Q 198.18 160.34 197.58 160.22"
/>
<path stroke="#d2dda8" vector-effect="non-scaling-stroke" d="
  M 209.28 167.14
  A 2.05 2.05 0.0 0 0 212.25 165.31
  L 212.25 160.53
  Q 212.25 160.07 211.78 160.07
  C 207.88 160.13 204.78 164.86 209.28 167.14"
/>
<path stroke="#d2dda8" vector-effect="non-scaling-stroke" d="
  M 232.0785 167.0175
  A 3.53 2.76 100.8 0 0 235.4511 164.0672
  A 3.53 2.76 100.8 0 0 233.4015 160.0825
  A 3.53 2.76 100.8 0 0 230.0289 163.0328
  A 3.53 2.76 100.8 0 0 232.0785 167.0175"
/>
<path stroke="#d2dda8" vector-effect="non-scaling-stroke" d="
  M 258.31 162.82
  L 263.52 160.62
  A 0.11 0.11 0.0 0 0 263.58 160.48
  L 263.56 160.42
  A 2.77 1.35 -22.8 0 0 260.48 160.25
  L 260.17 160.39
  A 2.77 1.35 -22.8 0 0 258.14 162.70
  L 258.16 162.76
  A 0.11 0.11 0.0 0 0 258.31 162.82"
/>
</g>
<path fill="#ffffff" d="
  M 0.00 0.00
  L 295.00 0.00
  L 295.00 180.00
  L 0.00 180.00
  L 0.00 0.00
  Z
  M 81.96 45.26
  C 87.62 45.53 93.94 53.68 95.84 58.39
  A 0.21 0.20 -63.1 0 0 96.23 58.26
  Q 95.74 56.22 96.72 54.34
  A 0.52 0.51 45.9 0 1 97.64 54.36
  L 103.95 67.52
  A 0.36 0.36 0.0 0 0 104.63 67.43
  L 105.31 63.50
  A 0.30 0.30 0.0 0 1 105.88 63.44
  Q 107.75 67.95 108.53 72.78
  Q 108.76 74.25 109.47 72.94
  C 116.96 58.88 109.29 43.32 94.07 39.91
  A 0.12 0.11 22.1 0 1 93.99 39.74
  L 94.14 39.49
  A 0.49 0.48 15.0 0 1 94.56 39.25
  L 98.27 39.25
  A 0.41 0.41 0.0 0 0 98.46 38.47
  Q 88.77 33.44 78.24 36.18
  A 0.20 0.20 0.0 0 1 78.07 35.82
  Q 84.78 30.98 93.05 32.52
  Q 93.37 32.58 93.44 32.26
  L 93.73 30.80
  Q 93.86 30.15 94.52 30.07
  C 97.97 29.65 101.43 31.31 104.58 32.43
  Q 105.46 32.75 105.01 31.92
  L 103.68 29.48
  Q 103.26 28.72 104.08 29.00
  L 110.89 31.33
  Q 111.26 31.45 111.17 31.07
  C 108.98 22.03 98.94 18.32 90.55 20.35
  Q 83.32 22.09 76.24 27.03
  Q 75.76 27.37 75.53 26.83
  C 71.70 17.39 65.43 4.39 52.30 10.85
  A 0.53 0.53 0.0 0 0 52.50 11.85
  Q 56.55 12.09 57.38 15.74
  Q 57.50 16.29 57.93 16.67
  Q 65.99 23.83 68.64 34.24
  A 0.18 0.18 0.0 0 1 68.31 34.39
  C 57.39 18.23 36.19 19.12 26.22 35.90
  A 0.50 0.50 0.0 0 0 26.86 36.61
  L 33.14 33.78
  A 0.56 0.56 0.0 0 1 33.93 34.38
  L 33.71 35.85
  Q 33.64 36.37 34.14 36.23
  L 44.70 33.42
  Q 45.64 33.17 45.38 34.10
  L 44.82 36.06
  A 0.36 0.35 87.9 0 0 45.28 36.49
  Q 53.90 33.51 61.68 38.24
  A 0.24 0.24 0.0 0 1 61.52 38.68
  Q 53.04 37.17 45.38 40.89
  A 0.35 0.35 0.0 0 0 45.46 41.55
  L 47.67 41.99
  Q 48.60 42.18 47.75 42.59
  C 35.82 48.44 33.37 63.74 43.95 72.28
  Q 44.54 72.76 44.51 72.00
  L 44.17 64.23
  A 0.29 0.29 0.0 0 1 44.71 64.06
  L 46.84 67.44
  Q 47.43 68.38 47.41 67.27
  Q 47.29 60.98 49.73 55.17
  A 0.35 0.35 0.0 0 1 50.38 55.20
  L 51.38 58.41
  A 0.26 0.25 -45.8 0 0 51.87 58.40
  Q 55.35 46.50 67.52 44.32
  A 0.21 0.21 0.0 0 1 67.74 44.64
  Q 43.58 82.30 50.88 126.52
  C 51.93 132.84 18.42 138.40 13.97 138.86
  A 1.63 1.62 59.5 0 0 13.21 141.81
  Q 14.49 142.71 16.26 142.55
  Q 39.19 140.60 58.86 129.44
  C 71.41 122.33 82.80 109.90 98.09 109.51
  Q 100.01 109.46 98.45 110.59
  C 96.82 111.77 94.70 113.23 93.47 114.80
  C 85.75 124.74 98.75 132.56 107.46 130.95
  Q 132.09 126.38 150.38 107.89
  C 166.94 91.16 189.47 62.47 217.15 72.28
  A 0.21 0.21 0.0 0 1 217.11 72.69
  C 205.37 74.78 196.63 85.48 199.81 97.66
  C 201.84 105.42 208.65 110.92 216.02 113.70
  Q 234.00 120.47 249.26 111.57
  C 272.01 98.30 271.14 62.79 244.43 54.37
  C 238.48 52.50 226.27 51.82 221.54 57.66
  A 1.20 1.19 16.4 0 0 222.60 59.60
  C 227.27 59.10 232.50 57.82 236.51 57.92
  C 251.22 58.28 262.76 71.84 260.81 86.11
  C 258.53 102.80 244.18 113.31 227.66 111.78
  C 219.80 111.05 210.45 107.21 205.98 100.27
  C 201.97 94.05 203.50 86.19 209.05 81.61
  C 214.76 76.91 222.47 77.05 229.09 80.01
  A 0.82 0.81 -76.2 0 0 230.24 79.31
  C 230.83 68.55 209.47 65.14 202.05 65.83
  C 189.58 66.99 176.28 75.30 166.94 84.44
  C 151.01 100.05 127.61 130.13 100.83 126.20
  C 96.11 125.50 94.35 121.48 96.92 117.62
  C 98.98 114.52 103.40 113.33 106.20 111.21
  Q 108.00 109.84 107.25 108.29
  C 105.63 104.95 95.76 105.05 92.96 105.68
  C 81.98 108.12 71.72 115.50 62.45 122.08
  Q 61.96 122.43 61.79 121.85
  Q 61.25 120.06 60.76 116.99
  Q 54.89 80.78 72.99 48.44
  A 0.63 0.63 0.0 0 1 74.12 48.49
  Q 78.93 59.18 73.38 69.40
  Q 72.90 70.29 73.79 69.81
  L 76.74 68.22
  A 0.68 0.68 0.0 0 1 77.68 69.09
  Q 74.77 75.71 69.54 80.67
  Q 68.77 81.40 69.82 81.27
  Q 72.55 80.92 74.89 79.54
  Q 75.63 79.11 75.16 79.83
  Q 72.59 83.79 68.60 86.36
  A 0.48 0.48 0.0 0 0 68.84 87.24
  C 85.00 88.19 95.49 73.73 89.54 58.41
  A 0.14 0.14 0.0 0 1 89.77 58.26
  L 92.78 61.45
  Q 94.16 62.92 93.46 61.02
  Q 89.98 51.54 81.86 45.55
  Q 81.43 45.23 81.96 45.26
  Z
  M 226.4024 34.9330
  A 2.29 2.29 0.0 0 0 223.7018 33.1455
  L 223.4862 33.1894
  A 2.29 2.29 0.0 0 0 221.6987 35.8900
  L 223.3176 43.8470
  A 2.29 2.29 0.0 0 0 226.0182 45.6345
  L 226.2338 45.5906
  A 2.29 2.29 0.0 0 0 228.0213 42.8900
  L 226.4024 34.9330
  Z
  M 255.9026 38.1982
  A 2.26 2.26 0.0 0 0 254.8621 35.1762
  L 254.7003 35.0973
  A 2.26 2.26 0.0 0 0 251.6783 36.1378
  L 248.0574 43.5618
  A 2.26 2.26 0.0 0 0 249.0979 46.5838
  L 249.2597 46.6627
  A 2.26 2.26 0.0 0 0 252.2817 45.6222
  L 255.9026 38.1982
  Z
  M 204.9065 54.8873
  A 2.28 2.28 0.0 0 0 204.7771 51.6655
  L 197.4574 44.9110
  A 2.28 2.28 0.0 0 0 194.2356 45.0404
  L 194.1135 45.1727
  A 2.28 2.28 0.0 0 0 194.2429 48.3945
  L 201.5626 55.1490
  A 2.28 2.28 0.0 0 0 204.7844 55.0196
  L 204.9065 54.8873
  Z
  M 281.1507 54.7620
  A 2.32 2.32 0.0 0 0 277.9875 53.8907
  L 269.0317 58.9783
  A 2.32 2.32 0.0 0 0 268.1604 62.1415
  L 268.2493 62.2980
  A 2.32 2.32 0.0 0 0 271.4125 63.1693
  L 280.3683 58.0817
  A 2.32 2.32 0.0 0 0 281.2396 54.9185
  L 281.1507 54.7620
  Z
  M 287.5185 90.4575
  A 6.05 2.52 15.9 0 0 282.3904 86.3764
  A 6.05 2.52 15.9 0 0 275.8815 87.1425
  A 6.05 2.52 15.9 0 0 281.0096 91.2236
  A 6.05 2.52 15.9 0 0 287.5185 90.4575
  Z
  M 278.0924 116.1717
  A 2.21 2.21 0.0 0 0 278.0106 113.0474
  L 270.5683 105.9849
  A 2.21 2.21 0.0 0 0 267.4439 106.0667
  L 267.3476 106.1683
  A 2.21 2.21 0.0 0 0 267.4294 109.2926
  L 274.8717 116.3551
  A 2.21 2.21 0.0 0 0 277.9961 116.2733
  L 278.0924 116.1717
  Z
  M 223.73 149.90
  A 1.91 1.91 0.0 0 0 221.82 147.99
  L 221.68 147.99
  A 1.91 1.91 0.0 0 0 219.77 149.90
  L 219.77 169.06
  A 1.91 1.91 0.0 0 0 221.68 170.97
  L 221.82 170.97
  A 1.91 1.91 0.0 0 0 223.73 169.06
  L 223.73 149.90
  Z
  M 43.00 153.00
  L 48.98 153.00
  A 2.03 2.03 0.0 0 0 50.94 151.49
  C 51.47 149.50 49.87 149.02 48.25 149.01
  Q 40.86 148.97 33.93 149.01
  A 2.08 2.07 -88.4 0 0 31.87 150.96
  C 31.70 153.84 36.63 152.91 38.37 153.12
  Q 38.96 153.20 38.99 153.79
  L 39.85 169.83
  Q 39.88 170.33 40.34 170.54
  Q 42.29 171.44 43.31 169.28
  A 0.91 0.79 59.3 0 0 43.38 168.89
  L 42.53 153.50
  Q 42.50 153.00 43.00 153.00
  Z
  M 100.34 159.64
  A 0.24 0.24 0.0 0 1 100.81 159.64
  Q 101.98 164.16 103.23 168.75
  Q 103.99 171.55 106.37 170.42
  A 2.21 2.21 0.0 0 0 107.50 169.15
  L 110.86 159.26
  A 0.33 0.33 0.0 0 1 111.49 159.31
  Q 112.35 164.63 113.73 170.00
  Q 114.13 171.55 115.34 171.88
  A 1.69 1.69 0.0 0 0 117.42 169.78
  Q 115.16 161.89 114.16 153.23
  Q 113.86 150.68 112.40 149.60
  A 1.71 1.71 0.0 0 0 109.74 150.48
  L 106.08 162.76
  A 0.45 0.44 47.5 0 1 105.22 162.72
  L 102.68 150.64
  A 1.85 1.85 0.0 0 0 99.80 149.50
  C 98.31 150.54 98.12 153.20 97.77 154.62
  Q 96.08 161.45 94.48 168.06
  A 2.17 2.16 18.1 0 0 95.76 170.57
  Q 97.59 171.33 98.02 169.30
  Q 99.07 164.42 100.34 159.64
  Z
  M 145.21 162.02
  Q 144.02 156.44 142.80 150.75
  Q 142.49 149.32 141.12 149.05
  C 138.99 148.64 138.24 151.03 137.92 152.68
  Q 137.22 156.26 134.36 167.78
  Q 133.94 169.49 135.05 170.54
  A 1.86 1.86 0.0 0 0 138.14 169.60
  L 140.14 160.70
  A 0.32 0.31 -46.8 0 1 140.75 160.68
  L 143.32 169.72
  A 2.09 2.09 0.0 0 0 147.30 169.85
  L 150.82 160.01
  A 0.27 0.27 0.0 0 1 151.34 160.05
  Q 152.18 165.16 153.67 170.22
  Q 154.42 172.75 156.80 171.50
  A 1.54 1.53 -21.7 0 0 157.57 169.73
  Q 155.04 160.68 153.85 152.27
  Q 153.61 150.61 152.80 149.70
  A 1.94 1.93 -57.5 0 0 149.51 150.43
  L 145.94 162.05
  A 0.38 0.38 0.0 0 1 145.21 162.02
  Z
  M 56.9027 170.8326
  A 7.48 6.44 101.0 0 0 64.6517 164.7188
  A 7.48 6.44 101.0 0 0 59.7573 156.1474
  A 7.48 6.44 101.0 0 0 52.0083 162.2612
  A 7.48 6.44 101.0 0 0 56.9027 170.8326
  Z
  M 74.69 166.85
  L 71.11 167.06
  Q 70.46 167.10 70.36 166.45
  Q 69.76 162.57 70.20 158.66
  Q 70.34 157.37 70.08 156.87
  Q 69.58 155.90 68.06 156.18
  A 1.43 1.43 0.0 0 0 66.89 157.35
  C 66.04 162.33 65.51 174.10 74.89 170.39
  A 1.04 1.02 48.2 0 1 75.79 170.45
  C 76.76 171.00 78.24 171.08 78.78 169.88
  C 79.22 168.89 78.72 167.62 78.73 166.91
  Q 78.79 162.14 79.08 157.34
  Q 79.13 156.64 78.43 156.52
  L 76.42 156.15
  Q 75.57 156.00 75.54 156.86
  L 75.22 166.31
  Q 75.20 166.82 74.69 166.85
  Z
  M 89.39 160.32
  L 89.54 161.75
  A 1.54 1.53 -41.7 0 0 92.57 161.92
  Q 93.12 159.44 92.11 157.06
  A 1.97 1.97 0.0 0 0 89.70 155.95
  L 85.12 157.39
  Q 84.62 157.54 84.47 157.04
  Q 84.26 156.28 83.31 156.08
  A 1.50 1.49 6.1 0 0 81.50 157.53
  L 81.50 169.98
  A 0.70 0.69 9.3 0 0 81.98 170.64
  C 85.89 171.88 84.80 165.49 84.69 162.73
  Q 84.66 162.06 85.24 161.73
  L 88.53 159.87
  A 0.58 0.58 0.0 0 1 89.39 160.32
  Z
  M 171.06 157.40
  C 156.16 148.98 154.29 177.34 168.34 170.07
  Q 168.78 169.85 169.21 170.10
  L 170.45 170.82
  A 1.52 1.52 0.0 0 0 172.64 168.95
  Q 170.75 164.12 171.79 158.98
  A 1.49 1.48 20.4 0 0 171.06 157.40
  Z
  M 186.59 159.79
  C 186.51 155.49 181.75 155.08 179.11 157.45
  A 0.46 0.46 0.0 0 1 178.39 157.32
  Q 177.38 155.30 175.33 156.31
  Q 174.80 156.57 174.76 157.16
  C 174.49 161.53 173.91 165.95 174.72 170.30
  Q 174.87 171.09 175.67 170.98
  L 177.60 170.71
  Q 178.23 170.63 178.27 169.99
  C 178.51 166.25 178.36 162.49 181.92 160.15
  A 0.67 0.67 0.0 0 1 182.96 160.67
  L 183.53 169.86
  A 1.05 1.05 0.0 0 0 184.21 170.78
  Q 185.97 171.45 187.23 170.29
  Q 187.62 169.92 187.53 169.39
  Q 186.69 164.61 186.59 159.79
  Z
  M 197.51 171.04
  C 196.59 174.79 192.46 174.13 189.51 173.97
  Q 189.03 173.95 188.70 174.30
  C 187.40 175.69 188.13 177.09 189.81 177.60
  C 193.62 178.76 200.32 177.87 200.80 172.75
  Q 201.44 165.93 202.28 159.07
  A 1.13 1.11 27.8 0 0 202.00 158.19
  Q 200.89 156.97 199.26 156.48
  C 185.55 152.38 184.26 174.64 196.94 170.51
  Q 197.70 170.27 197.51 171.04
  Z
  M 215.01 156.83
  C 201.59 151.56 199.02 173.36 210.78 170.92
  C 211.48 170.77 212.32 170.20 213.14 170.01
  A 1.15 1.14 57.2 0 1 214.12 170.23
  Q 215.89 171.65 217.42 170.23
  A 0.83 0.83 0.0 0 0 217.59 169.22
  Q 215.10 164.73 216.45 159.66
  A 2.39 2.39 0.0 0 0 215.01 156.83
  Z
  M 231.2841 171.0043
  A 7.65 6.58 101.2 0 0 239.2247 164.7781
  A 7.65 6.58 101.2 0 0 234.2559 155.9957
  A 7.65 6.58 101.2 0 0 226.3153 162.2219
  A 7.65 6.58 101.2 0 0 231.2841 171.0043
  Z
  M 249.09 160.52
  L 249.35 162.31
  A 0.68 0.67 88.3 0 0 249.95 162.88
  L 251.57 163.04
  Q 252.20 163.10 252.39 162.49
  Q 253.32 159.50 252.12 156.67
  A 0.78 0.76 82.5 0 0 251.51 156.19
  Q 248.38 155.72 245.53 157.05
  A 0.77 0.77 0.0 0 1 244.65 156.88
  Q 243.39 155.55 241.60 156.23
  A 0.80 0.80 0.0 0 0 241.07 156.98
  L 241.08 169.92
  Q 241.08 170.75 241.92 170.75
  L 244.09 170.75
  A 0.61 0.60 -89.0 0 0 244.69 170.16
  L 244.88 162.74
  Q 244.90 162.15 245.39 161.84
  L 248.18 160.10
  Q 248.95 159.62 249.09 160.52
  Z
  M 259.49 165.55
  L 266.68 162.34
  A 0.87 0.85 89.4 0 0 267.12 161.88
  C 268.88 157.32 263.12 155.15 259.74 156.17
  C 254.75 157.67 251.98 164.72 255.58 168.64
  C 258.67 172.00 264.55 171.74 267.84 168.57
  A 1.51 1.51 0.0 0 0 266.30 166.06
  Q 263.03 167.20 259.73 166.95
  A 0.73 0.73 0.0 0 1 259.49 165.55
  Z
  M 126.14 163.98
  A 0.36 0.36 0.0 0 1 125.49 163.98
  Q 123.78 160.51 121.73 157.29
  Q 120.93 156.02 119.49 156.27
  A 1.55 1.55 0.0 0 0 118.41 158.55
  L 123.68 168.08
  A 1.16 1.15 -50.0 0 1 123.76 169.04
  Q 122.71 171.96 121.41 174.79
  C 120.57 176.60 121.21 178.14 123.44 177.70
  A 1.10 1.09 6.3 0 0 124.23 177.07
  Q 128.19 167.63 132.69 159.13
  Q 133.64 157.34 131.95 156.37
  A 1.64 1.63 28.5 0 0 129.67 157.04
  L 126.14 163.98
  Z"
/>
<path fill="#000000" d="
  M 81.86 45.55
  Q 89.98 51.54 93.46 61.02
  Q 94.16 62.92 92.78 61.45
  L 89.77 58.26
  A 0.14 0.14 0.0 0 0 89.54 58.41
  C 95.49 73.73 85.00 88.19 68.84 87.24
  A 0.48 0.48 0.0 0 1 68.60 86.36
  Q 72.59 83.79 75.16 79.83
  Q 75.63 79.11 74.89 79.54
  Q 72.55 80.92 69.82 81.27
  Q 68.77 81.40 69.54 80.67
  Q 74.77 75.71 77.68 69.09
  A 0.68 0.68 0.0 0 0 76.74 68.22
  L 73.79 69.81
  Q 72.90 70.29 73.38 69.40
  Q 78.93 59.18 74.12 48.49
  A 0.63 0.63 0.0 0 0 72.99 48.44
  Q 54.89 80.78 60.76 116.99
  Q 61.25 120.06 61.79 121.85
  Q 61.96 122.43 62.45 122.08
  C 71.72 115.50 81.98 108.12 92.96 105.68
  C 95.76 105.05 105.63 104.95 107.25 108.29
  Q 108.00 109.84 106.20 111.21
  C 103.40 113.33 98.98 114.52 96.92 117.62
  C 94.35 121.48 96.11 125.50 100.83 126.20
  C 127.61 130.13 151.01 100.05 166.94 84.44
  C 176.28 75.30 189.58 66.99 202.05 65.83
  C 209.47 65.14 230.83 68.55 230.24 79.31
  A 0.82 0.81 -76.2 0 1 229.09 80.01
  C 222.47 77.05 214.76 76.91 209.05 81.61
  C 203.50 86.19 201.97 94.05 205.98 100.27
  C 210.45 107.21 219.80 111.05 227.66 111.78
  C 244.18 113.31 258.53 102.80 260.81 86.11
  C 262.76 71.84 251.22 58.28 236.51 57.92
  C 232.50 57.82 227.27 59.10 222.60 59.60
  A 1.20 1.19 16.4 0 1 221.54 57.66
  C 226.27 51.82 238.48 52.50 244.43 54.37
  C 271.14 62.79 272.01 98.30 249.26 111.57
  Q 234.00 120.47 216.02 113.70
  C 208.65 110.92 201.84 105.42 199.81 97.66
  C 196.63 85.48 205.37 74.78 217.11 72.69
  A 0.21 0.21 0.0 0 0 217.15 72.28
  C 189.47 62.47 166.94 91.16 150.38 107.89
  Q 132.09 126.38 107.46 130.95
  C 98.75 132.56 85.75 124.74 93.47 114.80
  C 94.70 113.23 96.82 111.77 98.45 110.59
  Q 100.01 109.46 98.09 109.51
  C 82.80 109.90 71.41 122.33 58.86 129.44
  Q 39.19 140.60 16.26 142.55
  Q 14.49 142.71 13.21 141.81
  A 1.63 1.62 59.5 0 1 13.97 138.86
  C 18.42 138.40 51.93 132.84 50.88 126.52
  Q 43.58 82.30 67.74 44.64
  A 0.21 0.21 0.0 0 0 67.52 44.32
  Q 55.35 46.50 51.87 58.40
  A 0.26 0.25 -45.8 0 1 51.38 58.41
  L 50.38 55.20
  A 0.35 0.35 0.0 0 0 49.73 55.17
  Q 47.29 60.98 47.41 67.27
  Q 47.43 68.38 46.84 67.44
  L 44.71 64.06
  A 0.29 0.29 0.0 0 0 44.17 64.23
  L 44.51 72.00
  Q 44.54 72.76 43.95 72.28
  C 33.37 63.74 35.82 48.44 47.75 42.59
  Q 48.60 42.18 47.67 41.99
  L 45.46 41.55
  A 0.35 0.35 0.0 0 1 45.38 40.89
  Q 53.04 37.17 61.52 38.68
  A 0.24 0.24 0.0 0 0 61.68 38.24
  Q 53.90 33.51 45.28 36.49
  A 0.36 0.35 87.9 0 1 44.82 36.06
  L 45.38 34.10
  Q 45.64 33.17 44.70 33.42
  L 34.14 36.23
  Q 33.64 36.37 33.71 35.85
  L 33.93 34.38
  A 0.56 0.56 0.0 0 0 33.14 33.78
  L 26.86 36.61
  A 0.50 0.50 0.0 0 1 26.22 35.90
  C 36.19 19.12 57.39 18.23 68.31 34.39
  A 0.18 0.18 0.0 0 0 68.64 34.24
  Q 65.99 23.83 57.93 16.67
  Q 57.50 16.29 57.38 15.74
  Q 56.55 12.09 52.50 11.85
  A 0.53 0.53 0.0 0 1 52.30 10.85
  C 65.43 4.39 71.70 17.39 75.53 26.83
  Q 75.76 27.37 76.24 27.03
  Q 83.32 22.09 90.55 20.35
  C 98.94 18.32 108.98 22.03 111.17 31.07
  Q 111.26 31.45 110.89 31.33
  L 104.08 29.00
  Q 103.26 28.72 103.68 29.48
  L 105.01 31.92
  Q 105.46 32.75 104.58 32.43
  C 101.43 31.31 97.97 29.65 94.52 30.07
  Q 93.86 30.15 93.73 30.80
  L 93.44 32.26
  Q 93.37 32.58 93.05 32.52
  Q 84.78 30.98 78.07 35.82
  A 0.20 0.20 0.0 0 0 78.24 36.18
  Q 88.77 33.44 98.46 38.47
  A 0.41 0.41 0.0 0 1 98.27 39.25
  L 94.56 39.25
  A 0.49 0.48 15.0 0 0 94.14 39.49
  L 93.99 39.74
  A 0.12 0.11 22.1 0 0 94.07 39.91
  C 109.29 43.32 116.96 58.88 109.47 72.94
  Q 108.76 74.25 108.53 72.78
  Q 107.75 67.95 105.88 63.44
  A 0.30 0.30 0.0 0 0 105.31 63.50
  L 104.63 67.43
  A 0.36 0.36 0.0 0 1 103.95 67.52
  L 97.64 54.36
  A 0.52 0.51 45.9 0 0 96.72 54.34
  Q 95.74 56.22 96.23 58.26
  A 0.21 0.20 -63.1 0 1 95.84 58.39
  C 93.94 53.68 87.62 45.53 81.96 45.26
  Q 81.43 45.23 81.86 45.55
  Z"
/>
<rect fill="#000000" x="-2.40" y="-6.35" transform="translate(224.86,39.39) rotate(-11.5)" width="4.80" height="12.70" rx="2.29"/>
<rect fill="#000000" x="-2.35" y="-6.39" transform="translate(251.98,40.88) rotate(26.0)" width="4.70" height="12.78" rx="2.26"/>
<rect fill="#000000" x="-7.26" y="-2.37" transform="translate(199.51,50.03) rotate(42.7)" width="14.52" height="4.74" rx="2.28"/>
<rect fill="#000000" x="-7.47" y="-2.41" transform="translate(274.70,58.53) rotate(-29.6)" width="14.94" height="4.82" rx="2.32"/>
<ellipse fill="#000000" cx="0.00" cy="0.00" transform="translate(281.70,88.80) rotate(15.9)" rx="6.05" ry="2.52"/>
<rect fill="#000000" x="-7.34" y="-2.28" transform="translate(272.72,111.17) rotate(43.5)" width="14.68" height="4.56" rx="2.21"/>
<rect fill="#a4ba51" x="219.77" y="147.99" width="3.96" height="22.98" rx="1.91"/>
<path fill="#000000" d="
  M 42.53 153.50
  L 43.38 168.89
  A 0.91 0.79 59.3 0 1 43.31 169.28
  Q 42.29 171.44 40.34 170.54
  Q 39.88 170.33 39.85 169.83
  L 38.99 153.79
  Q 38.96 153.20 38.37 153.12
  C 36.63 152.91 31.70 153.84 31.87 150.96
  A 2.08 2.07 -88.4 0 1 33.93 149.01
  Q 40.86 148.97 48.25 149.01
  C 49.87 149.02 51.47 149.50 50.94 151.49
  A 2.03 2.03 0.0 0 1 48.98 153.00
  L 43.00 153.00
  Q 42.50 153.00 42.53 153.50
  Z"
/>
<path fill="#000000" d="
  M 100.34 159.64
  Q 99.07 164.42 98.02 169.30
  Q 97.59 171.33 95.76 170.57
  A 2.17 2.16 18.1 0 1 94.48 168.06
  Q 96.08 161.45 97.77 154.62
  C 98.12 153.20 98.31 150.54 99.80 149.50
  A 1.85 1.85 0.0 0 1 102.68 150.64
  L 105.22 162.72
  A 0.45 0.44 47.5 0 0 106.08 162.76
  L 109.74 150.48
  A 1.71 1.71 0.0 0 1 112.40 149.60
  Q 113.86 150.68 114.16 153.23
  Q 115.16 161.89 117.42 169.78
  A 1.69 1.69 0.0 0 1 115.34 171.88
  Q 114.13 171.55 113.73 170.00
  Q 112.35 164.63 111.49 159.31
  A 0.33 0.33 0.0 0 0 110.86 159.26
  L 107.50 169.15
  A 2.21 2.21 0.0 0 1 106.37 170.42
  Q 103.99 171.55 103.23 168.75
  Q 101.98 164.16 100.81 159.64
  A 0.24 0.24 0.0 0 0 100.34 159.64
  Z"
/>
<path fill="#a4ba51" d="
  M 145.21 162.02
  A 0.38 0.38 0.0 0 0 145.94 162.05
  L 149.51 150.43
  A 1.94 1.93 -57.5 0 1 152.80 149.70
  Q 153.61 150.61 153.85 152.27
  Q 155.04 160.68 157.57 169.73
  A 1.54 1.53 -21.7 0 1 156.80 171.50
  Q 154.42 172.75 153.67 170.22
  Q 152.18 165.16 151.34 160.05
  A 0.27 0.27 0.0 0 0 150.82 160.01
  L 147.30 169.85
  A 2.09 2.09 0.0 0 1 143.32 169.72
  L 140.75 160.68
  A 0.32 0.31 -46.8 0 0 140.14 160.70
  L 138.14 169.60
  A 1.86 1.86 0.0 0 1 135.05 170.54
  Q 133.94 169.49 134.36 167.78
  Q 137.22 156.26 137.92 152.68
  C 138.24 151.03 138.99 148.64 141.12 149.05
  Q 142.49 149.32 142.80 150.75
  Q 144.02 156.44 145.21 162.02
  Z"
/>
<path fill="#000000" d="
  M 56.9027 170.8326
  A 7.48 6.44 101.0 0 1 52.0083 162.2612
  A 7.48 6.44 101.0 0 1 59.7573 156.1474
  A 7.48 6.44 101.0 0 1 64.6517 164.7188
  A 7.48 6.44 101.0 0 1 56.9027 170.8326
  Z
  M 57.3789 167.0412
  A 3.63 2.95 104.7 0 0 61.1534 164.2786
  A 3.63 2.95 104.7 0 0 59.2211 160.0188
  A 3.63 2.95 104.7 0 0 55.4466 162.7814
  A 3.63 2.95 104.7 0 0 57.3789 167.0412
  Z"
/>
<path fill="#000000" d="
  M 75.22 166.31
  L 75.54 156.86
  Q 75.57 156.00 76.42 156.15
  L 78.43 156.52
  Q 79.13 156.64 79.08 157.34
  Q 78.79 162.14 78.73 166.91
  C 78.72 167.62 79.22 168.89 78.78 169.88
  C 78.24 171.08 76.76 171.00 75.79 170.45
  A 1.04 1.02 48.2 0 0 74.89 170.39
  C 65.51 174.10 66.04 162.33 66.89 157.35
  A 1.43 1.43 0.0 0 1 68.06 156.18
  Q 69.58 155.90 70.08 156.87
  Q 70.34 157.37 70.20 158.66
  Q 69.76 162.57 70.36 166.45
  Q 70.46 167.10 71.11 167.06
  L 74.69 166.85
  Q 75.20 166.82 75.22 166.31
  Z"
/>
<path fill="#000000" d="
  M 88.53 159.87
  L 85.24 161.73
  Q 84.66 162.06 84.69 162.73
  C 84.80 165.49 85.89 171.88 81.98 170.64
  A 0.70 0.69 9.3 0 1 81.50 169.98
  L 81.50 157.53
  A 1.50 1.49 6.1 0 1 83.31 156.08
  Q 84.26 156.28 84.47 157.04
  Q 84.62 157.54 85.12 157.39
  L 89.70 155.95
  A 1.97 1.97 0.0 0 1 92.11 157.06
  Q 93.12 159.44 92.57 161.92
  A 1.54 1.53 -41.7 0 1 89.54 161.75
  L 89.39 160.32
  A 0.58 0.58 0.0 0 0 88.53 159.87
  Z"
/>
<path fill="#a4ba51" d="
  M 171.06 157.40
  A 1.49 1.48 20.4 0 1 171.79 158.98
  Q 170.75 164.12 172.64 168.95
  A 1.52 1.52 0.0 0 1 170.45 170.82
  L 169.21 170.10
  Q 168.78 169.85 168.34 170.07
  C 154.29 177.34 156.16 148.98 171.06 157.40
  Z
  M 167.52 166.10
  L 167.86 161.57
  A 1.17 1.17 0.0 0 0 166.78 160.32
  L 166.17 160.27
  A 3.43 3.27 4.3 0 0 162.50 163.27
  L 162.47 163.61
  A 3.43 3.27 4.3 0 0 165.65 167.13
  L 166.27 167.18
  A 1.17 1.17 0.0 0 0 167.52 166.10
  Z"
/>
<path fill="#a4ba51" d="
  M 179.11 157.45
  C 181.75 155.08 186.51 155.49 186.59 159.79
  Q 186.69 164.61 187.53 169.39
  Q 187.62 169.92 187.23 170.29
  Q 185.97 171.45 184.21 170.78
  A 1.05 1.05 0.0 0 1 183.53 169.86
  L 182.96 160.67
  A 0.67 0.67 0.0 0 0 181.92 160.15
  C 178.36 162.49 178.51 166.25 178.27 169.99
  Q 178.23 170.63 177.60 170.71
  L 175.67 170.98
  Q 174.87 171.09 174.72 170.30
  C 173.91 165.95 174.49 161.53 174.76 157.16
  Q 174.80 156.57 175.33 156.31
  Q 177.38 155.30 178.39 157.32
  A 0.46 0.46 0.0 0 0 179.11 157.45
  Z"
/>
<path fill="#a4ba51" d="
  M 196.94 170.51
  C 184.26 174.64 185.55 152.38 199.26 156.48
  Q 200.89 156.97 202.00 158.19
  A 1.13 1.11 27.8 0 1 202.28 159.07
  Q 201.44 165.93 200.80 172.75
  C 200.32 177.87 193.62 178.76 189.81 177.60
  C 188.13 177.09 187.40 175.69 188.70 174.30
  Q 189.03 173.95 189.51 173.97
  C 192.46 174.13 196.59 174.79 197.51 171.04
  Q 197.70 170.27 196.94 170.51
  Z
  M 197.58 160.22
  C 193.96 159.45 191.14 161.99 192.15 165.53
  A 2.09 2.09 0.0 0 0 195.25 166.74
  Q 198.45 164.78 198.22 160.95
  Q 198.18 160.34 197.58 160.22
  Z"
/>
<path fill="#a4ba51" d="
  M 215.01 156.83
  A 2.39 2.39 0.0 0 1 216.45 159.66
  Q 215.10 164.73 217.59 169.22
  A 0.83 0.83 0.0 0 1 217.42 170.23
  Q 215.89 171.65 214.12 170.23
  A 1.15 1.14 57.2 0 0 213.14 170.01
  C 212.32 170.20 211.48 170.77 210.78 170.92
  C 199.02 173.36 201.59 151.56 215.01 156.83
  Z
  M 209.28 167.14
  A 2.05 2.05 0.0 0 0 212.25 165.31
  L 212.25 160.53
  Q 212.25 160.07 211.78 160.07
  C 207.88 160.13 204.78 164.86 209.28 167.14
  Z"
/>
<path fill="#a4ba51" d="
  M 231.2841 171.0043
  A 7.65 6.58 101.2 0 1 226.3153 162.2219
  A 7.65 6.58 101.2 0 1 234.2559 155.9957
  A 7.65 6.58 101.2 0 1 239.2247 164.7781
  A 7.65 6.58 101.2 0 1 231.2841 171.0043
  Z
  M 232.0785 167.0175
  A 3.53 2.76 100.8 0 0 235.4511 164.0672
  A 3.53 2.76 100.8 0 0 233.4015 160.0825
  A 3.53 2.76 100.8 0 0 230.0289 163.0328
  A 3.53 2.76 100.8 0 0 232.0785 167.0175
  Z"
/>
<path fill="#a4ba51" d="
  M 248.18 160.10
  L 245.39 161.84
  Q 244.90 162.15 244.88 162.74
  L 244.69 170.16
  A 0.61 0.60 -89.0 0 1 244.09 170.75
  L 241.92 170.75
  Q 241.08 170.75 241.08 169.92
  L 241.07 156.98
  A 0.80 0.80 0.0 0 1 241.60 156.23
  Q 243.39 155.55 244.65 156.88
  A 0.77 0.77 0.0 0 0 245.53 157.05
  Q 248.38 155.72 251.51 156.19
  A 0.78 0.76 82.5 0 1 252.12 156.67
  Q 253.32 159.50 252.39 162.49
  Q 252.20 163.10 251.57 163.04
  L 249.95 162.88
  A 0.68 0.67 88.3 0 1 249.35 162.31
  L 249.09 160.52
  Q 248.95 159.62 248.18 160.10
  Z"
/>
<path fill="#a4ba51" d="
  M 259.49 165.55
  A 0.73 0.73 0.0 0 0 259.73 166.95
  Q 263.03 167.20 266.30 166.06
  A 1.51 1.51 0.0 0 1 267.84 168.57
  C 264.55 171.74 258.67 172.00 255.58 168.64
  C 251.98 164.72 254.75 157.67 259.74 156.17
  C 263.12 155.15 268.88 157.32 267.12 161.88
  A 0.87 0.85 89.4 0 1 266.68 162.34
  L 259.49 165.55
  Z
  M 258.31 162.82
  L 263.52 160.62
  A 0.11 0.11 0.0 0 0 263.58 160.48
  L 263.56 160.42
  A 2.77 1.35 -22.8 0 0 260.48 160.25
  L 260.17 160.39
  A 2.77 1.35 -22.8 0 0 258.14 162.70
  L 258.16 162.76
  A 0.11 0.11 0.0 0 0 258.31 162.82
  Z"
/>
<path fill="#000000" d="
  M 126.14 163.98
  L 129.67 157.04
  A 1.64 1.63 28.5 0 1 131.95 156.37
  Q 133.64 157.34 132.69 159.13
  Q 128.19 167.63 124.23 177.07
  A 1.10 1.09 6.3 0 1 123.44 177.70
  C 121.21 178.14 120.57 176.60 121.41 174.79
  Q 122.71 171.96 123.76 169.04
  A 1.16 1.15 -50.0 0 0 123.68 168.08
  L 118.41 158.55
  A 1.55 1.55 0.0 0 1 119.49 156.27
  Q 120.93 156.02 121.73 157.29
  Q 123.78 160.51 125.49 163.98
  A 0.36 0.36 0.0 0 0 126.14 163.98
  Z"
/>
<ellipse fill="#ffffff" cx="0.00" cy="0.00" transform="translate(58.30,163.53) rotate(104.7)" rx="3.63" ry="2.95"/>
<path fill="#ffffff" d="
  M 167.52 166.10
  A 1.17 1.17 0.0 0 1 166.27 167.18
  L 165.65 167.13
  A 3.43 3.27 4.3 0 1 162.47 163.61
  L 162.50 163.27
  A 3.43 3.27 4.3 0 1 166.17 160.27
  L 166.78 160.32
  A 1.17 1.17 0.0 0 1 167.86 161.57
  L 167.52 166.10
  Z"
/>
<path fill="#ffffff" d="
  M 198.22 160.95
  Q 198.45 164.78 195.25 166.74
  A 2.09 2.09 0.0 0 1 192.15 165.53
  C 191.14 161.99 193.96 159.45 197.58 160.22
  Q 198.18 160.34 198.22 160.95
  Z"
/>
<path fill="#ffffff" d="
  M 209.28 167.14
  C 204.78 164.86 207.88 160.13 211.78 160.07
  Q 212.25 160.07 212.25 160.53
  L 212.25 165.31
  A 2.05 2.05 0.0 0 1 209.28 167.14
  Z"
/>
<ellipse fill="#ffffff" cx="0.00" cy="0.00" transform="translate(232.74,163.55) rotate(100.8)" rx="3.53" ry="2.76"/>
<path fill="#ffffff" d="
  M 258.31 162.82
  A 0.11 0.11 0.0 0 1 258.16 162.76
  L 258.14 162.70
  A 2.77 1.35 -22.8 0 1 260.17 160.39
  L 260.48 160.25
  A 2.77 1.35 -22.8 0 1 263.56 160.42
  L 263.58 160.48
  A 0.11 0.11 0.0 0 1 263.52 160.62
  L 258.31 162.82
  Z"
/>
</svg>
