<?xml version="1.0" encoding="UTF-8" standalone="no"?>
<!DOCTYPE svg PUBLIC "-//W3C//DTD SVG 1.1//EN" "http://www.w3.org/Graphics/SVG/1.1/DTD/svg11.dtd">
<svg xmlns="http://www.w3.org/2000/svg" version="1.1" viewBox="0.00 0.00 370.00 90.00">
<g stroke-width="2.00" fill="none" stroke-linecap="butt">
<path stroke="#e8ccae" vector-effect="non-scaling-stroke" d="
  M 47.07 26.14
  L 46.94 49.04
  Q 46.94 49.49 46.55 49.74
  L 46.22 49.94"
/>
<path stroke="#ffe48f" vector-effect="non-scaling-stroke" d="
  M 46.22 49.94
  C 36.87 50.44 30.37 58.59 29.86 67.59
  Q 29.83 68.12 30.37 68.12
  L 47.03 68.08"
/>
<path stroke="#e8ccae" vector-effect="non-scaling-stroke" d="
  M 47.03 68.08
  L 49.03 68.07"
/>
<path stroke="#ffe48f" vector-effect="non-scaling-stroke" d="
  M 49.03 68.07
  L 65.07 68.06
  Q 65.59 68.06 65.66 67.55
  C 66.87 59.16 57.68 50.37 49.52 49.93"
/>
<path stroke="#e8ccae" vector-effect="non-scaling-stroke" d="
  M 49.52 49.93
  L 49.21 49.72
  Q 48.93 49.53 48.93 49.20
  L 48.58 26.08"
/>
<path stroke="#d1dea3" vector-effect="non-scaling-stroke" d="
  M 48.58 26.08
  L 56.92 34.22
  Q 57.41 34.70 57.61 34.05
  C 58.73 30.44 54.39 26.69 51.50 24.62
  A 0.18 0.17 -21.2 0 1 51.64 24.31
  Q 54.95 24.96 58.34 25.10
  C 60.48 25.19 63.20 24.45 65.56 24.80
  A 0.99 0.99 0.0 0 0 66.31 23.04
  Q 59.83 18.08 51.89 21.06
  Q 50.38 21.63 51.54 20.51
  L 61.35 11.07
  A 0.60 0.59 27.2 0 0 61.02 10.06
  C 54.86 9.15 49.80 14.39 48.17 19.84
  Q 47.96 20.57 47.69 19.86
  C 45.59 14.18 41.01 9.56 34.95 10.03
  A 0.71 0.71 0.0 0 0 34.51 11.24
  L 44.48 20.99
  A 0.13 0.13 0.0 0 1 44.34 21.21
  C 39.61 19.18 32.19 18.99 29.09 24.03
  Q 28.61 24.81 29.52 24.80
  L 43.52 24.72
  Q 43.87 24.72 43.59 24.93
  C 40.65 27.12 37.96 29.68 37.95 33.63
  A 0.62 0.62 0.0 0 0 39.00 34.07
  L 47.07 26.14"
/>
<path stroke="#b9aa51" vector-effect="non-scaling-stroke" d="
  M 48.58 26.08
  Q 47.81 25.85 47.07 26.14"
/>
<path stroke="#e8b13e" vector-effect="non-scaling-stroke" d="
  M 49.52 49.93
  Q 48.65 50.09 48.66 50.56
  Q 48.84 58.62 48.72 66.69
  Q 48.72 66.91 48.56 67.06
  L 48.32 67.30
  Q 48.04 67.58 48.42 67.67
  Q 48.92 67.79 49.03 68.07"
/>
<path stroke="#e8b13e" vector-effect="non-scaling-stroke" d="
  M 47.03 68.08
  L 47.05 50.53
  A 0.56 0.55 5.4 0 0 46.58 49.97
  Q 46.42 49.94 46.22 49.94"
/>
<path stroke="#e8ccae" vector-effect="non-scaling-stroke" d="
  M 21.40 43.31
  L 21.51 67.78
  A 0.45 0.45 0.0 0 0 22.28 68.09
  L 22.51 67.86
  Q 22.74 67.63 22.75 67.31
  L 23.23 43.51"
/>
<path stroke="#d1dea3" vector-effect="non-scaling-stroke" d="
  M 23.23 43.51
  Q 24.23 43.37 23.97 44.01
  Q 27.06 48.37 31.23 51.69
  Q 31.64 52.02 31.71 51.50
  C 32.33 47.21 29.47 44.61 26.13 42.65
  Q 25.28 42.16 26.26 42.16
  L 40.25 42.25
  A 0.63 0.62 -15.8 0 0 40.79 41.30
  C 37.80 36.59 30.25 36.71 25.76 38.62
  A 0.18 0.18 0.0 0 1 25.56 38.33
  L 35.12 28.71
  Q 35.91 27.91 34.83 27.63
  C 29.27 26.18 23.91 32.76 22.40 37.34
  Q 22.17 38.01 21.93 37.34
  C 20.09 32.27 14.68 26.27 8.69 27.64
  Q 7.99 27.80 8.50 28.31
  L 18.35 38.18
  A 0.25 0.25 0.0 0 1 18.08 38.58
  Q 9.78 35.19 3.48 40.93
  A 0.76 0.76 0.0 0 0 4.00 42.25
  L 17.76 42.18
  Q 18.82 42.18 17.88 42.68
  Q 12.86 45.35 12.18 51.03
  A 0.62 0.62 0.0 0 0 13.24 51.54
  L 21.40 43.31"
/>
<path stroke="#b9aa51" vector-effect="non-scaling-stroke" d="
  M 23.23 43.51
  Q 23.43 42.75 22.82 42.67
  Q 21.79 42.53 21.40 43.31"
/>
<path stroke="#e8ccae" vector-effect="non-scaling-stroke" d="
  M 72.75 43.37
  L 72.83 67.29
  Q 72.84 67.74 73.22 67.96
  L 73.60 68.19
  A 0.46 0.45 -74.2 0 0 74.29 67.80
  L 74.44 43.23"
/>
<path stroke="#d1dea3" vector-effect="non-scaling-stroke" d="
  M 74.44 43.23
  L 82.93 51.78
  A 0.42 0.41 21.1 0 0 83.64 51.47
  Q 83.31 45.31 77.67 42.78
  A 0.32 0.31 -32.3 0 1 77.81 42.18
  L 92.00 42.28
  A 0.60 0.60 0.0 0 0 92.49 41.32
  C 89.08 36.57 83.86 36.82 78.78 37.87
  A 0.41 0.41 0.0 0 1 78.40 37.18
  L 87.18 28.22
  A 0.49 0.49 0.0 0 0 86.85 27.39
  C 80.16 27.26 76.34 31.32 73.95 37.16
  Q 73.65 37.90 73.38 37.15
  C 71.67 32.40 66.20 26.33 60.45 27.62
  Q 59.77 27.77 60.26 28.27
  L 69.64 37.85
  A 0.30 0.29 76.7 0 1 69.34 38.34
  C 64.45 36.77 57.98 36.74 54.65 41.49
  A 0.52 0.52 0.0 0 0 55.09 42.31
  L 69.24 42.05
  A 0.39 0.38 31.3 0 1 69.42 42.78
  Q 64.38 45.26 63.61 50.81
  A 0.74 0.74 0.0 0 0 64.88 51.42
  L 72.75 43.37"
/>
<path stroke="#b9aa51" vector-effect="non-scaling-stroke" d="
  M 74.44 43.23
  Q 72.98 41.61 72.75 43.37"
/>
<path stroke="#d1dea3" vector-effect="non-scaling-stroke" d="
  M 313.97 36.17
  A 2.17 2.17 0.0 0 0 311.80 34.00
  L 311.68 34.00
  A 2.17 2.17 0.0 0 0 309.51 36.17
  L 309.51 57.35
  A 2.17 2.17 0.0 0 0 311.68 59.52
  L 311.80 59.52
  A 2.17 2.17 0.0 0 0 313.97 57.35
  L 313.97 36.17"
/>
<path stroke="#808080" vector-effect="non-scaling-stroke" d="
  M 172.24 47.74
  A 0.24 0.24 0.0 0 1 172.70 47.74
  L 175.64 58.22
  A 2.37 2.37 0.0 0 0 180.16 58.38
  L 184.26 46.99
  A 0.28 0.28 0.0 0 1 184.80 47.03
  Q 185.68 52.09 187.03 57.24
  C 188.19 61.61 192.81 61.02 191.48 56.51
  Q 188.88 47.66 187.75 38.50
  Q 187.57 37.04 186.21 35.65
  A 1.15 1.14 71.9 0 0 185.59 35.33
  Q 183.01 34.92 182.54 36.80
  Q 180.82 43.70 178.50 50.24
  A 0.35 0.35 0.0 0 1 177.83 50.19
  L 175.05 37.28
  A 2.31 2.31 0.0 0 0 172.31 35.51
  Q 169.99 36.02 169.39 39.03
  Q 167.73 47.46 165.56 55.76
  C 164.38 60.29 169.30 61.44 169.90 57.92
  Q 170.77 52.72 172.24 47.74"
/>
<path stroke="#d1dea3" vector-effect="non-scaling-stroke" d="
  M 223.60 49.96
  L 220.80 37.24
  A 2.54 2.46 -12.8 0 0 217.75 35.38
  Q 217.06 35.55 216.33 36.44
  Q 215.84 37.04 215.61 38.01
  Q 213.54 46.91 211.27 55.75
  Q 210.48 58.85 212.49 59.77
  A 2.15 2.15 0.0 0 0 215.49 58.29
  L 217.79 48.07
  A 0.43 0.42 -44.8 0 1 218.62 48.07
  Q 219.67 53.04 221.60 58.01
  C 222.61 60.58 225.45 59.71 226.20 57.69
  Q 228.21 52.27 230.01 46.96
  A 0.30 0.30 0.0 0 1 230.60 47.01
  C 230.96 49.42 232.14 60.37 235.55 60.24
  Q 236.55 60.19 237.01 59.68
  A 2.47 2.47 0.0 0 0 237.52 57.36
  Q 234.83 48.34 233.65 39.32
  Q 233.40 37.34 232.26 35.85
  Q 231.98 35.48 231.53 35.38
  Q 228.75 34.73 228.17 36.97
  Q 225.92 45.62 224.35 50.01
  Q 223.89 51.29 223.60 49.96"
/>
<path stroke="#808080" vector-effect="non-scaling-stroke" d="
  M 106.27 39.94
  L 113.23 40.31
  A 1.79 1.75 29.4 0 0 114.24 40.04
  Q 115.40 39.31 115.28 37.90
  A 2.05 2.05 0.0 0 0 113.29 36.02
  L 94.97 35.52
  Q 94.43 35.50 94.02 35.86
  Q 92.61 37.09 93.70 38.93
  A 0.98 0.97 77.6 0 0 94.44 39.41
  L 100.89 40.17
  Q 101.32 40.22 101.34 40.65
  L 102.36 57.29
  A 1.87 1.86 67.1 0 0 105.48 58.56
  Q 106.95 57.23 106.69 54.48
  Q 106.05 47.52 105.70 40.51
  Q 105.67 39.91 106.27 39.94"
/>
<path stroke="#d1dea3" vector-effect="non-scaling-stroke" d="
  M 261.58 43.80
  Q 261.09 41.19 258.50 42.28
  A 1.46 1.46 0.0 0 0 257.61 43.56
  Q 257.32 50.00 256.99 56.48
  Q 256.83 59.56 259.90 59.74
  A 1.68 1.67 86.3 0 0 261.64 57.76
  Q 260.43 51.22 265.05 46.86
  A 1.34 1.34 0.0 0 1 267.31 47.93
  Q 266.96 53.31 267.79 58.49
  A 1.67 1.67 0.0 0 0 268.78 59.75
  C 271.36 60.87 272.13 58.93 271.93 56.76
  C 271.61 53.45 271.91 47.16 270.51 44.54
  C 268.72 41.20 264.93 42.10 262.38 44.11
  Q 261.73 44.62 261.58 43.80"
/>
<path stroke="#808080" vector-effect="non-scaling-stroke" d="
  M 137.58 54.97
  L 137.63 43.49
  A 0.41 0.41 0.0 0 0 137.51 43.20
  Q 136.18 41.90 134.28 42.73
  Q 133.90 42.90 133.81 43.31
  C 132.59 49.13 131.61 63.49 142.89 59.15
  Q 143.36 58.97 143.70 59.35
  Q 145.18 60.97 146.98 59.58
  Q 147.41 59.26 147.42 58.72
  L 147.71 44.13
  Q 147.72 43.61 147.35 43.26
  Q 145.98 41.96 143.99 42.96
  Q 143.52 43.20 143.51 43.73
  L 143.14 54.77
  Q 143.12 55.41 142.48 55.44
  L 138.29 55.64
  Q 137.58 55.68 137.58 54.97"
/>
<path stroke="#d1dea3" vector-effect="non-scaling-stroke" d="
  M 338.48 44.07
  Q 337.60 42.55 335.83 43.08
  A 1.85 1.84 82.0 0 0 334.52 44.82
  Q 334.46 51.04 334.51 57.28
  C 334.53 59.00 335.03 60.23 337.00 59.95
  A 2.05 2.04 85.7 0 0 338.76 57.90
  C 338.70 53.35 337.30 48.50 342.85 46.67
  A 0.58 0.57 74.4 0 1 343.59 47.09
  L 344.08 49.31
  A 0.78 0.75 1.5 0 0 344.64 49.88
  C 349.56 51.16 350.18 38.46 339.21 44.29
  Q 338.74 44.54 338.48 44.07"
/>
<path stroke="#808080" vector-effect="non-scaling-stroke" d="
  M 121.7279 59.7626
  A 8.60 7.52 102.3 0 0 130.9074 52.9620
  A 8.60 7.52 102.3 0 0 125.3921 42.9574
  A 8.60 7.52 102.3 0 0 116.2126 49.7580
  A 8.60 7.52 102.3 0 0 121.7279 59.7626"
/>
<path stroke="#808080" vector-effect="non-scaling-stroke" d="
  M 153.96 44.08
  Q 153.10 42.35 150.96 43.15
  A 1.36 1.35 -10.3 0 0 150.07 44.42
  L 150.05 58.53
  Q 150.05 59.14 150.56 59.48
  Q 152.08 60.48 153.47 59.43
  A 1.92 1.92 0.0 0 0 154.23 57.94
  C 154.33 53.46 152.67 48.09 158.67 46.62
  Q 159.10 46.51 159.17 46.95
  L 159.51 49.00
  Q 159.60 49.53 160.08 49.78
  C 164.26 51.90 163.68 45.13 162.33 43.28
  A 1.22 1.19 -13.8 0 0 161.52 42.80
  Q 157.82 42.27 154.80 44.30
  Q 154.26 44.67 153.96 44.08"
/>
<path stroke="#808080" vector-effect="non-scaling-stroke" d="
  M 200.97 51.76
  Q 199.02 48.05 196.79 44.50
  C 195.79 42.91 194.18 42.04 192.84 43.86
  A 1.91 1.90 48.8 0 0 192.71 45.91
  L 198.77 56.88
  Q 199.01 57.33 198.80 57.79
  C 197.81 60.00 193.56 67.16 197.73 68.00
  A 1.67 1.67 0.0 0 0 199.59 67.01
  Q 204.01 56.40 209.01 46.55
  C 209.74 45.11 209.85 43.81 208.27 43.03
  A 2.16 2.16 0.0 0 0 205.36 44.03
  L 201.66 51.75
  Q 201.33 52.44 200.97 51.76"
/>
<path stroke="#d1dea3" vector-effect="non-scaling-stroke" d="
  M 253.51 44.38
  C 247.80 40.87 240.82 43.62 239.39 49.94
  C 237.74 57.23 243.31 61.96 250.60 58.65
  Q 251.12 58.41 251.46 58.85
  Q 252.06 59.61 252.99 59.91
  A 1.75 1.75 0.0 0 0 255.14 57.53
  Q 252.68 52.08 254.25 46.21
  Q 254.56 45.02 253.51 44.38"
/>
<path stroke="#d1dea3" vector-effect="non-scaling-stroke" d="
  M 290.93 49.85
  C 288.91 57.08 295.43 62.27 302.10 58.60
  Q 302.55 58.36 302.87 58.74
  C 304.64 60.84 307.67 59.98 306.43 56.96
  C 305.04 53.55 304.80 50.29 305.79 46.73
  C 307.20 41.68 293.47 40.77 290.93 49.85"
/>
<path stroke="#d1dea3" vector-effect="non-scaling-stroke" d="
  M 322.6403 59.7658
  A 8.62 7.52 102.8 0 0 331.8831 53.0260
  A 8.62 7.52 102.8 0 0 326.4597 42.9542
  A 8.62 7.52 102.8 0 0 317.2169 49.6940
  A 8.62 7.52 102.8 0 0 322.6403 59.7658"
/>
<path stroke="#d1dea3" vector-effect="non-scaling-stroke" d="
  M 354.30 54.14
  C 356.93 52.77 364.10 50.67 364.31 47.34
  C 364.44 45.23 363.18 43.87 361.23 43.34
  Q 352.30 40.91 349.66 49.42
  C 346.23 60.46 362.80 62.45 365.05 56.31
  A 1.60 1.60 0.0 0 0 362.72 54.39
  Q 358.68 56.87 354.33 54.97
  A 0.46 0.46 0.0 0 1 354.30 54.14"
/>
<path stroke="#d1dea3" vector-effect="non-scaling-stroke" d="
  M 283.31 58.58
  A 0.36 0.36 0.0 0 1 283.93 58.84
  C 283.71 66.57 278.29 62.58 274.09 63.72
  Q 273.60 63.86 273.40 64.33
  C 271.51 68.80 286.10 70.41 287.47 61.32
  Q 288.49 54.53 288.94 47.66
  C 289.31 42.10 280.98 42.61 277.71 44.21
  C 273.15 46.45 271.82 53.23 274.60 57.18
  C 276.13 59.36 280.86 61.15 283.31 58.58"
/>
<path stroke="#dbf2ef" vector-effect="non-scaling-stroke" d="
  M 13.31 73.11
  C 16.41 76.12 21.09 78.32 24.11 73.95
  A 2.68 2.68 0.0 0 1 28.30 73.67
  C 34.58 80.59 39.50 70.81 42.51 74.01
  C 46.16 77.90 49.87 76.79 53.28 73.68
  A 2.36 2.36 0.0 0 1 56.52 73.74
  Q 61.75 78.86 66.93 73.84
  A 2.69 2.68 43.5 0 1 70.58 73.75
  Q 76.84 79.26 82.16 72.93
  Q 82.40 72.64 82.02 72.64
  L 13.47 72.72
  Q 12.91 72.72 13.31 73.11"
/>
<path stroke="#dbf2ef" vector-effect="non-scaling-stroke" d="
  M 70.79 81.39
  L 24.53 81.43
  Q 23.70 81.43 24.41 81.87
  C 29.19 84.86 32.64 86.97 37.66 82.60
  A 1.25 1.22 17.4 0 1 38.19 82.33
  Q 41.16 81.67 43.04 83.79
  Q 43.36 84.15 43.81 84.31
  Q 49.23 86.31 53.53 82.80
  Q 53.92 82.48 54.41 82.36
  Q 56.29 81.90 57.74 82.82
  Q 64.94 87.41 70.90 81.66
  Q 71.18 81.39 70.79 81.39"
/>
<path stroke="#808080" vector-effect="non-scaling-stroke" d="
  M 122.8484 55.8094
  A 4.47 3.26 100.2 0 0 126.8485 51.9873
  A 4.47 3.26 100.2 0 0 124.4316 47.0106
  A 4.47 3.26 100.2 0 0 120.4315 50.8327
  A 4.47 3.26 100.2 0 0 122.8484 55.8094"
/>
<path stroke="#d1dea3" vector-effect="non-scaling-stroke" d="
  M 245.45 55.93
  Q 247.53 56.34 249.23 55.28
  Q 249.70 54.98 249.68 54.43
  L 249.43 46.95
  Q 249.42 46.53 249.00 46.52
  C 244.24 46.32 242.30 51.93 244.52 55.30
  Q 244.85 55.81 245.45 55.93"
/>
<path stroke="#d1dea3" vector-effect="non-scaling-stroke" d="
  M 300.59 46.50
  C 296.14 46.40 293.31 51.85 296.01 55.28
  Q 296.33 55.70 296.84 55.84
  Q 299.07 56.45 300.79 55.19
  Q 301.17 54.92 301.16 54.45
  L 301.01 46.92
  Q 301.00 46.50 300.59 46.50"
/>
<path stroke="#d1dea3" vector-effect="non-scaling-stroke" d="
  M 323.8815 55.8034
  A 4.47 3.21 99.9 0 0 327.8122 51.9519
  A 4.47 3.21 99.9 0 0 325.4185 46.9966
  A 4.47 3.21 99.9 0 0 321.4878 50.8481
  A 4.47 3.21 99.9 0 0 323.8815 55.8034"
/>
<path stroke="#d1dea3" vector-effect="non-scaling-stroke" d="
  M 354.05 50.08
  L 359.87 47.38
  A 0.02 0.02 0.0 0 0 359.88 47.35
  L 359.87 47.31
  A 3.11 1.90 -24.9 0 0 356.25 46.90
  L 356.03 47.00
  A 3.11 1.90 -24.9 0 0 354.01 50.03
  L 354.02 50.07
  A 0.02 0.02 0.0 0 0 354.05 50.08"
/>
<path stroke="#d1dea3" vector-effect="non-scaling-stroke" d="
  M 284.24 46.99
  C 276.24 44.34 275.58 57.57 280.75 55.98
  C 283.92 55.00 284.31 51.00 284.69 47.69
  Q 284.75 47.16 284.24 46.99"
/>
</g>
<path fill="#ffffff" d="
  M 0.00 0.00
  L 370.00 0.00
  L 370.00 90.00
  L 0.00 90.00
  L 0.00 0.00
  Z
  M 47.07 26.14
  L 46.94 49.04
  Q 46.94 49.49 46.55 49.74
  L 46.22 49.94
  C 36.87 50.44 30.37 58.59 29.86 67.59
  Q 29.83 68.12 30.37 68.12
  L 47.03 68.08
  L 49.03 68.07
  L 65.07 68.06
  Q 65.59 68.06 65.66 67.55
  C 66.87 59.16 57.68 50.37 49.52 49.93
  L 49.21 49.72
  Q 48.93 49.53 48.93 49.20
  L 48.58 26.08
  L 56.92 34.22
  Q 57.41 34.70 57.61 34.05
  C 58.73 30.44 54.39 26.69 51.50 24.62
  A 0.18 0.17 -21.2 0 1 51.64 24.31
  Q 54.95 24.96 58.34 25.10
  C 60.48 25.19 63.20 24.45 65.56 24.80
  A 0.99 0.99 0.0 0 0 66.31 23.04
  Q 59.83 18.08 51.89 21.06
  Q 50.38 21.63 51.54 20.51
  L 61.35 11.07
  A 0.60 0.59 27.2 0 0 61.02 10.06
  C 54.86 9.15 49.80 14.39 48.17 19.84
  Q 47.96 20.57 47.69 19.86
  C 45.59 14.18 41.01 9.56 34.95 10.03
  A 0.71 0.71 0.0 0 0 34.51 11.24
  L 44.48 20.99
  A 0.13 0.13 0.0 0 1 44.34 21.21
  C 39.61 19.18 32.19 18.99 29.09 24.03
  Q 28.61 24.81 29.52 24.80
  L 43.52 24.72
  Q 43.87 24.72 43.59 24.93
  C 40.65 27.12 37.96 29.68 37.95 33.63
  A 0.62 0.62 0.0 0 0 39.00 34.07
  L 47.07 26.14
  Z
  M 21.40 43.31
  L 21.51 67.78
  A 0.45 0.45 0.0 0 0 22.28 68.09
  L 22.51 67.86
  Q 22.74 67.63 22.75 67.31
  L 23.23 43.51
  Q 24.23 43.37 23.97 44.01
  Q 27.06 48.37 31.23 51.69
  Q 31.64 52.02 31.71 51.50
  C 32.33 47.21 29.47 44.61 26.13 42.65
  Q 25.28 42.16 26.26 42.16
  L 40.25 42.25
  A 0.63 0.62 -15.8 0 0 40.79 41.30
  C 37.80 36.59 30.25 36.71 25.76 38.62
  A 0.18 0.18 0.0 0 1 25.56 38.33
  L 35.12 28.71
  Q 35.91 27.91 34.83 27.63
  C 29.27 26.18 23.91 32.76 22.40 37.34
  Q 22.17 38.01 21.93 37.34
  C 20.09 32.27 14.68 26.27 8.69 27.64
  Q 7.99 27.80 8.50 28.31
  L 18.35 38.18
  A 0.25 0.25 0.0 0 1 18.08 38.58
  Q 9.78 35.19 3.48 40.93
  A 0.76 0.76 0.0 0 0 4.00 42.25
  L 17.76 42.18
  Q 18.82 42.18 17.88 42.68
  Q 12.86 45.35 12.18 51.03
  A 0.62 0.62 0.0 0 0 13.24 51.54
  L 21.40 43.31
  Z
  M 72.75 43.37
  L 72.83 67.29
  Q 72.84 67.74 73.22 67.96
  L 73.60 68.19
  A 0.46 0.45 -74.2 0 0 74.29 67.80
  L 74.44 43.23
  L 82.93 51.78
  A 0.42 0.41 21.1 0 0 83.64 51.47
  Q 83.31 45.31 77.67 42.78
  A 0.32 0.31 -32.3 0 1 77.81 42.18
  L 92.00 42.28
  A 0.60 0.60 0.0 0 0 92.49 41.32
  C 89.08 36.57 83.86 36.82 78.78 37.87
  A 0.41 0.41 0.0 0 1 78.40 37.18
  L 87.18 28.22
  A 0.49 0.49 0.0 0 0 86.85 27.39
  C 80.16 27.26 76.34 31.32 73.95 37.16
  Q 73.65 37.90 73.38 37.15
  C 71.67 32.40 66.20 26.33 60.45 27.62
  Q 59.77 27.77 60.26 28.27
  L 69.64 37.85
  A 0.30 0.29 76.7 0 1 69.34 38.34
  C 64.45 36.77 57.98 36.74 54.65 41.49
  A 0.52 0.52 0.0 0 0 55.09 42.31
  L 69.24 42.05
  A 0.39 0.38 31.3 0 1 69.42 42.78
  Q 64.38 45.26 63.61 50.81
  A 0.74 0.74 0.0 0 0 64.88 51.42
  L 72.75 43.37
  Z
  M 313.97 36.17
  A 2.17 2.17 0.0 0 0 311.80 34.00
  L 311.68 34.00
  A 2.17 2.17 0.0 0 0 309.51 36.17
  L 309.51 57.35
  A 2.17 2.17 0.0 0 0 311.68 59.52
  L 311.80 59.52
  A 2.17 2.17 0.0 0 0 313.97 57.35
  L 313.97 36.17
  Z
  M 172.24 47.74
  A 0.24 0.24 0.0 0 1 172.70 47.74
  L 175.64 58.22
  A 2.37 2.37 0.0 0 0 180.16 58.38
  L 184.26 46.99
  A 0.28 0.28 0.0 0 1 184.80 47.03
  Q 185.68 52.09 187.03 57.24
  C 188.19 61.61 192.81 61.02 191.48 56.51
  Q 188.88 47.66 187.75 38.50
  Q 187.57 37.04 186.21 35.65
  A 1.15 1.14 71.9 0 0 185.59 35.33
  Q 183.01 34.92 182.54 36.80
  Q 180.82 43.70 178.50 50.24
  A 0.35 0.35 0.0 0 1 177.83 50.19
  L 175.05 37.28
  A 2.31 2.31 0.0 0 0 172.31 35.51
  Q 169.99 36.02 169.39 39.03
  Q 167.73 47.46 165.56 55.76
  C 164.38 60.29 169.30 61.44 169.90 57.92
  Q 170.77 52.72 172.24 47.74
  Z
  M 223.60 49.96
  L 220.80 37.24
  A 2.54 2.46 -12.8 0 0 217.75 35.38
  Q 217.06 35.55 216.33 36.44
  Q 215.84 37.04 215.61 38.01
  Q 213.54 46.91 211.27 55.75
  Q 210.48 58.85 212.49 59.77
  A 2.15 2.15 0.0 0 0 215.49 58.29
  L 217.79 48.07
  A 0.43 0.42 -44.8 0 1 218.62 48.07
  Q 219.67 53.04 221.60 58.01
  C 222.61 60.58 225.45 59.71 226.20 57.69
  Q 228.21 52.27 230.01 46.96
  A 0.30 0.30 0.0 0 1 230.60 47.01
  C 230.96 49.42 232.14 60.37 235.55 60.24
  Q 236.55 60.19 237.01 59.68
  A 2.47 2.47 0.0 0 0 237.52 57.36
  Q 234.83 48.34 233.65 39.32
  Q 233.40 37.34 232.26 35.85
  Q 231.98 35.48 231.53 35.38
  Q 228.75 34.73 228.17 36.97
  Q 225.92 45.62 224.35 50.01
  Q 223.89 51.29 223.60 49.96
  Z
  M 106.27 39.94
  L 113.23 40.31
  A 1.79 1.75 29.4 0 0 114.24 40.04
  Q 115.40 39.31 115.28 37.90
  A 2.05 2.05 0.0 0 0 113.29 36.02
  L 94.97 35.52
  Q 94.43 35.50 94.02 35.86
  Q 92.61 37.09 93.70 38.93
  A 0.98 0.97 77.6 0 0 94.44 39.41
  L 100.89 40.17
  Q 101.32 40.22 101.34 40.65
  L 102.36 57.29
  A 1.87 1.86 67.1 0 0 105.48 58.56
  Q 106.95 57.23 106.69 54.48
  Q 106.05 47.52 105.70 40.51
  Q 105.67 39.91 106.27 39.94
  Z
  M 261.58 43.80
  Q 261.09 41.19 258.50 42.28
  A 1.46 1.46 0.0 0 0 257.61 43.56
  Q 257.32 50.00 256.99 56.48
  Q 256.83 59.56 259.90 59.74
  A 1.68 1.67 86.3 0 0 261.64 57.76
  Q 260.43 51.22 265.05 46.86
  A 1.34 1.34 0.0 0 1 267.31 47.93
  Q 266.96 53.31 267.79 58.49
  A 1.67 1.67 0.0 0 0 268.78 59.75
  C 271.36 60.87 272.13 58.93 271.93 56.76
  C 271.61 53.45 271.91 47.16 270.51 44.54
  C 268.72 41.20 264.93 42.10 262.38 44.11
  Q 261.73 44.62 261.58 43.80
  Z
  M 137.58 54.97
  L 137.63 43.49
  A 0.41 0.41 0.0 0 0 137.51 43.20
  Q 136.18 41.90 134.28 42.73
  Q 133.90 42.90 133.81 43.31
  C 132.59 49.13 131.61 63.49 142.89 59.15
  Q 143.36 58.97 143.70 59.35
  Q 145.18 60.97 146.98 59.58
  Q 147.41 59.26 147.42 58.72
  L 147.71 44.13
  Q 147.72 43.61 147.35 43.26
  Q 145.98 41.96 143.99 42.96
  Q 143.52 43.20 143.51 43.73
  L 143.14 54.77
  Q 143.12 55.41 142.48 55.44
  L 138.29 55.64
  Q 137.58 55.68 137.58 54.97
  Z
  M 338.48 44.07
  Q 337.60 42.55 335.83 43.08
  A 1.85 1.84 82.0 0 0 334.52 44.82
  Q 334.46 51.04 334.51 57.28
  C 334.53 59.00 335.03 60.23 337.00 59.95
  A 2.05 2.04 85.7 0 0 338.76 57.90
  C 338.70 53.35 337.30 48.50 342.85 46.67
  A 0.58 0.57 74.4 0 1 343.59 47.09
  L 344.08 49.31
  A 0.78 0.75 1.5 0 0 344.64 49.88
  C 349.56 51.16 350.18 38.46 339.21 44.29
  Q 338.74 44.54 338.48 44.07
  Z
  M 121.7279 59.7626
  A 8.60 7.52 102.3 0 0 130.9074 52.9620
  A 8.60 7.52 102.3 0 0 125.3921 42.9574
  A 8.60 7.52 102.3 0 0 116.2126 49.7580
  A 8.60 7.52 102.3 0 0 121.7279 59.7626
  Z
  M 153.96 44.08
  Q 153.10 42.35 150.96 43.15
  A 1.36 1.35 -10.3 0 0 150.07 44.42
  L 150.05 58.53
  Q 150.05 59.14 150.56 59.48
  Q 152.08 60.48 153.47 59.43
  A 1.92 1.92 0.0 0 0 154.23 57.94
  C 154.33 53.46 152.67 48.09 158.67 46.62
  Q 159.10 46.51 159.17 46.95
  L 159.51 49.00
  Q 159.60 49.53 160.08 49.78
  C 164.26 51.90 163.68 45.13 162.33 43.28
  A 1.22 1.19 -13.8 0 0 161.52 42.80
  Q 157.82 42.27 154.80 44.30
  Q 154.26 44.67 153.96 44.08
  Z
  M 200.97 51.76
  Q 199.02 48.05 196.79 44.50
  C 195.79 42.91 194.18 42.04 192.84 43.86
  A 1.91 1.90 48.8 0 0 192.71 45.91
  L 198.77 56.88
  Q 199.01 57.33 198.80 57.79
  C 197.81 60.00 193.56 67.16 197.73 68.00
  A 1.67 1.67 0.0 0 0 199.59 67.01
  Q 204.01 56.40 209.01 46.55
  C 209.74 45.11 209.85 43.81 208.27 43.03
  A 2.16 2.16 0.0 0 0 205.36 44.03
  L 201.66 51.75
  Q 201.33 52.44 200.97 51.76
  Z
  M 253.51 44.38
  C 247.80 40.87 240.82 43.62 239.39 49.94
  C 237.74 57.23 243.31 61.96 250.60 58.65
  Q 251.12 58.41 251.46 58.85
  Q 252.06 59.61 252.99 59.91
  A 1.75 1.75 0.0 0 0 255.14 57.53
  Q 252.68 52.08 254.25 46.21
  Q 254.56 45.02 253.51 44.38
  Z
  M 290.93 49.85
  C 288.91 57.08 295.43 62.27 302.10 58.60
  Q 302.55 58.36 302.87 58.74
  C 304.64 60.84 307.67 59.98 306.43 56.96
  C 305.04 53.55 304.80 50.29 305.79 46.73
  C 307.20 41.68 293.47 40.77 290.93 49.85
  Z
  M 322.6403 59.7658
  A 8.62 7.52 102.8 0 0 331.8831 53.0260
  A 8.62 7.52 102.8 0 0 326.4597 42.9542
  A 8.62 7.52 102.8 0 0 317.2169 49.6940
  A 8.62 7.52 102.8 0 0 322.6403 59.7658
  Z
  M 354.30 54.14
  C 356.93 52.77 364.10 50.67 364.31 47.34
  C 364.44 45.23 363.18 43.87 361.23 43.34
  Q 352.30 40.91 349.66 49.42
  C 346.23 60.46 362.80 62.45 365.05 56.31
  A 1.60 1.60 0.0 0 0 362.72 54.39
  Q 358.68 56.87 354.33 54.97
  A 0.46 0.46 0.0 0 1 354.30 54.14
  Z
  M 283.31 58.58
  A 0.36 0.36 0.0 0 1 283.93 58.84
  C 283.71 66.57 278.29 62.58 274.09 63.72
  Q 273.60 63.86 273.40 64.33
  C 271.51 68.80 286.10 70.41 287.47 61.32
  Q 288.49 54.53 288.94 47.66
  C 289.31 42.10 280.98 42.61 277.71 44.21
  C 273.15 46.45 271.82 53.23 274.60 57.18
  C 276.13 59.36 280.86 61.15 283.31 58.58
  Z
  M 13.31 73.11
  C 16.41 76.12 21.09 78.32 24.11 73.95
  A 2.68 2.68 0.0 0 1 28.30 73.67
  C 34.58 80.59 39.50 70.81 42.51 74.01
  C 46.16 77.90 49.87 76.79 53.28 73.68
  A 2.36 2.36 0.0 0 1 56.52 73.74
  Q 61.75 78.86 66.93 73.84
  A 2.69 2.68 43.5 0 1 70.58 73.75
  Q 76.84 79.26 82.16 72.93
  Q 82.40 72.64 82.02 72.64
  L 13.47 72.72
  Q 12.91 72.72 13.31 73.11
  Z
  M 70.79 81.39
  L 24.53 81.43
  Q 23.70 81.43 24.41 81.87
  C 29.19 84.86 32.64 86.97 37.66 82.60
  A 1.25 1.22 17.4 0 1 38.19 82.33
  Q 41.16 81.67 43.04 83.79
  Q 43.36 84.15 43.81 84.31
  Q 49.23 86.31 53.53 82.80
  Q 53.92 82.48 54.41 82.36
  Q 56.29 81.90 57.74 82.82
  Q 64.94 87.41 70.90 81.66
  Q 71.18 81.39 70.79 81.39
  Z"
/>
<path fill="#a2bc46" d="
  M 48.58 26.08
  Q 47.81 25.85 47.07 26.14
  L 39.00 34.07
  A 0.62 0.62 0.0 0 1 37.95 33.63
  C 37.96 29.68 40.65 27.12 43.59 24.93
  Q 43.87 24.72 43.52 24.72
  L 29.52 24.80
  Q 28.61 24.81 29.09 24.03
  C 32.19 18.99 39.61 19.18 44.34 21.21
  A 0.13 0.13 0.0 0 0 44.48 20.99
  L 34.51 11.24
  A 0.71 0.71 0.0 0 1 34.95 10.03
  C 41.01 9.56 45.59 14.18 47.69 19.86
  Q 47.96 20.57 48.17 19.84
  C 49.80 14.39 54.86 9.15 61.02 10.06
  A 0.60 0.59 27.2 0 1 61.35 11.07
  L 51.54 20.51
  Q 50.38 21.63 51.89 21.06
  Q 59.83 18.08 66.31 23.04
  A 0.99 0.99 0.0 0 1 65.56 24.80
  C 63.20 24.45 60.48 25.19 58.34 25.10
  Q 54.95 24.96 51.64 24.31
  A 0.18 0.17 -21.2 0 0 51.50 24.62
  C 54.39 26.69 58.73 30.44 57.61 34.05
  Q 57.41 34.70 56.92 34.22
  L 48.58 26.08
  Z"
/>
<path fill="#d0985c" d="
  M 48.58 26.08
  L 48.93 49.20
  Q 48.93 49.53 49.21 49.72
  L 49.52 49.93
  Q 48.65 50.09 48.66 50.56
  Q 48.84 58.62 48.72 66.69
  Q 48.72 66.91 48.56 67.06
  L 48.32 67.30
  Q 48.04 67.58 48.42 67.67
  Q 48.92 67.79 49.03 68.07
  L 47.03 68.08
  L 47.05 50.53
  A 0.56 0.55 5.4 0 0 46.58 49.97
  Q 46.42 49.94 46.22 49.94
  L 46.55 49.74
  Q 46.94 49.49 46.94 49.04
  L 47.07 26.14
  Q 47.81 25.85 48.58 26.08
  Z"
/>
<path fill="#a2bc46" d="
  M 23.23 43.51
  Q 23.43 42.75 22.82 42.67
  Q 21.79 42.53 21.40 43.31
  L 13.24 51.54
  A 0.62 0.62 0.0 0 1 12.18 51.03
  Q 12.86 45.35 17.88 42.68
  Q 18.82 42.18 17.76 42.18
  L 4.00 42.25
  A 0.76 0.76 0.0 0 1 3.48 40.93
  Q 9.78 35.19 18.08 38.58
  A 0.25 0.25 0.0 0 0 18.35 38.18
  L 8.50 28.31
  Q 7.99 27.80 8.69 27.64
  C 14.68 26.27 20.09 32.27 21.93 37.34
  Q 22.17 38.01 22.40 37.34
  C 23.91 32.76 29.27 26.18 34.83 27.63
  Q 35.91 27.91 35.12 28.71
  L 25.56 38.33
  A 0.18 0.18 0.0 0 0 25.76 38.62
  C 30.25 36.71 37.80 36.59 40.79 41.30
  A 0.63 0.62 -15.8 0 1 40.25 42.25
  L 26.26 42.16
  Q 25.28 42.16 26.13 42.65
  C 29.47 44.61 32.33 47.21 31.71 51.50
  Q 31.64 52.02 31.23 51.69
  Q 27.06 48.37 23.97 44.01
  Q 24.23 43.37 23.23 43.51
  Z"
/>
<path fill="#a2bc46" d="
  M 74.44 43.23
  Q 72.98 41.61 72.75 43.37
  L 64.88 51.42
  A 0.74 0.74 0.0 0 1 63.61 50.81
  Q 64.38 45.26 69.42 42.78
  A 0.39 0.38 31.3 0 0 69.24 42.05
  L 55.09 42.31
  A 0.52 0.52 0.0 0 1 54.65 41.49
  C 57.98 36.74 64.45 36.77 69.34 38.34
  A 0.30 0.29 76.7 0 0 69.64 37.85
  L 60.26 28.27
  Q 59.77 27.77 60.45 27.62
  C 66.20 26.33 71.67 32.40 73.38 37.15
  Q 73.65 37.90 73.95 37.16
  C 76.34 31.32 80.16 27.26 86.85 27.39
  A 0.49 0.49 0.0 0 1 87.18 28.22
  L 78.40 37.18
  A 0.41 0.41 0.0 0 0 78.78 37.87
  C 83.86 36.82 89.08 36.57 92.49 41.32
  A 0.60 0.60 0.0 0 1 92.00 42.28
  L 77.81 42.18
  A 0.32 0.31 -32.3 0 0 77.67 42.78
  Q 83.31 45.31 83.64 51.47
  A 0.42 0.41 21.1 0 1 82.93 51.78
  L 74.44 43.23
  Z"
/>
<rect fill="#a2bc46" x="309.51" y="34.00" width="4.46" height="25.52" rx="2.17"/>
<path fill="#000000" d="
  M 172.24 47.74
  Q 170.77 52.72 169.90 57.92
  C 169.30 61.44 164.38 60.29 165.56 55.76
  Q 167.73 47.46 169.39 39.03
  Q 169.99 36.02 172.31 35.51
  A 2.31 2.31 0.0 0 1 175.05 37.28
  L 177.83 50.19
  A 0.35 0.35 0.0 0 0 178.50 50.24
  Q 180.82 43.70 182.54 36.80
  Q 183.01 34.92 185.59 35.33
  A 1.15 1.14 71.9 0 1 186.21 35.65
  Q 187.57 37.04 187.75 38.50
  Q 188.88 47.66 191.48 56.51
  C 192.81 61.02 188.19 61.61 187.03 57.24
  Q 185.68 52.09 184.80 47.03
  A 0.28 0.28 0.0 0 0 184.26 46.99
  L 180.16 58.38
  A 2.37 2.37 0.0 0 1 175.64 58.22
  L 172.70 47.74
  A 0.24 0.24 0.0 0 0 172.24 47.74
  Z"
/>
<path fill="#a2bc46" d="
  M 224.35 50.01
  Q 225.92 45.62 228.17 36.97
  Q 228.75 34.73 231.53 35.38
  Q 231.98 35.48 232.26 35.85
  Q 233.40 37.34 233.65 39.32
  Q 234.83 48.34 237.52 57.36
  A 2.47 2.47 0.0 0 1 237.01 59.68
  Q 236.55 60.19 235.55 60.24
  C 232.14 60.37 230.96 49.42 230.60 47.01
  A 0.30 0.30 0.0 0 0 230.01 46.96
  Q 228.21 52.27 226.20 57.69
  C 225.45 59.71 222.61 60.58 221.60 58.01
  Q 219.67 53.04 218.62 48.07
  A 0.43 0.42 -44.8 0 0 217.79 48.07
  L 215.49 58.29
  A 2.15 2.15 0.0 0 1 212.49 59.77
  Q 210.48 58.85 211.27 55.75
  Q 213.54 46.91 215.61 38.01
  Q 215.84 37.04 216.33 36.44
  Q 217.06 35.55 217.75 35.38
  A 2.54 2.46 -12.8 0 1 220.80 37.24
  L 223.60 49.96
  Q 223.89 51.29 224.35 50.01
  Z"
/>
<path fill="#000000" d="
  M 105.70 40.51
  Q 106.05 47.52 106.69 54.48
  Q 106.95 57.23 105.48 58.56
  A 1.87 1.86 67.1 0 1 102.36 57.29
  L 101.34 40.65
  Q 101.32 40.22 100.89 40.17
  L 94.44 39.41
  A 0.98 0.97 77.6 0 1 93.70 38.93
  Q 92.61 37.09 94.02 35.86
  Q 94.43 35.50 94.97 35.52
  L 113.29 36.02
  A 2.05 2.05 0.0 0 1 115.28 37.90
  Q 115.40 39.31 114.24 40.04
  A 1.79 1.75 29.4 0 1 113.23 40.31
  L 106.27 39.94
  Q 105.67 39.91 105.70 40.51
  Z"
/>
<path fill="#a2bc46" d="
  M 262.38 44.11
  C 264.93 42.10 268.72 41.20 270.51 44.54
  C 271.91 47.16 271.61 53.45 271.93 56.76
  C 272.13 58.93 271.36 60.87 268.78 59.75
  A 1.67 1.67 0.0 0 1 267.79 58.49
  Q 266.96 53.31 267.31 47.93
  A 1.34 1.34 0.0 0 0 265.05 46.86
  Q 260.43 51.22 261.64 57.76
  A 1.68 1.67 86.3 0 1 259.90 59.74
  Q 256.83 59.56 256.99 56.48
  Q 257.32 50.00 257.61 43.56
  A 1.46 1.46 0.0 0 1 258.50 42.28
  Q 261.09 41.19 261.58 43.80
  Q 261.73 44.62 262.38 44.11
  Z"
/>
<path fill="#d0985c" d="
  M 23.23 43.51
  L 22.75 67.31
  Q 22.74 67.63 22.51 67.86
  L 22.28 68.09
  A 0.45 0.45 0.0 0 1 21.51 67.78
  L 21.40 43.31
  Q 21.79 42.53 22.82 42.67
  Q 23.43 42.75 23.23 43.51
  Z"
/>
<path fill="#d0985c" d="
  M 74.44 43.23
  L 74.29 67.80
  A 0.46 0.45 -74.2 0 1 73.60 68.19
  L 73.22 67.96
  Q 72.84 67.74 72.83 67.29
  L 72.75 43.37
  Q 72.98 41.61 74.44 43.23
  Z"
/>
<path fill="#000000" d="
  M 138.29 55.64
  L 142.48 55.44
  Q 143.12 55.41 143.14 54.77
  L 143.51 43.73
  Q 143.52 43.20 143.99 42.96
  Q 145.98 41.96 147.35 43.26
  Q 147.72 43.61 147.71 44.13
  L 147.42 58.72
  Q 147.41 59.26 146.98 59.58
  Q 145.18 60.97 143.70 59.35
  Q 143.36 58.97 142.89 59.15
  C 131.61 63.49 132.59 49.13 133.81 43.31
  Q 133.90 42.90 134.28 42.73
  Q 136.18 41.90 137.51 43.20
  A 0.41 0.41 0.0 0 1 137.63 43.49
  L 137.58 54.97
  Q 137.58 55.68 138.29 55.64
  Z"
/>
<path fill="#a2bc46" d="
  M 339.21 44.29
  C 350.18 38.46 349.56 51.16 344.64 49.88
  A 0.78 0.75 1.5 0 1 344.08 49.31
  L 343.59 47.09
  A 0.58 0.57 74.4 0 0 342.85 46.67
  C 337.30 48.50 338.70 53.35 338.76 57.90
  A 2.05 2.04 85.7 0 1 337.00 59.95
  C 335.03 60.23 334.53 59.00 334.51 57.28
  Q 334.46 51.04 334.52 44.82
  A 1.85 1.84 82.0 0 1 335.83 43.08
  Q 337.60 42.55 338.48 44.07
  Q 338.74 44.54 339.21 44.29
  Z"
/>
<path fill="#000000" d="
  M 121.7279 59.7626
  A 8.60 7.52 102.3 0 1 116.2126 49.7580
  A 8.60 7.52 102.3 0 1 125.3921 42.9574
  A 8.60 7.52 102.3 0 1 130.9074 52.9620
  A 8.60 7.52 102.3 0 1 121.7279 59.7626
  Z
  M 122.8484 55.8094
  A 4.47 3.26 100.2 0 0 126.8485 51.9873
  A 4.47 3.26 100.2 0 0 124.4316 47.0106
  A 4.47 3.26 100.2 0 0 120.4315 50.8327
  A 4.47 3.26 100.2 0 0 122.8484 55.8094
  Z"
/>
<path fill="#000000" d="
  M 154.80 44.30
  Q 157.82 42.27 161.52 42.80
  A 1.22 1.19 -13.8 0 1 162.33 43.28
  C 163.68 45.13 164.26 51.90 160.08 49.78
  Q 159.60 49.53 159.51 49.00
  L 159.17 46.95
  Q 159.10 46.51 158.67 46.62
  C 152.67 48.09 154.33 53.46 154.23 57.94
  A 1.92 1.92 0.0 0 1 153.47 59.43
  Q 152.08 60.48 150.56 59.48
  Q 150.05 59.14 150.05 58.53
  L 150.07 44.42
  A 1.36 1.35 -10.3 0 1 150.96 43.15
  Q 153.10 42.35 153.96 44.08
  Q 154.26 44.67 154.80 44.30
  Z"
/>
<path fill="#000000" d="
  M 201.66 51.75
  L 205.36 44.03
  A 2.16 2.16 0.0 0 1 208.27 43.03
  C 209.85 43.81 209.74 45.11 209.01 46.55
  Q 204.01 56.40 199.59 67.01
  A 1.67 1.67 0.0 0 1 197.73 68.00
  C 193.56 67.16 197.81 60.00 198.80 57.79
  Q 199.01 57.33 198.77 56.88
  L 192.71 45.91
  A 1.91 1.90 48.8 0 1 192.84 43.86
  C 194.18 42.04 195.79 42.91 196.79 44.50
  Q 199.02 48.05 200.97 51.76
  Q 201.33 52.44 201.66 51.75
  Z"
/>
<path fill="#a2bc46" d="
  M 253.51 44.38
  Q 254.56 45.02 254.25 46.21
  Q 252.68 52.08 255.14 57.53
  A 1.75 1.75 0.0 0 1 252.99 59.91
  Q 252.06 59.61 251.46 58.85
  Q 251.12 58.41 250.60 58.65
  C 243.31 61.96 237.74 57.23 239.39 49.94
  C 240.82 43.62 247.80 40.87 253.51 44.38
  Z
  M 245.45 55.93
  Q 247.53 56.34 249.23 55.28
  Q 249.70 54.98 249.68 54.43
  L 249.43 46.95
  Q 249.42 46.53 249.00 46.52
  C 244.24 46.32 242.30 51.93 244.52 55.30
  Q 244.85 55.81 245.45 55.93
  Z"
/>
<path fill="#a2bc46" d="
  M 290.93 49.85
  C 293.47 40.77 307.20 41.68 305.79 46.73
  C 304.80 50.29 305.04 53.55 306.43 56.96
  C 307.67 59.98 304.64 60.84 302.87 58.74
  Q 302.55 58.36 302.10 58.60
  C 295.43 62.27 288.91 57.08 290.93 49.85
  Z
  M 300.59 46.50
  C 296.14 46.40 293.31 51.85 296.01 55.28
  Q 296.33 55.70 296.84 55.84
  Q 299.07 56.45 300.79 55.19
  Q 301.17 54.92 301.16 54.45
  L 301.01 46.92
  Q 301.00 46.50 300.59 46.50
  Z"
/>
<path fill="#a2bc46" d="
  M 322.6403 59.7658
  A 8.62 7.52 102.8 0 1 317.2169 49.6940
  A 8.62 7.52 102.8 0 1 326.4597 42.9542
  A 8.62 7.52 102.8 0 1 331.8831 53.0260
  A 8.62 7.52 102.8 0 1 322.6403 59.7658
  Z
  M 323.8815 55.8034
  A 4.47 3.21 99.9 0 0 327.8122 51.9519
  A 4.47 3.21 99.9 0 0 325.4185 46.9966
  A 4.47 3.21 99.9 0 0 321.4878 50.8481
  A 4.47 3.21 99.9 0 0 323.8815 55.8034
  Z"
/>
<path fill="#a2bc46" d="
  M 354.33 54.97
  Q 358.68 56.87 362.72 54.39
  A 1.60 1.60 0.0 0 1 365.05 56.31
  C 362.80 62.45 346.23 60.46 349.66 49.42
  Q 352.30 40.91 361.23 43.34
  C 363.18 43.87 364.44 45.23 364.31 47.34
  C 364.10 50.67 356.93 52.77 354.30 54.14
  A 0.46 0.46 0.0 0 0 354.33 54.97
  Z
  M 354.05 50.08
  L 359.87 47.38
  A 0.02 0.02 0.0 0 0 359.88 47.35
  L 359.87 47.31
  A 3.11 1.90 -24.9 0 0 356.25 46.90
  L 356.03 47.00
  A 3.11 1.90 -24.9 0 0 354.01 50.03
  L 354.02 50.07
  A 0.02 0.02 0.0 0 0 354.05 50.08
  Z"
/>
<path fill="#a2bc46" d="
  M 283.31 58.58
  C 280.86 61.15 276.13 59.36 274.60 57.18
  C 271.82 53.23 273.15 46.45 277.71 44.21
  C 280.98 42.61 289.31 42.10 288.94 47.66
  Q 288.49 54.53 287.47 61.32
  C 286.10 70.41 271.51 68.80 273.40 64.33
  Q 273.60 63.86 274.09 63.72
  C 278.29 62.58 283.71 66.57 283.93 58.84
  A 0.36 0.36 0.0 0 0 283.31 58.58
  Z
  M 284.24 46.99
  C 276.24 44.34 275.58 57.57 280.75 55.98
  C 283.92 55.00 284.31 51.00 284.69 47.69
  Q 284.75 47.16 284.24 46.99
  Z"
/>
<path fill="#ffffff" d="
  M 244.52 55.30
  C 242.30 51.93 244.24 46.32 249.00 46.52
  Q 249.42 46.53 249.43 46.95
  L 249.68 54.43
  Q 249.70 54.98 249.23 55.28
  Q 247.53 56.34 245.45 55.93
  Q 244.85 55.81 244.52 55.30
  Z"
/>
<path fill="#ffffff" d="
  M 296.01 55.28
  C 293.31 51.85 296.14 46.40 300.59 46.50
  Q 301.00 46.50 301.01 46.92
  L 301.16 54.45
  Q 301.17 54.92 300.79 55.19
  Q 299.07 56.45 296.84 55.84
  Q 296.33 55.70 296.01 55.28
  Z"
/>
<path fill="#ffffff" d="
  M 354.05 50.08
  A 0.02 0.02 0.0 0 1 354.02 50.07
  L 354.01 50.03
  A 3.11 1.90 -24.9 0 1 356.03 47.00
  L 356.25 46.90
  A 3.11 1.90 -24.9 0 1 359.87 47.31
  L 359.88 47.35
  A 0.02 0.02 0.0 0 1 359.87 47.38
  L 354.05 50.08
  Z"
/>
<path fill="#ffffff" d="
  M 280.75 55.98
  C 275.58 57.57 276.24 44.34 284.24 46.99
  Q 284.75 47.16 284.69 47.69
  C 284.31 51.00 283.92 55.00 280.75 55.98
  Z"
/>
<ellipse fill="#ffffff" cx="0.00" cy="0.00" transform="translate(123.64,51.41) rotate(100.2)" rx="4.47" ry="3.26"/>
<ellipse fill="#ffffff" cx="0.00" cy="0.00" transform="translate(324.65,51.40) rotate(99.9)" rx="4.47" ry="3.21"/>
<path fill="#ffc91f" d="
  M 46.22 49.94
  Q 46.42 49.94 46.58 49.97
  A 0.56 0.55 5.4 0 1 47.05 50.53
  L 47.03 68.08
  L 30.37 68.12
  Q 29.83 68.12 29.86 67.59
  C 30.37 58.59 36.87 50.44 46.22 49.94
  Z"
/>
<path fill="#ffc91f" d="
  M 49.52 49.93
  C 57.68 50.37 66.87 59.16 65.66 67.55
  Q 65.59 68.06 65.07 68.06
  L 49.03 68.07
  Q 48.92 67.79 48.42 67.67
  Q 48.04 67.58 48.32 67.30
  L 48.56 67.06
  Q 48.72 66.91 48.72 66.69
  Q 48.84 58.62 48.66 50.56
  Q 48.65 50.09 49.52 49.93
  Z"
/>
<path fill="#b6e5de" d="
  M 24.11 73.95
  C 21.09 78.32 16.41 76.12 13.31 73.11
  Q 12.91 72.72 13.47 72.72
  L 82.02 72.64
  Q 82.40 72.64 82.16 72.93
  Q 76.84 79.26 70.58 73.75
  A 2.69 2.68 43.5 0 0 66.93 73.84
  Q 61.75 78.86 56.52 73.74
  A 2.36 2.36 0.0 0 0 53.28 73.68
  C 49.87 76.79 46.16 77.90 42.51 74.01
  C 39.50 70.81 34.58 80.59 28.30 73.67
  A 2.68 2.68 0.0 0 0 24.11 73.95
  Z"
/>
<path fill="#b6e5de" d="
  M 24.53 81.43
  L 70.79 81.39
  Q 71.18 81.39 70.90 81.66
  Q 64.94 87.41 57.74 82.82
  Q 56.29 81.90 54.41 82.36
  Q 53.92 82.48 53.53 82.80
  Q 49.23 86.31 43.81 84.31
  Q 43.36 84.15 43.04 83.79
  Q 41.16 81.67 38.19 82.33
  A 1.25 1.22 17.4 0 0 37.66 82.60
  C 32.64 86.97 29.19 84.86 24.41 81.87
  Q 23.70 81.43 24.53 81.43
  Z"
/>
</svg>
